<?xml version="1.0" encoding="UTF-8"?>
<svg version="1.1" xmlns="http://www.w3.org/2000/svg" width="650" height="200">
<path d="M0,0 L21,0 L21,1 L28,1 L28,2 L32,2 L32,3 L36,3 L36,4 L39,4 L39,5 L42,5 L42,6 L45,6 L45,7 L47,7 L47,8 L49,8 L49,9 L51,9 L51,10 L53,10 L53,11 L55,11 L55,12 L57,12 L57,13 L58,13 L58,14 L60,14 L60,15 L61,15 L61,16 L63,16 L63,17 L64,17 L64,18 L66,18 L66,19 L67,19 L67,20 L68,20 L68,21 L69,21 L69,22 L70,22 L70,23 L72,23 L72,24 L73,24 L73,25 L74,25 L74,26 L75,26 L75,27 L76,27 L76,28 L77,28 L77,29 L78,29 L78,31 L79,31 L79,32 L80,32 L80,33 L81,33 L81,34 L82,34 L82,35 L83,35 L83,37 L84,37 L84,38 L85,38 L85,40 L86,40 L86,41 L87,41 L87,43 L88,43 L88,44 L89,44 L89,46 L90,46 L90,48 L91,48 L91,50 L92,50 L92,52 L93,52 L93,54 L94,54 L94,57 L95,57 L95,59 L96,59 L96,62 L97,62 L97,65 L98,65 L98,69 L99,69 L99,74 L100,74 L100,81 L101,81 L101,100 L100,100 L100,107 L99,107 L99,112 L98,112 L98,116 L97,116 L97,119 L96,119 L96,122 L95,122 L95,125 L94,125 L94,127 L93,127 L93,129 L92,129 L92,131 L91,131 L91,133 L90,133 L90,135 L89,135 L89,137 L88,137 L88,138 L87,138 L87,140 L86,140 L86,142 L85,142 L85,143 L84,143 L84,144 L83,144 L83,146 L82,146 L82,147 L81,147 L81,148 L80,148 L80,149 L79,149 L79,151 L78,151 L78,152 L77,152 L77,153 L76,153 L76,154 L75,154 L75,155 L74,155 L74,156 L73,156 L73,157 L72,157 L72,158 L71,158 L71,159 L70,159 L70,160 L68,160 L68,161 L67,161 L67,162 L66,162 L66,163 L65,163 L65,164 L63,164 L63,165 L62,165 L62,166 L60,166 L60,167 L59,167 L59,168 L57,168 L57,169 L55,169 L55,170 L54,170 L54,171 L52,171 L52,172 L50,172 L50,173 L47,173 L47,174 L45,174 L45,175 L43,175 L43,176 L40,176 L40,177 L37,177 L37,178 L33,178 L33,179 L29,179 L29,180 L22,180 L22,181 L-2,181 L-2,180 L-8,180 L-8,179 L-12,179 L-12,178 L-16,178 L-16,177 L-19,177 L-19,176 L-22,176 L-22,175 L-25,175 L-25,174 L-27,174 L-27,173 L-29,173 L-29,172 L-31,172 L-31,171 L-33,171 L-33,170 L-35,170 L-35,169 L-36,169 L-36,168 L-38,168 L-38,167 L-40,167 L-40,166 L-41,166 L-41,165 L-43,165 L-43,164 L-44,164 L-44,163 L-45,163 L-45,162 L-47,162 L-47,161 L-48,161 L-48,160 L-49,160 L-49,159 L-50,159 L-50,158 L-51,158 L-51,157 L-52,157 L-52,156 L-53,156 L-53,155 L-54,155 L-54,154 L-55,154 L-55,153 L-56,153 L-56,152 L-57,152 L-57,151 L-58,151 L-58,150 L-59,150 L-59,149 L-60,149 L-60,148 L-61,148 L-61,146 L-62,146 L-62,145 L-63,145 L-63,144 L-64,144 L-64,142 L-65,142 L-65,141 L-66,141 L-66,139 L-67,139 L-67,138 L-68,138 L-68,136 L-69,136 L-69,134 L-70,134 L-70,132 L-71,132 L-71,130 L-72,130 L-72,128 L-73,128 L-73,126 L-74,126 L-74,123 L-75,123 L-75,120 L-76,120 L-76,117 L-77,117 L-77,114 L-78,114 L-78,109 L-79,109 L-79,104 L-80,104 L-80,77 L-79,77 L-79,72 L-78,72 L-78,67 L-77,67 L-77,64 L-76,64 L-76,61 L-75,61 L-75,58 L-74,58 L-74,55 L-73,55 L-73,53 L-72,53 L-72,51 L-71,51 L-71,49 L-70,49 L-70,47 L-69,47 L-69,45 L-68,45 L-68,44 L-67,44 L-67,42 L-66,42 L-66,40 L-65,40 L-65,39 L-64,39 L-64,38 L-63,38 L-63,36 L-62,36 L-62,35 L-61,35 L-61,34 L-60,34 L-60,32 L-59,32 L-59,31 L-58,31 L-58,30 L-57,30 L-57,29 L-56,29 L-56,28 L-55,28 L-55,27 L-54,27 L-54,26 L-53,26 L-53,25 L-52,25 L-52,24 L-51,24 L-51,23 L-50,23 L-50,22 L-49,22 L-49,21 L-48,21 L-48,20 L-46,20 L-46,19 L-45,19 L-45,18 L-44,18 L-44,17 L-42,17 L-42,16 L-41,16 L-41,15 L-39,15 L-39,14 L-38,14 L-38,13 L-36,13 L-36,12 L-34,12 L-34,11 L-33,11 L-33,10 L-31,10 L-31,9 L-29,9 L-29,8 L-26,8 L-26,7 L-24,7 L-24,6 L-22,6 L-22,5 L-19,5 L-19,4 L-15,4 L-15,3 L-12,3 L-12,2 L-7,2 L-7,1 L0,1 Z " fill="#C7CFD9" transform="translate(100,12)"/>
<path d="M0,0 L28,0 L28,1 L29,1 L29,3 L30,3 L30,5 L31,5 L31,7 L32,7 L32,9 L33,9 L33,10 L34,10 L34,12 L35,12 L35,14 L36,14 L36,16 L37,16 L37,18 L38,18 L38,20 L39,20 L39,22 L40,22 L40,23 L41,23 L41,25 L42,25 L42,27 L43,27 L43,29 L44,29 L44,31 L45,31 L45,33 L46,33 L46,35 L47,35 L47,37 L48,37 L48,38 L49,38 L49,40 L50,40 L50,42 L51,42 L51,41 L52,41 L52,39 L53,39 L53,37 L54,37 L54,35 L55,35 L55,33 L56,33 L56,32 L57,32 L57,30 L58,30 L58,28 L59,28 L59,26 L60,26 L60,24 L61,24 L61,22 L62,22 L62,20 L63,20 L63,19 L64,19 L64,17 L65,17 L65,15 L66,15 L66,13 L67,13 L67,11 L68,11 L68,9 L69,9 L69,7 L70,7 L70,6 L71,6 L71,4 L72,4 L72,2 L73,2 L73,0 L101,0 L101,119 L71,119 L71,58 L70,58 L70,60 L69,60 L69,62 L68,62 L68,64 L67,64 L67,66 L66,66 L66,68 L65,68 L65,70 L64,70 L64,71 L63,71 L63,73 L62,73 L62,75 L61,75 L61,77 L60,77 L60,79 L59,79 L59,81 L58,81 L58,83 L57,83 L57,85 L56,85 L56,87 L55,87 L55,89 L47,89 L47,88 L46,88 L46,86 L45,86 L45,84 L44,84 L44,82 L43,82 L43,80 L42,80 L42,78 L41,78 L41,77 L40,77 L40,75 L39,75 L39,73 L38,73 L38,71 L37,71 L37,69 L36,69 L36,67 L35,67 L35,65 L34,65 L34,63 L33,63 L33,61 L32,61 L32,59 L31,59 L31,58 L30,58 L30,119 L0,119 Z " fill="#F5F6F7" transform="translate(224,34)"/>
<path d="M0,0 L2,0 L2,1 L8,1 L8,2 L10,2 L10,3 L12,3 L12,4 L16,4 L16,5 L17,5 L17,11 L18,11 L18,12 L20,12 L20,13 L21,13 L21,14 L22,14 L22,15 L23,15 L23,16 L27,16 L27,17 L28,17 L28,18 L29,18 L29,20 L30,20 L30,22 L31,22 L31,28 L32,28 L32,29 L33,29 L33,30 L35,30 L35,32 L36,32 L36,34 L37,34 L37,36 L38,36 L38,43 L37,43 L37,45 L36,45 L36,48 L35,48 L35,51 L36,51 L36,52 L44,52 L44,53 L45,53 L45,54 L46,54 L46,56 L47,56 L47,58 L48,58 L48,68 L49,68 L49,69 L50,69 L50,70 L51,70 L51,72 L52,72 L52,66 L53,66 L53,65 L54,65 L54,64 L55,64 L55,63 L54,63 L54,62 L53,62 L53,60 L52,60 L52,56 L53,56 L53,54 L54,54 L54,53 L55,53 L55,52 L64,52 L64,53 L66,53 L66,54 L67,54 L67,56 L68,56 L68,60 L67,60 L67,62 L66,62 L66,63 L65,63 L65,64 L66,64 L66,65 L67,65 L67,66 L68,66 L68,73 L67,73 L67,75 L66,75 L66,76 L64,76 L64,77 L60,77 L60,79 L61,79 L61,80 L62,80 L62,81 L63,81 L63,82 L64,82 L64,83 L65,83 L65,84 L66,84 L66,85 L67,85 L67,86 L68,86 L68,87 L69,87 L69,88 L71,88 L71,89 L72,89 L72,91 L73,91 L73,92 L74,92 L74,93 L75,93 L75,95 L74,95 L74,97 L75,97 L75,98 L76,98 L76,99 L78,99 L78,100 L79,100 L79,101 L82,101 L82,102 L85,102 L85,103 L88,103 L88,104 L90,104 L90,105 L92,105 L92,106 L94,106 L94,105 L95,105 L95,104 L98,104 L98,105 L101,105 L101,106 L102,106 L102,107 L104,107 L104,108 L106,108 L106,109 L108,109 L108,110 L112,110 L112,112 L113,112 L113,114 L114,114 L114,115 L115,115 L115,116 L116,116 L116,117 L117,117 L117,118 L119,118 L119,119 L120,119 L120,121 L118,121 L118,122 L116,122 L116,123 L113,123 L113,124 L110,124 L110,125 L106,125 L106,126 L102,126 L102,127 L95,127 L95,128 L71,128 L71,127 L65,127 L65,126 L61,126 L61,125 L57,125 L57,124 L54,124 L54,123 L51,123 L51,122 L48,122 L48,121 L46,121 L46,120 L44,120 L44,119 L42,119 L42,118 L40,118 L40,117 L38,117 L38,116 L37,116 L37,115 L35,115 L35,114 L33,114 L33,113 L32,113 L32,112 L30,112 L30,111 L29,111 L29,110 L28,110 L28,109 L26,109 L26,108 L25,108 L25,107 L24,107 L24,106 L23,106 L23,105 L22,105 L22,104 L21,104 L21,103 L20,103 L20,102 L19,102 L19,101 L18,101 L18,100 L17,100 L17,99 L16,99 L16,98 L15,98 L15,97 L14,97 L14,96 L13,96 L13,95 L12,95 L12,93 L11,93 L11,92 L10,92 L10,91 L9,91 L9,89 L8,89 L8,88 L7,88 L7,86 L6,86 L6,85 L5,85 L5,83 L4,83 L4,81 L3,81 L3,79 L2,79 L2,77 L1,77 L1,75 L0,75 L0,73 L-1,73 L-1,70 L-2,70 L-2,67 L-3,67 L-3,64 L-4,64 L-4,61 L-5,61 L-5,56 L-6,56 L-6,51 L-7,51 L-7,24 L-6,24 L-6,19 L-5,19 L-5,14 L-4,14 L-4,11 L-3,11 L-3,8 L-2,8 L-2,5 L-1,5 L-1,2 L0,2 Z " fill="#264A62" transform="translate(27,65)"/>
<path d="M0,0 L40,0 L40,1 L49,1 L49,2 L53,2 L53,3 L56,3 L56,4 L58,4 L58,5 L60,5 L60,6 L62,6 L62,7 L64,7 L64,8 L65,8 L65,9 L66,9 L66,10 L67,10 L67,11 L68,11 L68,12 L69,12 L69,13 L70,13 L70,14 L71,14 L71,16 L72,16 L72,18 L73,18 L73,20 L74,20 L74,22 L75,22 L75,26 L76,26 L76,33 L77,33 L77,41 L76,41 L76,48 L75,48 L75,51 L74,51 L74,54 L73,54 L73,56 L72,56 L72,57 L71,57 L71,59 L70,59 L70,60 L69,60 L69,61 L68,61 L68,62 L67,62 L67,63 L66,63 L66,64 L65,64 L65,65 L63,65 L63,66 L62,66 L62,67 L60,67 L60,68 L57,68 L57,69 L54,69 L54,70 L50,70 L50,71 L42,71 L42,72 L31,72 L31,119 L0,119 Z M31,26 L31,47 L40,47 L40,46 L43,46 L43,45 L44,45 L44,44 L45,44 L45,42 L46,42 L46,32 L45,32 L45,30 L44,30 L44,29 L43,29 L43,28 L42,28 L42,27 L39,27 L39,26 Z " fill="#F8F9FA" transform="translate(459,34)"/>
<path d="M0,0 L58,0 L58,22 L26,22 L26,37 L55,37 L55,59 L26,59 L26,76 L58,76 L58,98 L0,98 Z " fill="#F2F3F5" transform="translate(330,55)"/>
<path d="M0,0 L28,0 L28,1 L29,1 L29,3 L30,3 L30,5 L31,5 L31,7 L32,7 L32,9 L33,9 L33,11 L34,11 L34,13 L35,13 L35,15 L36,15 L36,17 L37,17 L37,19 L38,19 L38,21 L39,21 L39,24 L40,24 L40,21 L41,21 L41,19 L42,19 L42,17 L43,17 L43,14 L44,14 L44,12 L45,12 L45,9 L46,9 L46,7 L47,7 L47,4 L48,4 L48,2 L49,2 L49,0 L77,0 L77,2 L76,2 L76,4 L75,4 L75,6 L74,6 L74,9 L73,9 L73,11 L72,11 L72,13 L71,13 L71,15 L70,15 L70,17 L69,17 L69,20 L68,20 L68,22 L67,22 L67,24 L66,24 L66,26 L65,26 L65,28 L64,28 L64,30 L63,30 L63,33 L62,33 L62,35 L61,35 L61,37 L60,37 L60,39 L59,39 L59,41 L58,41 L58,44 L57,44 L57,46 L56,46 L56,48 L55,48 L55,50 L54,50 L54,52 L53,52 L53,98 L27,98 L27,53 L26,53 L26,51 L25,51 L25,49 L24,49 L24,47 L23,47 L23,45 L22,45 L22,43 L21,43 L21,41 L20,41 L20,39 L19,39 L19,37 L18,37 L18,36 L17,36 L17,34 L16,34 L16,32 L15,32 L15,30 L14,30 L14,28 L13,28 L13,26 L12,26 L12,24 L11,24 L11,22 L10,22 L10,20 L9,20 L9,18 L8,18 L8,16 L7,16 L7,14 L6,14 L6,12 L5,12 L5,10 L4,10 L4,8 L3,8 L3,7 L2,7 L2,5 L1,5 L1,3 L0,3 Z " fill="#F7F8F9" transform="translate(536,55)"/>
<path d="M0,0 L2,0 L2,3 L1,3 L1,5 L0,5 L0,8 L-1,8 L-1,9 L1,9 L1,10 L4,10 L4,11 L5,11 L5,12 L4,12 L4,13 L5,13 L5,14 L6,14 L6,22 L5,22 L5,29 L4,29 L4,34 L3,34 L3,38 L2,38 L2,41 L1,41 L1,44 L0,44 L0,47 L-1,47 L-1,49 L-2,49 L-2,51 L-3,51 L-3,53 L-4,53 L-4,55 L-5,55 L-5,57 L-6,57 L-6,59 L-7,59 L-7,60 L-8,60 L-8,62 L-9,62 L-9,64 L-10,64 L-10,65 L-11,65 L-11,66 L-12,66 L-12,68 L-13,68 L-13,69 L-14,69 L-14,70 L-15,70 L-15,71 L-16,71 L-16,73 L-17,73 L-17,74 L-18,74 L-18,75 L-19,75 L-19,76 L-20,76 L-20,77 L-21,77 L-21,78 L-22,78 L-22,79 L-23,79 L-23,80 L-24,80 L-24,81 L-25,81 L-25,82 L-27,82 L-27,83 L-28,83 L-28,84 L-29,84 L-29,85 L-30,85 L-30,86 L-32,86 L-32,87 L-33,87 L-33,88 L-35,88 L-35,89 L-36,89 L-36,90 L-38,90 L-38,91 L-40,91 L-40,92 L-41,92 L-41,93 L-44,93 L-44,92 L-48,92 L-48,91 L-49,91 L-49,86 L-48,86 L-48,83 L-50,83 L-50,82 L-53,82 L-53,81 L-56,81 L-56,80 L-57,80 L-57,79 L-58,79 L-58,78 L-59,78 L-59,76 L-58,76 L-58,74 L-57,74 L-57,72 L-56,72 L-56,69 L-63,69 L-63,70 L-64,70 L-64,74 L-65,74 L-65,75 L-66,75 L-66,76 L-72,76 L-72,75 L-75,75 L-75,74 L-76,74 L-76,73 L-77,73 L-77,71 L-78,71 L-78,61 L-77,61 L-77,55 L-76,55 L-76,54 L-74,54 L-74,53 L-72,53 L-72,52 L-70,52 L-70,50 L-71,50 L-71,48 L-72,48 L-72,45 L-73,45 L-73,43 L-74,43 L-74,40 L-75,40 L-75,37 L-61,37 L-61,39 L-62,39 L-62,41 L-63,41 L-63,44 L-64,44 L-64,46 L-65,46 L-65,49 L-66,49 L-66,52 L-65,52 L-65,53 L-61,53 L-61,52 L-60,52 L-60,51 L-55,51 L-55,52 L-54,52 L-54,53 L-48,53 L-48,54 L-46,54 L-46,58 L-45,58 L-45,60 L-44,60 L-44,61 L-42,61 L-42,54 L-43,54 L-43,53 L-44,53 L-44,47 L-43,47 L-43,46 L-42,46 L-42,45 L-41,45 L-41,44 L-40,44 L-40,43 L-38,43 L-38,42 L-37,42 L-37,41 L-35,41 L-35,40 L-33,40 L-33,39 L-32,39 L-32,38 L-33,38 L-33,35 L-32,35 L-32,33 L-31,33 L-31,31 L-30,31 L-30,29 L-29,29 L-29,28 L-28,28 L-28,27 L-26,27 L-26,26 L-23,26 L-23,25 L-22,25 L-22,24 L-23,24 L-23,22 L-22,22 L-22,21 L-21,21 L-21,20 L-20,20 L-20,19 L-19,19 L-19,18 L-17,18 L-17,17 L-15,17 L-15,16 L-13,16 L-13,15 L-12,15 L-12,17 L-13,17 L-13,18 L-14,18 L-14,20 L-12,20 L-12,19 L-10,19 L-10,18 L-9,18 L-9,17 L-6,17 L-6,16 L-4,16 L-4,15 L-2,15 L-2,11 L-4,11 L-4,12 L-5,12 L-5,13 L-6,13 L-6,14 L-7,14 L-7,13 L-10,13 L-10,12 L-12,12 L-12,9 L-10,9 L-10,6 L-16,6 L-16,4 L-15,4 L-15,3 L-6,3 L-6,4 L-4,4 L-4,3 L-3,3 L-3,2 L-1,2 L-1,1 L0,1 Z " fill="#284C63" transform="translate(195,90)"/>
<path d="M0,0 L63,0 L63,22 L44,22 L44,98 L18,98 L18,22 L0,22 Z " fill="#F3F4F6" transform="translate(391,55)"/>
<path d="M0,0 L28,0 L28,1 L29,1 L29,3 L30,3 L30,5 L31,5 L31,7 L32,7 L32,9 L33,9 L33,10 L34,10 L34,12 L35,12 L35,14 L36,14 L36,16 L37,16 L37,18 L38,18 L38,20 L39,20 L39,22 L40,22 L40,23 L41,23 L41,25 L42,25 L42,27 L43,27 L43,29 L44,29 L44,31 L45,31 L45,33 L46,33 L46,35 L47,35 L47,37 L48,37 L48,38 L49,38 L49,40 L50,40 L50,42 L51,42 L51,41 L52,41 L52,39 L53,39 L53,37 L54,37 L54,35 L55,35 L55,33 L56,33 L56,32 L57,32 L57,30 L58,30 L58,28 L59,28 L59,26 L60,26 L60,24 L61,24 L61,22 L62,22 L62,20 L63,20 L63,19 L64,19 L64,17 L65,17 L65,15 L66,15 L66,13 L67,13 L67,11 L68,11 L68,9 L69,9 L69,7 L70,7 L70,6 L71,6 L71,4 L72,4 L72,2 L73,2 L73,0 L101,0 L101,119 L71,119 L71,58 L70,58 L70,60 L69,60 L69,62 L68,62 L68,64 L67,64 L67,66 L66,66 L66,68 L65,68 L65,70 L64,70 L64,71 L63,71 L63,73 L62,73 L62,75 L61,75 L61,77 L60,77 L60,79 L59,79 L59,81 L58,81 L58,83 L57,83 L57,85 L56,85 L56,87 L55,87 L55,89 L47,89 L47,88 L46,88 L46,86 L45,86 L45,84 L44,84 L44,82 L43,82 L43,80 L42,80 L42,78 L41,78 L41,77 L40,77 L40,75 L39,75 L39,73 L38,73 L38,71 L37,71 L37,69 L36,69 L36,67 L35,67 L35,65 L34,65 L34,63 L33,63 L33,61 L32,61 L32,59 L31,59 L31,58 L30,58 L30,119 L0,119 Z M5,5 L5,114 L26,114 L26,39 L27,39 L27,41 L28,41 L28,42 L29,42 L29,44 L30,44 L30,46 L31,46 L31,48 L32,48 L32,50 L33,50 L33,52 L34,52 L34,54 L35,54 L35,56 L36,56 L36,58 L37,58 L37,60 L38,60 L38,61 L39,61 L39,63 L40,63 L40,65 L41,65 L41,67 L42,67 L42,69 L43,69 L43,71 L44,71 L44,73 L45,73 L45,75 L46,75 L46,77 L47,77 L47,79 L48,79 L48,80 L49,80 L49,82 L50,82 L50,83 L52,83 L52,81 L53,81 L53,79 L54,79 L54,77 L55,77 L55,75 L56,75 L56,74 L57,74 L57,72 L58,72 L58,70 L59,70 L59,68 L60,68 L60,66 L61,66 L61,64 L62,64 L62,62 L63,62 L63,60 L64,60 L64,58 L65,58 L65,56 L66,56 L66,54 L67,54 L67,52 L68,52 L68,51 L69,51 L69,49 L70,49 L70,47 L71,47 L71,45 L72,45 L72,43 L73,43 L73,41 L74,41 L74,39 L75,39 L75,38 L76,38 L76,114 L96,114 L96,5 L76,5 L76,7 L75,7 L75,9 L74,9 L74,11 L73,11 L73,13 L72,13 L72,15 L71,15 L71,16 L70,16 L70,18 L69,18 L69,20 L68,20 L68,22 L67,22 L67,24 L66,24 L66,26 L65,26 L65,28 L64,28 L64,29 L63,29 L63,31 L62,31 L62,33 L61,33 L61,35 L60,35 L60,37 L59,37 L59,39 L58,39 L58,41 L57,41 L57,43 L56,43 L56,44 L55,44 L55,46 L54,46 L54,48 L53,48 L53,50 L52,50 L52,52 L51,52 L51,53 L50,53 L50,51 L49,51 L49,49 L48,49 L48,47 L47,47 L47,46 L46,46 L46,44 L45,44 L45,42 L44,42 L44,40 L43,40 L43,38 L42,38 L42,36 L41,36 L41,34 L40,34 L40,33 L39,33 L39,31 L38,31 L38,29 L37,29 L37,27 L36,27 L36,25 L35,25 L35,23 L34,23 L34,21 L33,21 L33,19 L32,19 L32,18 L31,18 L31,16 L30,16 L30,14 L29,14 L29,12 L28,12 L28,10 L27,10 L27,8 L26,8 L26,6 L25,6 L25,5 Z " fill="#274C64" transform="translate(224,34)"/>
<path d="M0,0 L21,0 L21,1 L28,1 L28,2 L32,2 L32,3 L36,3 L36,4 L39,4 L39,5 L42,5 L42,6 L45,6 L45,7 L47,7 L47,8 L49,8 L49,9 L51,9 L51,10 L53,10 L53,11 L55,11 L55,12 L57,12 L57,13 L58,13 L58,14 L60,14 L60,15 L61,15 L61,16 L63,16 L63,17 L64,17 L64,18 L66,18 L66,19 L67,19 L67,20 L68,20 L68,21 L69,21 L69,22 L70,22 L70,23 L72,23 L72,24 L73,24 L73,25 L74,25 L74,26 L75,26 L75,27 L76,27 L76,28 L77,28 L77,29 L78,29 L78,31 L79,31 L79,32 L80,32 L80,33 L81,33 L81,34 L82,34 L82,35 L83,35 L83,37 L84,37 L84,38 L85,38 L85,40 L86,40 L86,41 L87,41 L87,43 L88,43 L88,44 L89,44 L89,46 L90,46 L90,48 L91,48 L91,50 L92,50 L92,52 L93,52 L93,54 L94,54 L94,57 L95,57 L95,59 L96,59 L96,62 L97,62 L97,65 L98,65 L98,69 L99,69 L99,72 L98,72 L98,71 L94,71 L94,72 L91,72 L91,71 L93,71 L93,70 L94,70 L94,68 L92,68 L92,67 L91,67 L91,66 L90,66 L90,65 L89,65 L89,63 L88,63 L88,62 L87,62 L87,61 L88,61 L88,60 L87,60 L87,58 L86,58 L86,56 L85,56 L85,54 L84,54 L84,53 L83,53 L83,52 L82,52 L82,51 L81,51 L81,53 L80,53 L80,55 L79,55 L79,56 L78,56 L78,57 L75,57 L75,56 L74,56 L74,55 L73,55 L73,51 L72,51 L72,49 L71,49 L71,48 L69,48 L69,47 L67,47 L67,45 L66,45 L66,44 L65,44 L65,43 L62,43 L62,44 L61,44 L61,43 L56,43 L56,49 L57,49 L57,51 L55,51 L55,32 L49,32 L49,33 L46,33 L46,34 L45,34 L45,33 L43,33 L43,31 L44,31 L44,30 L45,30 L45,28 L46,28 L46,27 L47,27 L47,24 L46,24 L46,21 L47,21 L47,19 L46,19 L46,18 L44,18 L44,17 L42,17 L42,16 L41,16 L41,19 L42,19 L42,20 L41,20 L41,21 L40,21 L40,23 L39,23 L39,24 L38,24 L38,25 L36,25 L36,24 L35,24 L35,19 L33,19 L33,21 L32,21 L32,22 L31,22 L31,21 L30,21 L30,17 L27,17 L27,16 L26,16 L26,14 L27,14 L27,13 L26,13 L26,12 L24,12 L24,10 L23,10 L23,8 L22,8 L22,9 L21,9 L21,10 L20,10 L20,11 L21,11 L21,14 L22,14 L22,15 L23,15 L23,16 L25,16 L25,21 L24,21 L24,22 L23,22 L23,23 L22,23 L22,25 L20,25 L20,24 L19,24 L19,21 L17,21 L17,22 L16,22 L16,24 L10,24 L10,23 L5,23 L5,22 L3,22 L3,21 L2,21 L2,22 L0,22 L0,25 L1,25 L1,27 L0,27 L0,28 L-2,28 L-2,27 L-3,27 L-3,26 L-4,26 L-4,25 L-5,25 L-5,24 L-7,24 L-7,25 L-15,25 L-15,23 L-14,23 L-14,21 L-20,21 L-20,20 L-24,20 L-24,19 L-28,19 L-28,20 L-30,20 L-30,18 L-32,18 L-32,19 L-33,19 L-33,20 L-34,20 L-34,19 L-35,19 L-35,18 L-36,18 L-36,19 L-37,19 L-37,20 L-41,20 L-41,21 L-43,21 L-43,23 L-44,23 L-44,24 L-45,24 L-45,25 L-46,25 L-46,24 L-47,24 L-47,23 L-49,23 L-49,25 L-52,25 L-52,24 L-51,24 L-51,23 L-50,23 L-50,22 L-49,22 L-49,21 L-48,21 L-48,20 L-46,20 L-46,19 L-45,19 L-45,18 L-44,18 L-44,17 L-42,17 L-42,16 L-41,16 L-41,15 L-39,15 L-39,14 L-38,14 L-38,13 L-36,13 L-36,12 L-34,12 L-34,11 L-33,11 L-33,10 L-31,10 L-31,9 L-29,9 L-29,8 L-26,8 L-26,7 L-24,7 L-24,6 L-22,6 L-22,5 L-19,5 L-19,4 L-15,4 L-15,3 L-12,3 L-12,2 L-7,2 L-7,1 L0,1 Z " fill="#305269" transform="translate(100,12)"/>
<path d="M0,0 L58,0 L58,22 L26,22 L26,37 L55,37 L55,59 L26,59 L26,76 L58,76 L58,98 L0,98 Z M5,5 L5,93 L53,93 L53,81 L21,81 L21,54 L50,54 L50,42 L21,42 L21,17 L53,17 L53,5 Z " fill="#254A62" transform="translate(330,55)"/>
<path d="M0,0 L40,0 L40,1 L49,1 L49,2 L53,2 L53,3 L56,3 L56,4 L58,4 L58,5 L60,5 L60,6 L62,6 L62,7 L64,7 L64,8 L65,8 L65,9 L66,9 L66,10 L67,10 L67,11 L68,11 L68,12 L69,12 L69,13 L70,13 L70,14 L71,14 L71,16 L72,16 L72,18 L73,18 L73,20 L74,20 L74,22 L75,22 L75,26 L76,26 L76,33 L77,33 L77,41 L76,41 L76,48 L75,48 L75,51 L74,51 L74,54 L73,54 L73,56 L72,56 L72,57 L71,57 L71,59 L70,59 L70,60 L69,60 L69,61 L68,61 L68,62 L67,62 L67,63 L66,63 L66,64 L65,64 L65,65 L63,65 L63,66 L62,66 L62,67 L60,67 L60,68 L57,68 L57,69 L54,69 L54,70 L50,70 L50,71 L42,71 L42,72 L31,72 L31,119 L0,119 Z M5,5 L5,114 L26,114 L26,67 L44,67 L44,66 L48,66 L48,65 L53,65 L53,64 L56,64 L56,63 L58,63 L58,62 L60,62 L60,61 L61,61 L61,60 L63,60 L63,59 L64,59 L64,58 L65,58 L65,57 L66,57 L66,55 L67,55 L67,54 L68,54 L68,52 L69,52 L69,50 L70,50 L70,46 L71,46 L71,26 L70,26 L70,23 L69,23 L69,21 L68,21 L68,19 L67,19 L67,18 L66,18 L66,16 L65,16 L65,15 L64,15 L64,14 L63,14 L63,13 L62,13 L62,12 L60,12 L60,11 L59,11 L59,10 L57,10 L57,9 L54,9 L54,8 L51,8 L51,7 L48,7 L48,6 L43,6 L43,5 Z " fill="#264B63" transform="translate(459,34)"/>
<path d="M0,0 L28,0 L28,1 L29,1 L29,3 L30,3 L30,5 L31,5 L31,7 L32,7 L32,9 L33,9 L33,11 L34,11 L34,13 L35,13 L35,15 L36,15 L36,17 L37,17 L37,19 L38,19 L38,21 L39,21 L39,24 L40,24 L40,21 L41,21 L41,19 L42,19 L42,17 L43,17 L43,14 L44,14 L44,12 L45,12 L45,9 L46,9 L46,7 L47,7 L47,4 L48,4 L48,2 L49,2 L49,0 L77,0 L77,2 L76,2 L76,4 L75,4 L75,6 L74,6 L74,9 L73,9 L73,11 L72,11 L72,13 L71,13 L71,15 L70,15 L70,17 L69,17 L69,20 L68,20 L68,22 L67,22 L67,24 L66,24 L66,26 L65,26 L65,28 L64,28 L64,30 L63,30 L63,33 L62,33 L62,35 L61,35 L61,37 L60,37 L60,39 L59,39 L59,41 L58,41 L58,44 L57,44 L57,46 L56,46 L56,48 L55,48 L55,50 L54,50 L54,52 L53,52 L53,98 L27,98 L27,53 L26,53 L26,51 L25,51 L25,49 L24,49 L24,47 L23,47 L23,45 L22,45 L22,43 L21,43 L21,41 L20,41 L20,39 L19,39 L19,37 L18,37 L18,36 L17,36 L17,34 L16,34 L16,32 L15,32 L15,30 L14,30 L14,28 L13,28 L13,26 L12,26 L12,24 L11,24 L11,22 L10,22 L10,20 L9,20 L9,18 L8,18 L8,16 L7,16 L7,14 L6,14 L6,12 L5,12 L5,10 L4,10 L4,8 L3,8 L3,7 L2,7 L2,5 L1,5 L1,3 L0,3 Z M8,5 L8,7 L9,7 L9,9 L10,9 L10,11 L11,11 L11,13 L12,13 L12,14 L13,14 L13,16 L14,16 L14,18 L15,18 L15,20 L16,20 L16,22 L17,22 L17,24 L18,24 L18,26 L19,26 L19,28 L20,28 L20,30 L21,30 L21,32 L22,32 L22,34 L23,34 L23,36 L24,36 L24,38 L25,38 L25,40 L26,40 L26,41 L27,41 L27,43 L28,43 L28,45 L29,45 L29,47 L30,47 L30,49 L31,49 L31,51 L32,51 L32,93 L48,93 L48,51 L49,51 L49,48 L50,48 L50,46 L51,46 L51,44 L52,44 L52,42 L53,42 L53,40 L54,40 L54,38 L55,38 L55,35 L56,35 L56,33 L57,33 L57,31 L58,31 L58,29 L59,29 L59,27 L60,27 L60,24 L61,24 L61,22 L62,22 L62,20 L63,20 L63,18 L64,18 L64,16 L65,16 L65,13 L66,13 L66,11 L67,11 L67,9 L68,9 L68,7 L69,7 L69,5 L53,5 L53,6 L52,6 L52,8 L51,8 L51,11 L50,11 L50,13 L49,13 L49,15 L48,15 L48,18 L47,18 L47,20 L46,20 L46,23 L45,23 L45,25 L44,25 L44,28 L43,28 L43,30 L42,30 L42,32 L41,32 L41,35 L39,35 L39,33 L38,33 L38,31 L37,31 L37,29 L36,29 L36,27 L35,27 L35,25 L34,25 L34,23 L33,23 L33,21 L32,21 L32,19 L31,19 L31,17 L30,17 L30,15 L29,15 L29,13 L28,13 L28,11 L27,11 L27,8 L26,8 L26,6 L25,6 L25,5 Z " fill="#284D64" transform="translate(536,55)"/>
<path d="M0,0 L63,0 L63,22 L44,22 L44,98 L18,98 L18,22 L0,22 Z M4,5 L4,17 L23,17 L23,93 L39,93 L39,17 L58,17 L58,5 Z " fill="#264B63" transform="translate(391,55)"/>
<path d="M0,0 L21,0 L21,1 L22,1 L22,9 L21,9 L21,10 L20,10 L20,11 L21,11 L21,14 L22,14 L22,15 L23,15 L23,16 L25,16 L25,21 L24,21 L24,22 L23,22 L23,23 L22,23 L22,25 L20,25 L20,24 L19,24 L19,21 L17,21 L17,22 L16,22 L16,24 L10,24 L10,23 L5,23 L5,22 L3,22 L3,21 L2,21 L2,22 L0,22 L0,25 L1,25 L1,27 L0,27 L0,28 L-2,28 L-2,27 L-3,27 L-3,26 L-4,26 L-4,25 L-5,25 L-5,24 L-7,24 L-7,25 L-15,25 L-15,23 L-14,23 L-14,21 L-20,21 L-20,20 L-24,20 L-24,19 L-28,19 L-28,20 L-30,20 L-30,18 L-32,18 L-32,19 L-33,19 L-33,20 L-34,20 L-34,19 L-35,19 L-35,18 L-36,18 L-36,19 L-37,19 L-37,20 L-41,20 L-41,21 L-43,21 L-43,23 L-44,23 L-44,24 L-45,24 L-45,25 L-46,25 L-46,24 L-47,24 L-47,23 L-49,23 L-49,25 L-52,25 L-52,24 L-51,24 L-51,23 L-50,23 L-50,22 L-49,22 L-49,21 L-48,21 L-48,20 L-46,20 L-46,19 L-45,19 L-45,18 L-44,18 L-44,17 L-42,17 L-42,16 L-41,16 L-41,15 L-39,15 L-39,14 L-38,14 L-38,13 L-36,13 L-36,12 L-34,12 L-34,11 L-33,11 L-33,10 L-31,10 L-31,9 L-29,9 L-29,8 L-26,8 L-26,7 L-24,7 L-24,6 L-22,6 L-22,5 L-19,5 L-19,4 L-15,4 L-15,3 L-12,3 L-12,2 L-7,2 L-7,1 L0,1 Z " fill="#274C63" transform="translate(100,12)"/>
<path d="M0,0 L2,0 L2,1 L3,1 L3,2 L5,2 L5,3 L6,3 L6,4 L7,4 L7,5 L8,5 L8,6 L9,6 L9,8 L10,8 L10,9 L11,9 L11,11 L12,11 L12,12 L13,12 L13,14 L14,14 L14,15 L15,15 L15,17 L16,17 L16,19 L17,19 L17,21 L18,21 L18,23 L19,23 L19,25 L20,25 L20,28 L21,28 L21,30 L22,30 L22,33 L23,33 L23,36 L24,36 L24,40 L25,40 L25,43 L24,43 L24,42 L20,42 L20,43 L17,43 L17,42 L19,42 L19,41 L20,41 L20,39 L18,39 L18,38 L17,38 L17,37 L16,37 L16,36 L15,36 L15,34 L14,34 L14,33 L13,33 L13,32 L14,32 L14,31 L13,31 L13,29 L12,29 L12,27 L11,27 L11,25 L10,25 L10,24 L9,24 L9,23 L8,23 L8,22 L7,22 L7,24 L6,24 L6,26 L5,26 L5,27 L4,27 L4,28 L1,28 L1,27 L0,27 L0,26 L-1,26 L-1,22 L-2,22 L-2,20 L-3,20 L-3,19 L-5,19 L-5,18 L-7,18 L-7,16 L-8,16 L-8,15 L-9,15 L-9,14 L-12,14 L-12,15 L-13,15 L-13,14 L-18,14 L-18,20 L-17,20 L-17,22 L-19,22 L-19,11 L-17,11 L-17,9 L-18,9 L-18,8 L-17,8 L-17,7 L-16,7 L-16,6 L-11,6 L-11,7 L-10,7 L-10,8 L-9,8 L-9,9 L-8,9 L-8,10 L-7,10 L-7,11 L-6,11 L-6,12 L-5,12 L-5,13 L-2,13 L-2,14 L2,14 L2,13 L1,13 L1,12 L0,12 L0,11 L-1,11 L-1,10 L1,10 L1,11 L2,11 L2,12 L4,12 L4,13 L5,13 L5,14 L6,14 L6,12 L7,12 L7,10 L6,10 L6,9 L5,9 L5,8 L4,8 L4,7 L3,7 L3,6 L2,6 L2,5 L1,5 L1,3 L0,3 Z " fill="#2D4E65" transform="translate(174,41)"/>
<path d="M0,0 L5,0 L5,1 L8,1 L8,2 L10,2 L10,3 L11,3 L11,4 L12,4 L12,5 L13,5 L13,7 L14,7 L14,9 L15,9 L15,17 L18,17 L18,18 L21,18 L21,19 L24,19 L24,20 L20,20 L20,19 L17,19 L17,18 L14,18 L14,20 L13,20 L13,22 L12,22 L12,23 L11,23 L11,24 L9,24 L9,25 L8,25 L8,26 L-2,26 L-2,25 L-4,25 L-4,24 L-5,24 L-5,23 L-6,23 L-6,22 L-7,22 L-7,21 L-8,21 L-8,19 L-9,19 L-9,17 L-10,17 L-10,10 L-9,10 L-9,8 L-8,8 L-8,6 L-7,6 L-7,5 L-6,5 L-6,4 L-5,4 L-5,3 L-4,3 L-4,2 L-2,2 L-2,1 L0,1 Z " fill="#38393B" transform="translate(106,78)"/>
<path d="M0,0 L3,0 L3,1 L6,1 L6,2 L9,2 L9,3 L12,3 L12,4 L14,4 L14,5 L16,5 L16,6 L18,6 L18,7 L20,7 L20,8 L22,8 L22,9 L24,9 L24,10 L25,10 L25,11 L27,11 L27,12 L28,12 L28,13 L30,13 L30,14 L31,14 L31,15 L33,15 L33,16 L34,16 L34,17 L35,17 L35,18 L36,18 L36,19 L37,19 L37,20 L39,20 L39,21 L40,21 L40,22 L41,22 L41,23 L42,23 L42,24 L43,24 L43,25 L44,25 L44,26 L45,26 L45,28 L44,28 L44,27 L43,27 L43,26 L41,26 L41,29 L42,29 L42,31 L43,31 L43,32 L44,32 L44,33 L45,33 L45,34 L46,34 L46,35 L47,35 L47,36 L48,36 L48,38 L47,38 L47,40 L46,40 L46,39 L45,39 L45,38 L43,38 L43,37 L42,37 L42,36 L40,36 L40,37 L41,37 L41,38 L42,38 L42,39 L43,39 L43,40 L39,40 L39,39 L36,39 L36,38 L35,38 L35,37 L34,37 L34,36 L33,36 L33,35 L32,35 L32,34 L31,34 L31,33 L30,33 L30,32 L25,32 L25,33 L23,33 L23,30 L24,30 L24,29 L30,29 L30,28 L29,28 L29,26 L33,26 L33,27 L34,27 L34,28 L37,28 L37,27 L38,27 L38,26 L37,26 L37,25 L32,25 L32,24 L31,24 L31,22 L30,22 L30,20 L29,20 L29,19 L28,19 L28,18 L27,18 L27,17 L26,17 L26,16 L25,16 L25,15 L24,15 L24,14 L23,14 L23,13 L22,13 L22,12 L21,12 L21,11 L19,11 L19,12 L18,12 L18,13 L17,13 L17,12 L16,12 L16,11 L12,11 L12,12 L6,12 L6,11 L3,11 L3,10 L1,10 L1,9 L4,9 L4,8 L2,8 L2,7 L-1,7 L-1,1 L0,1 Z " fill="#BFC8D2" transform="translate(133,15)"/>
<path d="M0,0 L4,0 L4,1 L6,1 L6,2 L7,2 L7,3 L8,3 L8,4 L9,4 L9,7 L10,7 L10,14 L11,14 L11,13 L12,13 L12,12 L15,12 L15,10 L16,10 L16,8 L17,8 L17,7 L18,7 L18,5 L19,5 L19,4 L22,4 L22,15 L16,15 L16,14 L13,14 L13,18 L22,18 L22,23 L16,23 L16,26 L14,26 L14,28 L13,28 L13,30 L10,30 L10,28 L9,28 L9,25 L8,25 L8,20 L7,20 L7,21 L6,21 L6,22 L5,22 L5,23 L3,23 L3,24 L-2,24 L-2,23 L-4,23 L-4,19 L-2,19 L-2,20 L4,20 L4,19 L5,19 L5,17 L6,17 L6,15 L4,15 L4,16 L-1,16 L-1,15 L-2,15 L-2,14 L-3,14 L-3,13 L-4,13 L-4,12 L-5,12 L-5,4 L-4,4 L-4,3 L-3,3 L-3,2 L-2,2 L-2,1 L0,1 Z " fill="#F3EB3C" transform="translate(114,43)"/>
<path d="M0,0 L2,0 L2,1 L3,1 L3,2 L6,2 L6,1 L5,1 L5,0 L7,0 L7,15 L3,15 L3,18 L12,18 L12,19 L13,19 L13,20 L14,20 L14,21 L15,21 L15,22 L16,22 L16,25 L15,25 L15,27 L14,27 L14,28 L13,28 L13,29 L12,29 L12,30 L11,30 L11,31 L10,31 L10,35 L11,35 L11,41 L8,41 L8,40 L7,40 L7,39 L6,39 L6,38 L5,38 L5,37 L4,37 L4,32 L5,32 L5,31 L4,31 L4,30 L3,30 L3,29 L1,29 L1,28 L0,28 L0,27 L-1,27 L-1,26 L-2,26 L-2,24 L-3,24 L-3,23 L-4,23 L-4,21 L-5,21 L-5,20 L-6,20 L-6,19 L-7,19 L-7,18 L-5,18 L-5,13 L-2,13 L-2,10 L-5,10 L-5,2 L-3,2 L-3,3 L-1,3 L-1,1 L0,1 Z " fill="#2D4F65" transform="translate(144,48)"/>
<path d="M0,0 L15,0 L15,1 L17,1 L17,2 L19,2 L19,3 L20,3 L20,4 L21,4 L21,5 L22,5 L22,6 L23,6 L23,7 L24,7 L24,9 L25,9 L25,21 L24,21 L24,24 L23,24 L23,26 L22,26 L22,27 L21,27 L21,28 L20,28 L20,29 L18,29 L18,30 L16,30 L16,31 L0,31 Z M5,5 L5,26 L14,26 L14,25 L17,25 L17,24 L18,24 L18,23 L19,23 L19,21 L20,21 L20,11 L19,11 L19,9 L18,9 L18,8 L17,8 L17,7 L16,7 L16,6 L13,6 L13,5 Z " fill="#264B63" transform="translate(485,55)"/>
<path d="M0,0 L4,0 L4,1 L6,1 L6,2 L8,2 L8,4 L9,4 L9,6 L10,6 L10,9 L11,9 L11,17 L10,17 L10,21 L9,21 L9,23 L8,23 L8,24 L7,24 L7,25 L6,25 L6,26 L-1,26 L-1,25 L-3,25 L-3,24 L-4,24 L-4,22 L-5,22 L-5,20 L-6,20 L-6,7 L-5,7 L-5,5 L-4,5 L-4,3 L-3,3 L-3,2 L-2,2 L-2,1 L0,1 Z " fill="#EA3230" transform="translate(81,43)"/>
<path d="M0,0 L9,0 L9,1 L11,1 L11,2 L12,2 L12,4 L13,4 L13,8 L12,8 L12,10 L11,10 L11,11 L10,11 L10,12 L11,12 L11,13 L12,13 L12,14 L13,14 L13,21 L12,21 L12,23 L11,23 L11,24 L9,24 L9,25 L1,25 L1,24 L-1,24 L-1,23 L-2,23 L-2,21 L-3,21 L-3,14 L-2,14 L-2,13 L-1,13 L-1,12 L0,12 L0,11 L-1,11 L-1,10 L-2,10 L-2,8 L-3,8 L-3,4 L-2,4 L-2,2 L-1,2 L-1,1 L0,1 Z " fill="#1CA352" transform="translate(82,117)"/>
<path d="M0,0 L8,0 L8,1 L9,1 L9,2 L10,2 L10,4 L11,4 L11,6 L12,6 L12,18 L11,18 L11,21 L10,21 L10,23 L9,23 L9,24 L7,24 L7,25 L1,25 L1,24 L-1,24 L-1,23 L-2,23 L-2,22 L-3,22 L-3,20 L-4,20 L-4,5 L-3,5 L-3,3 L-2,3 L-2,2 L-1,2 L-1,1 L0,1 Z " fill="#129F4E" transform="translate(63,117)"/>
<path d="M0,0 L5,0 L5,1 L7,1 L7,2 L8,2 L8,3 L9,3 L9,4 L10,4 L10,11 L9,11 L9,13 L8,13 L8,14 L7,14 L7,15 L6,15 L6,16 L5,16 L5,18 L4,18 L4,19 L3,19 L3,20 L2,20 L2,21 L1,21 L1,22 L11,22 L11,26 L-5,26 L-5,22 L-4,22 L-4,21 L-3,21 L-3,20 L-2,20 L-2,19 L-1,19 L-1,18 L0,18 L0,16 L1,16 L1,15 L2,15 L2,14 L3,14 L3,13 L4,13 L4,12 L5,12 L5,11 L6,11 L6,6 L5,6 L5,5 L4,5 L4,4 L-1,4 L-1,5 L-3,5 L-3,6 L-5,6 L-5,2 L-4,2 L-4,1 L0,1 Z " fill="#E93E37" transform="translate(60,43)"/>
<path d="M0,0 L3,0 L3,11 L-3,11 L-3,10 L-6,10 L-6,14 L3,14 L3,19 L-3,19 L-3,22 L-5,22 L-5,24 L-6,24 L-6,26 L-9,26 L-9,24 L-10,24 L-10,21 L-11,21 L-11,15 L-10,15 L-10,12 L-9,12 L-9,10 L-8,10 L-8,9 L-7,9 L-7,8 L-4,8 L-4,6 L-3,6 L-3,4 L-2,4 L-2,3 L-1,3 L-1,1 L0,1 Z " fill="#2F5168" transform="translate(133,47)"/>
<path d="M0,0 L4,0 L4,1 L7,1 L7,2 L10,2 L10,3 L13,3 L13,4 L15,4 L15,6 L14,6 L14,8 L13,8 L13,10 L12,10 L12,12 L11,12 L11,13 L10,13 L10,15 L9,15 L9,17 L8,17 L8,19 L7,19 L7,20 L6,20 L6,22 L5,22 L5,24 L4,24 L4,26 L3,26 L3,27 L2,27 L2,6 L3,6 L3,1 L0,1 Z " fill="#131515" transform="translate(152,105)"/>
<path d="M0,0 L2,0 L2,23 L-1,23 L-1,22 L-2,22 L-2,21 L-4,21 L-4,20 L-5,20 L-5,19 L-6,19 L-6,17 L-7,17 L-7,15 L-8,15 L-8,8 L-7,8 L-7,5 L-6,5 L-6,4 L-5,4 L-5,3 L-4,3 L-4,2 L-3,2 L-3,1 L0,1 Z " fill="#C7D0D9" transform="translate(106,80)"/>
<path d="M0,0 L16,0 L16,2 L15,2 L15,3 L14,3 L14,5 L13,5 L13,6 L12,6 L12,8 L11,8 L11,9 L10,9 L10,11 L9,11 L9,12 L8,12 L8,14 L9,14 L9,15 L10,15 L10,16 L11,16 L11,17 L12,17 L12,19 L16,19 L16,24 L11,24 L11,20 L10,20 L10,19 L9,19 L9,18 L8,18 L8,17 L7,17 L7,16 L6,16 L6,15 L5,15 L5,12 L6,12 L6,11 L7,11 L7,9 L8,9 L8,8 L9,8 L9,6 L10,6 L10,5 L11,5 L11,3 L4,3 L4,24 L2,24 L2,3 L0,3 Z " fill="#151718" transform="translate(68,83)"/>
<path d="M0,0 L4,0 L4,1 L5,1 L5,2 L6,2 L6,5 L7,5 L7,14 L6,14 L6,16 L5,16 L5,18 L4,18 L4,19 L1,19 L1,18 L0,18 L0,17 L-1,17 L-1,15 L-2,15 L-2,3 L-1,3 L-1,1 L0,1 Z " fill="#CACCD3" transform="translate(81,47)"/>
<path d="M0,0 L14,0 L14,2 L13,2 L13,4 L12,4 L12,7 L11,7 L11,9 L10,9 L10,12 L9,12 L9,14 L8,14 L8,16 L7,16 L7,17 L6,17 L6,15 L5,15 L5,13 L4,13 L4,11 L3,11 L3,8 L2,8 L2,6 L1,6 L1,3 L0,3 Z " fill="#111213" transform="translate(120,127)"/>
<path d="M0,0 L6,0 L6,19 L10,19 L10,22 L-2,22 L-2,19 L2,19 L2,4 L0,4 L0,5 L1,5 L1,6 L-2,6 L-2,5 L-3,5 L-3,1 L0,1 Z " fill="#E1D93D" transform="translate(149,44)"/>
<path d="M0,0 L5,0 L5,1 L8,1 L8,2 L10,2 L10,3 L11,3 L11,4 L12,4 L12,5 L13,5 L13,7 L14,7 L14,9 L15,9 L15,16 L14,16 L14,13 L3,13 L3,2 L-1,2 L-1,1 L0,1 Z " fill="#0D0F10" transform="translate(106,78)"/>
<path d="M0,0 L4,0 L4,1 L6,1 L6,2 L7,2 L7,3 L8,3 L8,4 L9,4 L9,6 L8,6 L8,8 L7,8 L7,10 L6,10 L6,6 L5,6 L5,4 L0,4 L0,5 L-1,5 L-1,12 L1,12 L1,13 L4,13 L4,12 L5,12 L5,11 L6,11 L6,12 L7,12 L7,14 L5,14 L5,15 L4,15 L4,16 L-1,16 L-1,15 L-2,15 L-2,14 L-3,14 L-3,13 L-4,13 L-4,12 L-5,12 L-5,4 L-4,4 L-4,3 L-3,3 L-3,2 L-2,2 L-2,1 L0,1 Z " fill="#F4EC3D" transform="translate(114,43)"/>
<path d="M0,0 L4,0 L4,14 L7,14 L7,17 L4,17 L4,22 L1,22 L1,17 L-8,17 L-8,13 L-5,13 L-5,14 L1,14 L1,3 L-1,3 L-1,1 L0,1 Z " fill="#F1E82C" transform="translate(135,44)"/>
<path d="M0,0 L1,0 L1,1 L2,1 L2,3 L3,3 L3,5 L4,5 L4,7 L5,7 L5,9 L6,9 L6,10 L7,10 L7,15 L6,15 L6,17 L4,17 L4,18 L1,18 L1,17 L0,17 L0,16 L-1,16 L-1,12 L-2,12 L-2,5 L-1,5 L-1,1 L0,1 Z " fill="#275063" transform="translate(64,121)"/>
<path d="M0,0 L11,0 L11,2 L10,2 L10,5 L9,5 L9,6 L8,6 L8,8 L7,8 L7,9 L5,9 L5,10 L2,10 L2,11 L0,11 Z " fill="#BDC5CE" transform="translate(109,92)"/>
<path d="M0,0 L1,0 L1,21 L3,21 L3,0 L10,0 L10,2 L9,2 L9,3 L8,3 L8,5 L7,5 L7,6 L6,6 L6,8 L5,8 L5,9 L4,9 L4,22 L0,22 Z " fill="#888C91" transform="translate(69,86)"/>
<path d="M0,0 L1,0 L1,1 L2,1 L2,2 L3,2 L3,3 L5,3 L5,8 L4,8 L4,9 L3,9 L3,10 L2,10 L2,12 L0,12 L0,11 L-1,11 L-1,8 L-3,8 L-3,9 L-4,9 L-4,11 L-10,11 L-10,10 L-5,10 L-5,8 L-4,8 L-4,6 L-6,6 L-6,5 L-4,5 L-4,4 L-3,4 L-3,3 L-2,3 L-2,2 L0,2 Z " fill="#415D73" transform="translate(120,25)"/>
<path d="M0,0 L3,0 L3,11 L-3,11 L-3,10 L-6,10 L-6,9 L-5,9 L-5,8 L-4,8 L-4,6 L-3,6 L-3,4 L-2,4 L-2,3 L-1,3 L-1,1 L0,1 Z " fill="#EDE333" transform="translate(133,47)"/>
<path d="M0,0 L4,0 L4,1 L5,1 L5,2 L6,2 L6,7 L5,7 L5,8 L4,8 L4,9 L0,9 L0,8 L-2,8 L-2,2 L-1,2 L-1,1 L0,1 Z " fill="#C2CFD4" transform="translate(85,130)"/>
<path d="M0,0 L5,0 L5,1 L6,1 L6,2 L7,2 L7,6 L6,6 L6,7 L5,7 L5,8 L1,8 L1,7 L0,7 L0,6 L-1,6 L-1,1 L0,1 Z " fill="#131516" transform="translate(124,118)"/>
<path d="M0,0 L5,0 L5,1 L6,1 L6,2 L7,2 L7,6 L6,6 L6,7 L5,7 L5,8 L1,8 L1,7 L0,7 L0,6 L-1,6 L-1,1 L0,1 Z " fill="#131516" transform="translate(124,109)"/>
<path d="M0,0 L5,0 L5,2 L6,2 L6,6 L5,6 L5,8 L4,8 L4,9 L1,9 L1,8 L-1,8 L-1,1 L0,1 Z " fill="#CBD3D6" transform="translate(114,47)"/>
<path d="M0,0 L6,0 L6,1 L10,1 L10,2 L11,2 L11,3 L10,3 L10,9 L9,9 L9,3 L8,3 L8,4 L4,4 L4,6 L2,6 L2,7 L0,7 Z " fill="#4C6176" transform="translate(122,13)"/>
<path d="M0,0 L2,0 L2,1 L7,1 L7,2 L9,2 L9,3 L12,3 L12,4 L13,4 L13,5 L14,5 L14,7 L9,7 L9,6 L8,6 L8,5 L7,5 L7,4 L5,4 L5,3 L-3,3 L-3,2 L-2,2 L-2,1 L0,1 Z " fill="#BDC7D2" transform="translate(149,155)"/>
<path d="M0,0 L5,0 L5,1 L6,1 L6,2 L7,2 L7,5 L6,5 L6,6 L5,6 L5,7 L1,7 L1,6 L0,6 L0,5 L-1,5 L-1,1 L0,1 Z " fill="#C3CFD6" transform="translate(84,120)"/>
<path d="M0,0 L1,0 L1,2 L2,2 L2,13 L1,13 L1,12 L0,12 L0,11 L1,11 L1,10 L0,10 L0,9 L-3,9 L-3,8 L-5,8 L-5,7 L-4,7 L-4,4 L-2,4 L-2,3 L-1,3 L-1,1 L0,1 Z " fill="#A8B2BE" transform="translate(199,91)"/>
<path d="M0,0 L1,0 L1,1 L3,1 L3,2 L4,2 L4,3 L5,3 L5,4 L6,4 L6,6 L10,6 L10,11 L5,11 L5,7 L4,7 L4,6 L3,6 L3,5 L2,5 L2,4 L1,4 L1,3 L0,3 Z " fill="#2B2D2E" transform="translate(74,96)"/>
<path d="M0,0 L1,0 L1,1 L2,1 L2,3 L3,3 L3,4 L4,4 L4,6 L5,6 L5,8 L-4,8 L-4,6 L-3,6 L-3,4 L-2,4 L-2,2 L-1,2 L-1,1 L0,1 Z " fill="#2B2D2E" transform="translate(75,74)"/>
<path d="M0,0 L3,0 L3,2 L7,2 L7,3 L3,3 L3,4 L1,4 L1,6 L0,6 L0,7 L-1,7 L-1,8 L-2,8 L-2,7 L-3,7 L-3,6 L-5,6 L-5,8 L-8,8 L-8,7 L-7,7 L-7,6 L-6,6 L-6,5 L-5,5 L-5,4 L-4,4 L-4,3 L-2,3 L-2,2 L-1,2 L-1,1 L0,1 Z " fill="#415C72" transform="translate(56,29)"/>
<path d="M0,0 L2,0 L2,1 L3,1 L3,2 L6,2 L6,1 L5,1 L5,0 L7,0 L7,3 L5,3 L5,6 L2,6 L2,7 L-1,7 L-1,5 L-3,5 L-3,3 L-1,3 L-1,1 L0,1 Z " fill="#486278" transform="translate(144,48)"/>
<path d="M0,0 L2,0 L2,1 L3,1 L3,2 L5,2 L5,3 L6,3 L6,4 L7,4 L7,5 L8,5 L8,6 L9,6 L9,8 L8,8 L8,7 L7,7 L7,6 L6,6 L6,8 L7,8 L7,9 L8,9 L8,12 L7,12 L7,10 L6,10 L6,9 L5,9 L5,8 L4,8 L4,7 L3,7 L3,6 L2,6 L2,5 L1,5 L1,3 L0,3 Z " fill="#455E73" transform="translate(174,41)"/>
<path d="M0,0 L1,0 L1,3 L-1,3 L-1,5 L9,5 L9,7 L-5,7 L-5,5 L-4,5 L-4,4 L-3,4 L-3,3 L-2,3 L-2,2 L-1,2 L-1,1 L0,1 Z " fill="#EC1E25" transform="translate(61,61)"/>
<path d="M0,0 L7,0 L7,3 L6,3 L6,5 L5,5 L5,8 L4,8 L4,9 L3,9 L3,6 L2,6 L2,4 L1,4 L1,2 L0,2 Z " fill="#C3CCD5" transform="translate(123,129)"/>
<path d="M0,0 L4,0 L4,1 L5,1 L5,3 L6,3 L6,11 L5,11 L5,10 L4,10 L4,8 L3,8 L3,6 L2,6 L2,4 L1,4 L1,2 L0,2 Z " fill="#C0CBD4" transform="translate(65,120)"/>
<path d="M0,0 L7,0 L7,1 L8,1 L8,3 L6,3 L6,7 L4,7 L4,8 L6,8 L6,9 L7,9 L7,10 L5,10 L5,9 L3,9 L3,6 L5,6 L5,3 L-1,3 L-1,1 L0,1 Z " fill="#475E75" transform="translate(180,93)"/>
<path d="M0,0 L6,0 L6,2 L5,2 L5,3 L4,3 L4,5 L3,5 L3,6 L2,6 L2,8 L1,8 L1,9 L0,9 Z " fill="#C0C8D2" transform="translate(73,86)"/>
<path d="M0,0 L1,0 L1,1 L2,1 L2,2 L3,2 L3,3 L4,3 L4,5 L5,5 L5,6 L6,6 L6,7 L7,7 L7,9 L8,9 L8,10 L9,10 L9,11 L10,11 L10,13 L9,13 L9,12 L8,12 L8,11 L5,11 L5,8 L4,8 L4,6 L3,6 L3,5 L1,5 L1,4 L0,4 Z " fill="#BFC9D4" transform="translate(83,143)"/>
<path d="M0,0 L1,0 L1,9 L-5,9 L-5,8 L-4,8 L-4,6 L-3,6 L-3,4 L-2,4 L-2,3 L-1,3 L-1,1 L0,1 Z " fill="#2C4E61" transform="translate(135,49)"/>
<path d="M0,0 L1,0 L1,1 L3,1 L3,2 L7,2 L7,4 L8,4 L8,5 L9,5 L9,6 L10,6 L10,7 L9,7 L9,9 L8,9 L8,8 L7,8 L7,6 L6,6 L6,5 L5,5 L5,4 L4,4 L4,3 L3,3 L3,7 L4,7 L4,8 L2,8 L2,3 L1,3 L1,2 L0,2 Z " fill="#5E7487" transform="translate(80,140)"/>
<path d="M0,0 L1,0 L1,2 L0,2 L0,3 L-1,3 L-1,4 L-2,4 L-2,3 L-3,3 L-3,4 L-4,4 L-4,5 L-5,5 L-5,6 L-6,6 L-6,7 L-7,7 L-7,8 L-8,8 L-8,9 L-7,9 L-7,10 L-8,10 L-8,11 L-10,11 L-10,10 L-9,10 L-9,9 L-10,9 L-10,7 L-9,7 L-9,6 L-8,6 L-8,5 L-7,5 L-7,4 L-6,4 L-6,3 L-4,3 L-4,2 L-2,2 L-2,1 L0,1 Z " fill="#415B72" transform="translate(182,105)"/>
<path d="M0,0 L3,0 L3,1 L5,1 L5,3 L6,3 L6,8 L4,8 L4,7 L3,7 L3,6 L2,6 L2,4 L1,4 L1,1 L0,1 Z " fill="#425B71" transform="translate(136,16)"/>
<path d="M0,0 L2,0 L2,1 L3,1 L3,2 L5,2 L5,3 L6,3 L6,4 L7,4 L7,3 L8,3 L8,4 L9,4 L9,6 L8,6 L8,5 L6,5 L6,6 L3,6 L3,5 L-2,5 L-2,4 L-3,4 L-3,3 L-1,3 L-1,4 L3,4 L3,3 L2,3 L2,2 L1,2 L1,1 L0,1 Z " fill="#50667C" transform="translate(173,51)"/>
<path d="M0,0 L1,0 L1,1 L2,1 L2,2 L3,2 L3,3 L4,3 L4,4 L5,4 L5,5 L3,5 L3,4 L2,4 L2,7 L-2,7 L-2,3 L1,3 L1,2 L0,2 Z " fill="#486076" transform="translate(158,31)"/>
<path d="M0,0 L2,0 L2,1 L3,1 L3,3 L4,3 L4,5 L5,5 L5,7 L3,7 L3,8 L2,8 L2,5 L1,5 L1,3 L0,3 Z " fill="#151718" transform="translate(121,130)"/>
<path d="M0,0 L2,0 L2,1 L3,1 L3,2 L5,2 L5,3 L4,3 L4,4 L7,4 L7,5 L2,5 L2,4 L0,4 Z " fill="#EFE85C" transform="translate(110,62)"/>
<path d="M0,0 L1,0 L1,1 L2,1 L2,5 L-2,5 L-2,4 L-4,4 L-4,3 L-2,3 L-2,2 L-1,2 L-1,1 L0,1 Z " fill="#BBC4D0" transform="translate(118,27)"/>
<path d="M0,0 L7,0 L7,1 L8,1 L8,3 L7,3 L7,2 L6,2 L6,1 L2,1 L2,2 L3,2 L3,3 L-1,3 L-1,1 L0,1 Z " fill="#738295" transform="translate(180,93)"/>
<path d="M0,0 L1,0 L1,1 L6,1 L6,2 L7,2 L7,3 L6,3 L6,4 L3,4 L3,3 L2,3 L2,2 L-1,2 L-1,1 L0,1 Z " fill="#576B80" transform="translate(164,39)"/>
<path d="M0,0 L5,0 L5,1 L6,1 L6,2 L5,2 L5,3 L0,3 Z " fill="#BBC4CE" transform="translate(123,13)"/>
<path d="M0,0 L3,0 L3,5 L0,5 Z " fill="#F8EF21" transform="translate(136,61)"/>
<path d="M0,0 L2,0 L2,1 L1,1 L1,6 L0,6 L0,4 L-1,4 L-1,5 L-2,5 L-2,6 L-3,6 L-3,4 L-2,4 L-2,2 L-1,2 L-1,1 L0,1 Z " fill="#576A71" transform="translate(126,55)"/>
<path d="M0,0 L4,0 L4,1 L5,1 L5,2 L3,2 L3,3 L0,3 L0,2 L-1,2 L-1,1 L0,1 Z " fill="#9FA9B6" transform="translate(147,182)"/>
<path d="M0,0 L2,0 L2,1 L3,1 L3,2 L4,2 L4,3 L5,3 L5,4 L3,4 L3,3 L2,3 L2,5 L1,5 L1,3 L0,3 Z " fill="#425C72" transform="translate(89,147)"/>
<path d="M0,0 L2,0 L2,1 L3,1 L3,2 L4,2 L4,3 L5,3 L5,5 L4,5 L4,4 L3,4 L3,3 L0,3 Z " fill="#AEB8C5" transform="translate(88,151)"/>
<path d="M0,0 L2,0 L2,1 L3,1 L3,3 L0,3 L0,4 L-3,4 L-3,3 L-1,3 L-1,2 L0,2 Z " fill="#5E7186" transform="translate(194,80)"/>
<path d="M0,0 L1,0 L1,4 L2,4 L2,5 L3,5 L3,6 L2,6 L2,7 L0,7 Z " fill="#738296" transform="translate(122,13)"/>
<path d="M0,0 L1,0 L1,1 L2,1 L2,4 L0,4 L0,3 L-1,3 L-1,2 L-2,2 L-2,1 L0,1 Z " fill="#F7EE28" transform="translate(112,54)"/>
<path d="M0,0 L1,0 L1,1 L2,1 L2,2 L3,2 L3,3 L1,3 L1,6 L0,6 L0,3 L-1,3 L-1,2 L0,2 Z " fill="#556A7F" transform="translate(120,25)"/>
<path d="M0,0 L3,0 L3,1 L5,1 L5,2 L2,2 L2,3 L0,3 Z " fill="#4B6177" transform="translate(132,22)"/>
<path d="M0,0 L1,0 L1,2 L2,2 L2,4 L0,4 L0,5 L-1,5 L-1,2 L0,2 Z " fill="#303133" transform="translate(124,133)"/>
<path d="M0,0 L2,0 L2,3 L1,3 L1,5 L0,5 L0,2 L-1,2 L-1,1 L0,1 Z " fill="#476077" transform="translate(195,90)"/>
<path d="M0,0 L3,0 L3,3 L0,3 Z " fill="#93A1B0" transform="translate(156,34)"/>
</svg>
