<?xml version="1.0" encoding="UTF-8"?>
<svg version="1.1" xmlns="http://www.w3.org/2000/svg" width="1131" height="448">
<path d="M0 0 C1.18847656 2.30664062 1.18847656 2.30664062 2.140625 5.15625 C2.66269531 6.68958984 2.66269531 6.68958984 3.1953125 8.25390625 C3.71738281 9.86072266 3.71738281 9.86072266 4.25 11.5 C4.61351562 12.57121094 4.97703125 13.64242187 5.3515625 14.74609375 C8 22.64162359 8 22.64162359 8 25 C9.29164063 25.24621094 10.58328125 25.49242188 11.9140625 25.74609375 C17.0625932 26.89054779 21.61374777 28.83340452 26.375 31.0625 C27.944831 31.78360123 29.51512438 32.50369694 31.0859375 33.22265625 C31.7670459 33.53984619 32.4481543 33.85703613 33.14990234 34.18383789 C36.5879655 35.81740624 36.5879655 35.81740624 40.18896484 35.19555664 C41.02121582 34.77137451 41.8534668 34.34719238 42.7109375 33.91015625 C43.62617187 33.45576172 44.54140625 33.00136719 45.484375 32.53320312 C47.40367357 31.55669514 49.32294463 30.58013308 51.2421875 29.60351562 C52.16 29.14783203 53.0778125 28.69214844 54.0234375 28.22265625 C54.85794434 27.79734619 55.69245117 27.37203613 56.55224609 26.93383789 C59.25647388 25.90215314 61.12998349 25.70878257 64 26 C66.47265625 27.58203125 66.47265625 27.58203125 69.0625 29.8125 C70.0215625 30.63621094 70.980625 31.45992187 71.96875 32.30859375 C72.98027079 33.20448408 73.99067526 34.10163628 75 35 C75.50015625 35.43844238 76.0003125 35.87688477 76.515625 36.32861328 C83.85651026 42.77790262 90.65556017 49.55347438 97 57 C97.49999512 57.52432617 97.99999023 58.04865234 98.51513672 58.58886719 C105.72203061 66.1555471 105.72203061 66.1555471 107 71 C106.44723797 76.8928631 103.07091157 82.07826486 100 87 C96.94937333 91.61625813 96.94937333 91.61625813 96.21875 96.91015625 C96.98773973 99.35902235 97.97804246 101.64418878 99 104 C99.78797526 106.05819138 100.55287092 108.12421257 101.31689453 110.19140625 C102.09949339 112.3060782 102.89555073 114.41520635 103.6953125 116.5234375 C104.50042908 118.66880802 105.27537407 120.82612221 106 123 C108.46160898 124.09984533 108.46160898 124.09984533 111.49609375 124.91015625 C112.61177734 125.26142578 113.72746094 125.61269531 114.87695312 125.97460938 C117.23955812 126.69648046 119.60952901 127.39469314 121.98632812 128.06835938 C130.36601141 130.77132704 130.36601141 130.77132704 132.20898438 134.34301758 C132.74205914 136.94127245 132.95171466 139.35132007 133 142 C133.13664062 142.99128906 133.27328125 143.98257813 133.4140625 145.00390625 C134.40837469 157.06454491 134.36534579 168.96805238 133.125 181 C133.04660889 181.76449463 132.96821777 182.52898926 132.88745117 183.31665039 C132.71879074 184.8041934 132.52448208 186.28906926 132.30371094 187.76977539 C131.9584771 190.01905303 131.9584771 190.01905303 131.92285156 192.38452148 C131.68449681 195.04074903 131.36224828 196.69521712 130 199 C126.08121116 201.45901484 121.90747676 202.72564655 117.5 204.0625 C116.33339844 204.45115234 115.16679688 204.83980469 113.96484375 205.24023438 C105.56386409 208 105.56386409 208 103 208 C102.90976563 208.8353125 102.81953125 209.670625 102.7265625 210.53125 C101.73295492 215.27492488 99.60619298 219.17389112 97.3515625 223.43359375 C95.16462578 227.81643005 94.50713597 230.32313691 96 235 C97.81477766 239.14514877 99.87530246 243.1613048 101.9375 247.1875 C102.34226562 248.00476563 102.74703125 248.82203125 103.1640625 249.6640625 C103.72794678 250.76935303 103.72794678 250.76935303 104.30322266 251.89697266 C105.13814942 254.41696535 104.94338604 255.54530638 104 258 C95.03333173 271.36541119 83.78127584 283.27202894 71 293 C69.91656188 293.83840627 68.83323202 294.67695246 67.75 295.515625 C59.51079805 301.82973398 59.51079805 301.82973398 56 303 C53.62744141 302.08789062 53.62744141 302.08789062 50.8515625 300.65625 C49.84609375 300.15222656 48.840625 299.64820313 47.8046875 299.12890625 C45.69108189 298.04613777 43.57908838 296.96021641 41.46875 295.87109375 C39.95667969 295.11505859 39.95667969 295.11505859 38.4140625 294.34375 C37.4957666 293.87130859 36.5774707 293.39886719 35.63134766 292.91210938 C32.55578418 291.84602057 31.08804583 292.10963958 28 293 C26.71609375 293.2475 25.4321875 293.495 24.109375 293.75 C19.17967556 295.03691457 14.78336116 296.47054317 11 300 C8.13264211 305.12555019 6.50346715 310.62130183 5.04003906 316.28710938 C4.21372976 319.35418043 3.41517439 322.15513065 2 325 C-1.29155752 326.54581823 -2.56572727 326.86758812 -6 327 C-7.66311046 327.20815963 -9.32585919 327.41922474 -10.98828125 327.6328125 C-12.76222031 327.80531552 -14.53702192 327.96913252 -16.3125 328.125 C-17.24964844 328.2084668 -18.18679688 328.29193359 -19.15234375 328.37792969 C-29.17102015 329.23258697 -38.67839243 329.01645766 -48.6875 328.125 C-50.02554688 328.00753418 -50.02554688 328.00753418 -51.390625 327.88769531 C-56.75841258 327.36571597 -61.88397478 326.75112273 -67 325 C-68.48046875 323.109375 -68.48046875 323.109375 -69.1875 320.75 C-69.47496094 319.86828125 -69.76242187 318.9865625 -70.05859375 318.078125 C-70.36925781 317.06234375 -70.67992187 316.0465625 -71 315 C-71.68077239 313.12935586 -72.36174428 311.2587665 -73.05200195 309.39160156 C-76 301.40241343 -76 301.40241343 -76 299 C-76.61746094 298.82984375 -77.23492188 298.6596875 -77.87109375 298.484375 C-83.16256087 296.97022611 -88.00284033 295.2049082 -92.89453125 292.671875 C-97.03590979 291.35032192 -100.75162409 293.19364031 -104.46875 295.06640625 C-105.28730469 295.46923828 -106.10585938 295.87207031 -106.94921875 296.28710938 C-108.65130495 297.13815248 -110.35182862 297.99232776 -112.05078125 298.84960938 C-113.27861328 299.45192383 -113.27861328 299.45192383 -114.53125 300.06640625 C-115.26923828 300.43709229 -116.00722656 300.80777832 -116.76757812 301.18969727 C-119.35578374 302.12913891 -121.26504055 302.24949819 -124 302 C-126.62109375 300.453125 -126.62109375 300.453125 -129.4375 298.25 C-129.95119141 297.8487793 -130.46488281 297.44755859 -130.99414062 297.03417969 C-132.67680323 295.70602763 -134.33969383 294.35597209 -136 293 C-136.56992676 292.53980469 -137.13985352 292.07960938 -137.72705078 291.60546875 C-149.19982463 282.2860463 -163.44958266 270.49593921 -170 257 C-169.97192124 250.48572752 -165.98651191 244.55261008 -163.0625 238.90039062 C-162.65773438 238.08634766 -162.25296875 237.27230469 -161.8359375 236.43359375 C-161.27205322 235.33615845 -161.27205322 235.33615845 -160.69677734 234.21655273 C-159.43615937 230.20633878 -160.93321912 226.79694715 -162.62890625 223.1171875 C-162.94150391 222.42496094 -163.25410156 221.73273438 -163.57617188 221.01953125 C-164.23737181 219.58191238 -164.898833 218.14441364 -165.56054688 216.70703125 C-168 211.30285973 -168 211.30285973 -168 208 C-168.52464844 207.85304687 -169.04929687 207.70609375 -169.58984375 207.5546875 C-171.28631912 207.06352824 -172.97432794 206.54279795 -174.65625 206.00390625 C-177.22702016 205.23207456 -179.72998992 204.6076121 -182.34375 204.02734375 C-191.3282039 201.79008549 -191.3282039 201.79008549 -195 199 C-197.27453708 194.29619542 -197.76221398 190.08251576 -197.93212891 184.90673828 C-198.01797052 182.49514478 -198.36552222 180.14021152 -198.6875 177.75 C-199.73831665 163.16991902 -200.68198214 146.04594641 -196 132 C-193.67089844 131.07128906 -193.67089844 131.07128906 -190.609375 130.265625 C-177.86563999 127.40515317 -177.86563999 127.40515317 -168.40625 119.49609375 C-167.58366271 116.78655793 -167.00890617 114.48627929 -166.609375 111.73046875 C-165.95675362 107.73525455 -164.69632085 105.82849509 -162.5 102.5 C-160.9137164 99.02732509 -160.68062917 96.95393999 -161.89697266 93.32080078 C-163.73772729 89.09934597 -165.77311577 85.03438588 -168.0078125 81.0078125 C-168.53761719 80.04746094 -169.06742188 79.08710937 -169.61328125 78.09765625 C-170.11641846 77.23664307 -170.61955566 76.37562988 -171.13793945 75.48852539 C-172 73 -172 73 -171.26025391 70.34960938 C-165.9426328 60.43547038 -157.70462235 52.09517924 -150 44 C-149.41863281 43.36578125 -148.83726562 42.7315625 -148.23828125 42.078125 C-144.43699599 38.05661414 -140.20100973 34.5172156 -135.9375 31 C-135.34735107 30.4939624 -134.75720215 29.9879248 -134.14916992 29.46655273 C-131.46946851 27.31267953 -129.6431379 26.02388545 -126.16015625 25.89453125 C-120.85182716 27.75146219 -115.94456867 30.3853775 -110.98828125 33.02539062 C-106.22364122 35.51318542 -106.22364122 35.51318542 -101.00390625 35.51953125 C-100.01261719 35.01808594 -99.02132812 34.51664063 -98 34 C-96.48116955 33.36701083 -94.95866855 32.74279292 -93.43359375 32.125 C-91.76726033 31.41894884 -90.1019148 30.71056223 -88.4375 30 C-86.76969573 29.29127948 -85.10173161 28.58293499 -83.43359375 27.875 C-82.70197021 27.56304687 -81.97034668 27.25109375 -81.21655273 26.9296875 C-79 26 -79 26 -76.37646484 25.23681641 C-73.07944626 23.52090351 -72.71955984 21.81302759 -71.54296875 18.3359375 C-70.95805664 16.65371094 -70.95805664 16.65371094 -70.36132812 14.9375 C-69.7802832 13.1740625 -69.7802832 13.1740625 -69.1875 11.375 C-68.78080078 10.19164062 -68.37410156 9.00828125 -67.95507812 7.7890625 C-66.95279677 4.86475925 -65.96870395 1.93556249 -65 -1 C-14.62623448 -9.7335321 -14.62623448 -9.7335321 0 0 Z M-50.734375 46.54296875 C-51.36085938 47.26419922 -51.36085938 47.26419922 -52 48 C-51.43079834 48.02505615 -50.86159668 48.0501123 -50.27514648 48.07592773 C-47.66242687 48.19293894 -45.04997638 48.3151828 -42.4375 48.4375 C-41.54224609 48.47681641 -40.64699219 48.51613281 -39.72460938 48.55664062 C-35.77403015 48.74476345 -32.00159878 48.9997314 -28.09375 49.65625 C-24.8302831 50.01885743 -23.7279785 49.85761817 -21.0625 48.0625 C-20.051875 47.381875 -19.04125 46.70125 -18 46 C-18 45.67 -18 45.34 -18 45 C-35.07584337 42.16819528 -35.07584337 42.16819528 -50.734375 46.54296875 Z M-68.5625 49.6875 C-69.36864746 49.95643066 -70.17479492 50.22536133 -71.00537109 50.50244141 C-76.93534808 52.5283877 -82.54104633 54.90019214 -88 58 C-86.3114895 59.2813068 -86.3114895 59.2813068 -84 60 C-81.38865466 59.0872766 -81.38865466 59.0872766 -78.6875 57.4375 C-71.70614966 53.68362188 -64.54219495 51.32860117 -57 49 C-57 48.34 -57 47.68 -57 47 C-61.16808354 47 -64.63568305 48.36898925 -68.5625 49.6875 Z M-18 51 C-15.11593648 53.24316052 -12.15204569 55.15490009 -9 57 C-4.22546495 59.79484979 -4.22546495 59.79484979 -2.26855469 61.57543945 C0.83811417 63.52630179 3.08586158 63.34097551 6.734375 63.29296875 C8.67763672 63.2784668 8.67763672 63.2784668 10.66015625 63.26367188 C12.02344354 63.23860783 13.38672479 63.21321302 14.75 63.1875 C16.12889184 63.17244518 17.50779935 63.15875817 18.88671875 63.14648438 C22.25820915 63.11111909 25.62890654 63.06175904 29 63 C26.57031496 60.42211425 24.45140181 58.47387482 21.2421875 56.96484375 C20.53908447 56.63162109 19.83598145 56.29839844 19.11157227 55.95507812 C18.37350342 55.61927734 17.63543457 55.28347656 16.875 54.9375 C16.1130835 54.58751953 15.35116699 54.23753906 14.56616211 53.87695312 C4.12587911 49.16234462 -7.34154534 44.26834442 -18 51 Z M-52 54 C-52.09872903 55.34476387 -52.13079159 56.69458706 -52.1328125 58.04296875 C-52.13410156 58.86990234 -52.13539063 59.69683594 -52.13671875 60.54882812 C-52.13285156 61.41958984 -52.12898437 62.29035156 -52.125 63.1875 C-52.12886719 64.03892578 -52.13273438 64.89035156 -52.13671875 65.76757812 C-52.12972067 70.29183604 -51.91805976 74.54813878 -51 79 C-48.41775224 75.79896476 -45.88945651 72.56238454 -43.39599609 69.29174805 C-39.40579506 64.05911216 -35.3598899 58.93355963 -31 54 C-33.27891033 52.86054484 -34.56782104 52.87105786 -37.09765625 52.8671875 C-37.89880859 52.86589844 -38.69996094 52.86460938 -39.52539062 52.86328125 C-40.36263672 52.86714844 -41.19988281 52.87101562 -42.0625 52.875 C-43.32416992 52.86919922 -43.32416992 52.86919922 -44.61132812 52.86328125 C-48.6242087 52.46396116 -48.6242087 52.46396116 -52 54 Z M-68.0625 57.375 C-69.29097656 57.81585938 -70.51945313 58.25671875 -71.78515625 58.7109375 C-75.07743544 59.90343036 -75.07743544 59.90343036 -78 62 C-78 62.66 -78 63.32 -78 64 C-76.38010512 65.20878996 -76.38010512 65.20878996 -74.25 66.4375 C-69.29462126 69.60168292 -65.14927859 73.36351946 -60.89941406 77.39233398 C-58.77843608 79.88548481 -58.77843608 79.88548481 -56 81 C-56.495 68.13 -56.495 68.13 -57 55 C-61.31091512 55 -64.03093749 55.90820649 -68.0625 57.375 Z M-29.92578125 59.81640625 C-35.21818469 65.38788181 -40.88665336 71.94766782 -44 79 C-39.75260899 77.69621225 -35.80113345 76.04423641 -31.78076172 74.18164062 C-23.3248733 70.26416203 -15.07441826 67.21754273 -6 65 C-8.89646909 61.80295393 -11.56636268 60.00068474 -15.5 58.25 C-16.4384375 57.82203125 -17.376875 57.3940625 -18.34375 56.953125 C-23.57241784 55.07695595 -25.96371486 56.23249804 -29.92578125 59.81640625 Z M-102.875 67 C-104.41800781 68.23169922 -104.41800781 68.23169922 -105.9921875 69.48828125 C-106.98476563 70.31714844 -107.97734375 71.14601563 -109 72 C-110.30324219 73.07314453 -110.30324219 73.07314453 -111.6328125 74.16796875 C-115.89287798 77.80238105 -118.9819073 81.23707246 -122 86 C-111.88800268 84.66612176 -111.88800268 84.66612176 -103.4375 79.53125 C-102.15360484 77.64682323 -100.9227839 75.7250437 -99.75 73.76953125 C-97.4936554 70.19866446 -94.73380442 67.86678894 -91.46875 65.2421875 C-90.9840625 64.83226563 -90.499375 64.42234375 -90 64 C-90 63.67 -90 63.34 -90 63 C-95.76673879 62.53981137 -98.38320721 63.39682746 -102.875 67 Z M-91 71.25 C-91.5465625 71.74113281 -92.093125 72.23226562 -92.65625 72.73828125 C-95.46433126 75.31923829 -97.43071177 77.54127394 -99 81 C-97.93120605 80.98259766 -97.93120605 80.98259766 -96.84082031 80.96484375 C-89.09101986 80.8945052 -81.46762822 81.3257326 -73.75 82 C-72.04263672 82.14308594 -72.04263672 82.14308594 -70.30078125 82.2890625 C-67.53344648 82.52161164 -64.76657835 82.75864653 -62 83 C-68.37969648 76.56521115 -74.84262302 70.15528358 -83 66 C-86.45029833 66 -88.57949113 69.0064623 -91 71.25 Z M5 69 C5.33773437 69.64066406 5.67546875 70.28132813 6.0234375 70.94140625 C6.46945312 71.80636719 6.91546875 72.67132813 7.375 73.5625 C7.81585937 74.40941406 8.25671875 75.25632812 8.7109375 76.12890625 C10 79 10 79 10.484375 82.61328125 C11.61811846 86.07375905 11.61811846 86.07375905 14.11767578 87.13208008 C17.01329329 88.10947596 19.90845411 88.89065376 22.875 89.625 C24.98038007 90.20262659 27.08456711 90.7846204 29.1875 91.37109375 C30.19683594 91.64679199 31.20617188 91.92249023 32.24609375 92.20654297 C37.36961377 93.68273446 42.16023995 95.77217394 47 98 C48.749712 98.77148685 50.49969267 99.54236477 52.25 100.3125 C53.50066299 100.87352436 54.75094605 101.43540238 56 102 C54.20434796 91.22608774 49.29210585 79.42670581 41 72 C37.43885446 70.15537785 33.88585004 68.9628655 30 68 C28.88044922 67.71189453 28.88044922 67.71189453 27.73828125 67.41796875 C23.76113961 66.81090148 19.82991538 66.81570624 15.8125 66.8125 C14.99330078 66.80025391 14.17410156 66.78800781 13.33007812 66.77539062 C8.68495144 66.54560712 8.68495144 66.54560712 5 69 Z M-13.1875 71.5 C-14.3628833 71.89179443 -14.3628833 71.89179443 -15.56201172 72.29150391 C-24.01889796 75.20516417 -32.00540863 79.01282405 -40 83 C-40 83.33 -40 83.66 -40 84 C-38.71706055 83.99214478 -38.71706055 83.99214478 -37.40820312 83.98413086 C-6.0310817 83.81727622 -6.0310817 83.81727622 7 85 C5.26901789 78.79379586 3.26787643 73.89244371 -1 69 C-5.45847588 69 -9.01955428 70.09886834 -13.1875 71.5 Z M-97.75 85.5 C-98.73484375 85.5928125 -99.7196875 85.685625 -100.734375 85.78125 C-101.85585938 85.88953125 -101.85585938 85.88953125 -103 86 C-106.45979635 94.22257241 -106.45979635 94.22257241 -107 103 C-102.58799445 101.61050474 -98.34199788 99.94087232 -94.06933594 98.18164062 C-85.15671779 94.51632218 -76.35870897 91.35517179 -67 89 C-67.495 88.01 -67.495 88.01 -68 87 C-69.96559021 86.5313648 -69.96559021 86.5313648 -72.33203125 86.3671875 C-73.21310547 86.28339844 -74.09417969 86.19960937 -75.00195312 86.11328125 C-76.39317383 85.99533203 -76.39317383 85.99533203 -77.8125 85.875 C-79.18631836 85.74544922 -79.18631836 85.74544922 -80.58789062 85.61328125 C-86.3945476 85.08040523 -91.93092429 84.94580231 -97.75 85.5 Z M57 86 C57.1340625 86.66257812 57.268125 87.32515625 57.40625 88.0078125 C57.85063553 90.24728169 58.26188545 92.49337062 58.65625 94.7421875 C60.36976857 104.16413137 60.36976857 104.16413137 66.4375 111.25 C67.94080086 112.1951446 69.46043221 113.11515944 71 114 C72.66998649 115.32917292 74.33857487 116.66014102 76 118 C75.38750598 113.51688404 73.62406391 109.87307179 71.5 105.9375 C71.15122803 105.28644287 70.80245605 104.63538574 70.44311523 103.96459961 C66.90222574 97.53395565 62.76058005 91.59394198 58 86 C57.67 86 57.34 86 57 86 Z M-119.9375 91.25 C-120.54529297 91.55035156 -121.15308594 91.85070312 -121.77929688 92.16015625 C-128.91209843 95.77657128 -132.69477673 99.30686581 -136.125 106.375 C-136.46974365 107.0752832 -136.8144873 107.77556641 -137.16967773 108.49707031 C-140.53539555 115.63544817 -144.71560727 125.17601263 -142 133 C-141.33355469 132.23816406 -140.66710937 131.47632813 -139.98046875 130.69140625 C-126.23854046 115.21034381 -126.23854046 115.21034381 -117.859375 110.8984375 C-115.64393872 109.75348514 -114.49715352 109.02329605 -113 107 C-111.84367275 102.88433154 -111.09488632 98.84520986 -110.5078125 94.6171875 C-110 91 -110 91 -109 88 C-113.43941791 88 -116.11103892 89.27427194 -119.9375 91.25 Z M-39 89 C-36.50568803 90.66287465 -34.4126173 91.74943086 -31.67578125 92.8828125 C-30.81903809 93.24181641 -29.96229492 93.60082031 -29.07958984 93.97070312 C-28.1664502 94.35162109 -27.25331055 94.73253906 -26.3125 95.125 C-18.05627038 98.60700607 -10.01769644 102.36476217 -2.0546875 106.46875 C0.93088921 108.05609279 0.93088921 108.05609279 4 109 C6.21203894 103.1151417 7.94338874 97.34046126 8 91 C2.93950024 85.93950024 -14.97774273 87.81305864 -21.625 87.8125 C-22.54821045 87.8117749 -23.4714209 87.8110498 -24.42260742 87.81030273 C-29.38069945 87.85051691 -34.11206218 88.16302435 -39 89 Z M13 92 C12.58427734 93.66289063 12.58427734 93.66289063 12.16015625 95.359375 C10.7734375 100.90625 9.38671875 106.453125 8 112 C9.03898438 112.70125 10.07796875 113.4025 11.1484375 114.125 C21.95426429 121.45780343 32.06497275 129.13711238 41.7265625 137.9453125 C44.42157001 140.38100658 47.18567675 142.70410471 50 145 C54.56706669 134.81786524 54.56706669 134.81786524 57 124 C57.23009766 122.17855469 57.23009766 122.17855469 57.46484375 120.3203125 C58.1846638 113.19686138 58.1846638 113.19686138 55.328125 106.94921875 C52.63355277 105.27189275 49.95950076 104.15091696 47 103 C45.75124088 102.42256627 44.50662177 101.83612021 43.265625 101.2421875 C33.92494136 96.8466393 23.44237914 92 13 92 Z M-43 94 C-40.67728778 98.22311313 -37.75681117 101.67776743 -34.5625 105.25 C-27.71760522 113.0445124 -21.84330071 121.44225818 -16 130 C-9.75280034 126.99109485 -3.67890529 121.91823895 0 116 C0.16822468 113.9879785 0.16822468 113.9879785 -1 112 C-3.31428981 110.54861403 -5.4742664 109.3894195 -7.9375 108.25 C-8.64390625 107.91145996 -9.3503125 107.57291992 -10.078125 107.22412109 C-12.37740866 106.13135734 -14.68718248 105.0637913 -17 104 C-17.78906738 103.63229492 -18.57813477 103.26458984 -19.39111328 102.88574219 C-21.75560296 101.78716836 -24.12592931 100.70269823 -26.5 99.625 C-27.22823975 99.29145508 -27.95647949 98.95791016 -28.70678711 98.61425781 C-33.40892408 96.52346413 -37.97555723 95.12031494 -43 94 Z M-73.32421875 95.15234375 C-74.18112305 95.43037842 -75.03802734 95.70841309 -75.92089844 95.99487305 C-76.83387695 96.30593994 -77.74685547 96.61700684 -78.6875 96.9375 C-79.61981445 97.25307861 -80.55212891 97.56865723 -81.51269531 97.89379883 C-87.58322269 100.0108097 -93.47079812 102.3692431 -99.25 105.1875 C-99.92248779 105.50775146 -100.59497559 105.82800293 -101.2878418 106.15795898 C-103.76334732 107.42392775 -105.65508505 108.42351671 -107.10546875 110.84765625 C-106.94569416 114.10824136 -105.58690733 116.38784747 -104.0625 119.25 C-103.49660156 120.32765625 -102.93070313 121.4053125 -102.34765625 122.515625 C-101.90292969 123.33546875 -101.45820312 124.1553125 -101 125 C-98.0564107 125.31045086 -98.0564107 125.31045086 -96.421875 123.75 C-95.87015625 123.1725 -95.3184375 122.595 -94.75 122 C-93.82380859 121.03707031 -93.82380859 121.03707031 -92.87890625 120.0546875 C-91.10293216 118.11256198 -89.3910697 116.13062107 -87.6875 114.125 C-81.34647247 106.78874393 -73.88112912 100.61365342 -66 95 C-69.35763646 93.88078785 -70.07978486 94.09852858 -73.32421875 95.15234375 Z M-55 97 C-60.07543304 108.28420029 -65.04748986 119.58378332 -69.1875 131.25 C-69.49051025 132.08821289 -69.79352051 132.92642578 -70.10571289 133.79003906 C-70.37375732 134.56573242 -70.64180176 135.34142578 -70.91796875 136.140625 C-71.15281982 136.81641602 -71.3876709 137.49220703 -71.62963867 138.18847656 C-72.20302013 140.22401317 -72.20302013 140.22401317 -71 143 C-66.56261287 143.84942326 -62.32893048 144.16329619 -57.8125 144.1875 C-55.99685547 144.20876953 -55.99685547 144.20876953 -54.14453125 144.23046875 C-50.83791998 144.24756663 -50.83791998 144.24756663 -48 142 C-49.98 127.15 -51.96 112.3 -54 97 C-54.33 97 -54.66 97 -55 97 Z M-49 97 C-48.48944044 111.78069926 -46.11831739 126.38375721 -44 141 C-36.06029897 143.3431232 -26.93366995 137.73351459 -20 134 C-21.45654794 129.68607112 -23.76080465 126.40193997 -26.5625 122.875 C-27.2263269 122.02675659 -27.2263269 122.02675659 -27.90356445 121.16137695 C-37.5537324 108.74017662 -37.5537324 108.74017662 -48 97 C-48.33 97 -48.66 97 -49 97 Z M-63 98 C-63.6290625 98.56847656 -64.258125 99.13695312 -64.90625 99.72265625 C-68.90695975 103.33173026 -72.90779665 106.93229303 -77 110.4375 C-84.10336735 116.64754326 -90.82896435 123.07107867 -96 131 C-94.71745222 131.92938245 -93.42319906 132.84260827 -92.125 133.75 C-91.04605469 134.51570313 -91.04605469 134.51570313 -89.9453125 135.296875 C-85.81860303 137.68314201 -81.45012254 139.31347825 -77 141 C-76.72849121 140.2251123 -76.45698242 139.45022461 -76.17724609 138.65185547 C-66.19553663 110.23587595 -66.19553663 110.23587595 -61 99 C-61.66 98.67 -62.32 98.34 -63 98 Z M62 113 C61.91363281 114.13695312 61.82726563 115.27390625 61.73828125 116.4453125 C60.94087339 125.6010679 59.57117095 133.51314514 56.12109375 142.08203125 C55.75113281 143.04496094 55.38117188 144.00789063 55 145 C54.68289063 145.81984375 54.36578125 146.6396875 54.0390625 147.484375 C53.97773455 151.43389505 56.46021031 153.61626393 58.9375 156.4375 C65.64793767 164.4919637 71.30182021 173.11978832 75 183 C78.58292058 180.27614225 79.40461984 176.37819957 80.625 172.25 C80.8415625 171.5590625 81.058125 170.868125 81.28125 170.15625 C84.96315348 158.06506079 86.05257966 145.37873268 80.54296875 133.7421875 C76.04809711 125.75383335 69.76260138 119.13858452 63 113 C62.67 113 62.34 113 62 113 Z M-131.4375 128.125 C-138.84760079 135.28347826 -138.84760079 135.28347826 -142.625 144.5625 C-141.78018635 156.05641202 -135.65681211 165.98109327 -129 175 C-126.02473305 171.47140596 -124.34481907 167.49320509 -122.5 163.3125 C-117.3983543 152.09864338 -110.87423477 141.49323631 -103 132 C-104.19547731 128.63092759 -105.74461422 125.60169936 -107.5 122.5 C-109.25538578 119.39830064 -110.80452269 116.36907241 -112 113 C-117.77604441 113 -127.45897768 124.14710235 -131.4375 128.125 Z M5 117 C3.18463521 118.85985902 1.45880429 120.73359911 -0.25 122.6875 C-3.91781468 126.86840233 -7.6457225 130.52817223 -12 134 C-8.65590994 140.18913054 -5.06050547 146.15131534 -1.25 152.0625 C3.52115098 159.52935868 7.98900611 167.11159163 12.2578125 174.875 C13.96184446 178.02871404 13.96184446 178.02871404 16 181 C20.50214373 180.11650989 23.30217119 177.57110176 26.6875 174.625 C27.3067334 174.08987793 27.9259668 173.55475586 28.56396484 173.00341797 C35.82889671 166.58118041 41.87693018 159.24146014 47 151 C45.3777733 146.72882083 42.16336279 144.01380746 38.875 141 C38.26188965 140.43474609 37.6487793 139.86949219 37.01708984 139.28710938 C22.46196464 124.99184815 22.46196464 124.99184815 5 117 Z M-100 135 C-114.98132625 156.04233044 -114.98132625 156.04233044 -124 180 C-115.54640165 188.40887031 -100.63688237 200 -88 200 C-87.85751831 198.90051025 -87.85751831 198.90051025 -87.7121582 197.77880859 C-85.89832637 183.97646335 -83.96157911 170.33951192 -80.48754883 156.84326172 C-78.7333759 150.83219333 -78.7333759 150.83219333 -80 145 C-82.44693137 143.24805506 -85.07366689 142.04174006 -87.8125 140.8125 C-88.53759766 140.47025391 -89.26269531 140.12800781 -90.00976562 139.77539062 C-91.36693768 139.13591797 -92.72768168 138.50393147 -94.09301758 137.88208008 C-96.08343893 136.96140509 -98.04301116 135.98949485 -100 135 Z M-23.9375 140.8125 C-29.85947718 143.60202823 -35.64938107 145.4918179 -42 147 C-41.53692615 157.33646977 -39.86526579 167.32157725 -37.98876953 177.47851562 C-37.49469375 180.15373115 -37.01026234 182.83056252 -36.52734375 185.5078125 C-36.2166941 187.21624562 -35.90551596 188.92458274 -35.59375 190.6328125 C-35.44893188 191.42962433 -35.30411377 192.22643616 -35.15490723 193.0473938 C-34.58691584 196.1132013 -33.98739358 199.03781926 -33 202 C-18.40967485 201.23208815 0.61086519 194.47623103 12 185 C7.23426219 172.08234226 -0.95141817 160.27408684 -8.5 148.875 C-9.20656738 147.80145264 -9.91313477 146.72790527 -10.64111328 145.62182617 C-11.3061084 144.63029541 -11.97110352 143.63876465 -12.65625 142.6171875 C-13.25244141 141.72628418 -13.84863281 140.83538086 -14.46289062 139.91748047 C-14.97013672 139.28471191 -15.47738281 138.65194336 -16 138 C-19.04279691 138 -21.21725128 139.48310377 -23.9375 140.8125 Z M-149 140 C-148 143 -148 143 -148 143 Z M-74 147 C-78.40907285 165.15179014 -78.40907285 165.15179014 -81.875 183.5 C-81.99464111 184.22034424 -82.11428223 184.94068848 -82.23754883 185.68286133 C-83.06147947 191.134504 -83.11530816 196.4936797 -83 202 C-67.08212816 204.70449588 -67.08212816 204.70449588 -51 205 C-49.50146484 204.90138672 -49.50146484 204.90138672 -47.97265625 204.80078125 C-42.82015758 204.55366336 -42.82015758 204.55366336 -38 203 C-39.73582696 191.37269296 -41.68393972 179.78190401 -43.625 168.1875 C-43.95320113 166.22332001 -44.2813267 164.2591274 -44.609375 162.29492188 C-45.40537965 157.52980201 -46.20240422 152.76485379 -47 148 C-48.918125 148.01740234 -48.918125 148.01740234 -50.875 148.03515625 C-52.58333186 148.04454269 -54.29166532 148.05364197 -56 148.0625 C-56.83917969 148.07087891 -57.67835938 148.07925781 -58.54296875 148.08789062 C-63.79319339 148.10824033 -68.80455662 147.76368207 -74 147 Z M-147 151 C-153.10769615 165.79662104 -150.85284586 184.70288346 -145.07373047 199.34716797 C-141.11968833 208.39385329 -141.11968833 208.39385329 -135 216 C-134.95512451 215.43716309 -134.91024902 214.87432617 -134.86401367 214.29443359 C-134.64794751 211.65374457 -134.418868 209.01439218 -134.1875 206.375 C-134.10709473 205.41674316 -134.02668945 204.45848633 -133.94384766 203.47119141 C-133.42457791 197.8367836 -132.48833614 192.78904189 -130.875 187.375 C-129.92972009 183.41605544 -129.63794116 181.75412256 -131.4140625 178.0546875 C-133.46957899 175.22146077 -133.46957899 175.22146077 -135.79296875 172.5859375 C-141.05344531 166.42233488 -143.71842136 158.67945983 -146 151 C-146.33 151 -146.66 151 -147 151 Z M50 155 C49.10861328 156.21623047 49.10861328 156.21623047 48.19921875 157.45703125 C39.72361318 168.85131962 30.79696805 178.00729417 19 186 C19.26627197 186.59723877 19.53254395 187.19447754 19.80688477 187.80981445 C25.69009988 201.05116304 31.18388648 214.33308183 36 228 C40.9603595 226.46285438 44.29192007 223.548673 48.125 220.1875 C48.78226074 219.61362549 49.43952148 219.03975098 50.11669922 218.44848633 C56.42652743 212.81750542 61.85731594 206.69972508 67 200 C67.60070313 199.22527344 68.20140625 198.45054687 68.8203125 197.65234375 C71.17550677 194.31260106 72.05274091 192.97512087 71.82421875 188.75 C70.90491312 184.56737724 69.50283224 181.16723362 67.5625 177.375 C67.21485596 176.68784912 66.86721191 176.00069824 66.5090332 175.29272461 C63.94923132 170.41340122 61.03527535 165.93593727 57.6875 161.5625 C57.26734619 161.01319824 56.84719238 160.46389648 56.41430664 159.89794922 C54.32681371 157.28826848 53.23876748 156.07958916 50 155 Z M84 176 C85 178 85 178 85 178 Z M83 179 C79.11716499 186.18794717 77.27557381 190.90846172 79 199 C81.05449993 195.9182501 81.74475809 193.6904243 82.625 190.125 C82.88539063 189.09632813 83.14578125 188.06765625 83.4140625 187.0078125 C83.95301116 184.24120939 84.11394368 181.80715804 84 179 C83.67 179 83.34 179 83 179 Z M-126 186 C-130.63287086 196.7646117 -131.39574268 209.86513371 -129.5 221.375 C-124.0777616 234.47874279 -107.47682923 241.73796703 -95.05859375 246.90625 C-92.3512263 247.87440184 -89.81610536 248.47352498 -87 249 C-87.06566162 248.1735498 -87.13132324 247.34709961 -87.19897461 246.49560547 C-87.89120101 237.37398123 -88.28880249 228.26918889 -88.5625 219.125 C-88.60586532 217.74348157 -88.64948404 216.36197107 -88.69335938 214.98046875 C-88.79804744 211.65371459 -88.90022495 208.3269045 -89 205 C-89.98097656 204.67128906 -90.96195313 204.34257812 -91.97265625 204.00390625 C-104.17744701 199.75942403 -114.91320148 194.15057577 -125 186 C-125.33 186 -125.66 186 -126 186 Z M8.55712891 192.48974609 C1.6583113 196.44814314 -5.32150978 199.38798136 -12.875 201.875 C-14.17497925 202.30341187 -14.17497925 202.30341187 -15.5012207 202.74047852 C-20.95088749 204.47818181 -26.40040424 205.83483159 -32 207 C-29.09678407 222.12286109 -25.91114032 237.10438048 -22 252 C-14.91333787 251.57070546 -8.63788629 250.25513196 -1.9375 247.9375 C-0.58483032 247.47766724 -0.58483032 247.47766724 0.79516602 247.00854492 C11.74076222 243.18476006 22.46129091 238.6490847 32 232 C30.61164544 224.55407611 28.14749598 217.95751632 25.1875 211 C24.76146484 209.97132813 24.33542969 208.94265625 23.89648438 207.8828125 C21.29188203 201.6885086 18.41140193 195.79015339 15 190 C12.36340096 190 10.79057932 191.19804275 8.55712891 192.48974609 Z M73 199 C72.42894531 199.78761719 71.85789062 200.57523438 71.26953125 201.38671875 C61.75770782 214.26340461 51.03813123 224.73193081 38 234 C38.99 240.27 39.98 246.54 41 253 C55.44497625 245.77751187 68.4502508 228.39718484 74.0078125 213.25390625 C74.97252216 209.22522438 75.40235613 205.12415029 75 201 C74.34 200.34 73.68 199.68 73 199 Z M-84 207 C-84.32275808 221.97431982 -84.4673565 236.36693003 -81 251 C-79.00127261 251.48444764 -77.00094063 251.9622766 -75 252.4375 C-73.88625 252.70433594 -72.7725 252.97117187 -71.625 253.24609375 C-63.70602567 254.89303561 -56.12775957 255.15507555 -48.0625 255.125 C-47.02931641 255.12886719 -45.99613281 255.13273437 -44.93164062 255.13671875 C-38.87180346 255.12904321 -33.00865426 254.78945822 -27 254 C-27.62813921 248.37450576 -28.56898519 242.93362448 -29.8125 237.4140625 C-29.98628174 236.63106781 -30.16006348 235.84807312 -30.33911133 235.04135132 C-30.70377914 233.40233163 -31.07025608 231.76371349 -31.43847656 230.12548828 C-32.00290587 227.61206002 -32.56044182 225.09717143 -33.1171875 222.58203125 C-33.47355358 220.98428467 -33.83031033 219.38662516 -34.1875 217.7890625 C-34.35419189 217.03702545 -34.52088379 216.2849884 -34.69262695 215.51016235 C-35.53764314 211.65127811 -35.53764314 211.65127811 -37 208 C-38.18142578 208.10828125 -38.18142578 208.10828125 -39.38671875 208.21875 C-54.50601203 209.50702114 -68.95422035 208.60465555 -84 207 Z M27.83398438 239.8449707 C12.63273328 248.22346752 -3.03583642 253.5029061 -20 257 C-18.63125844 263.95776959 -16.5466871 270.38603107 -14 277 C-7.29198235 276.45903083 -1.36769451 275.15203108 5 273 C6.35508667 272.54620972 6.35508667 272.54620972 7.73754883 272.08325195 C16.78042965 268.93034581 28.11425343 264.88574657 35 258 C36.73891821 250.83397416 35.62664409 244.07119661 34 237 C31.7472164 237 29.76713554 238.76962028 27.83398438 239.8449707 Z M-121 239 C-115.16327275 252.59833265 -95.28259148 264.56532077 -82 270 C-81.01 269.67 -80.02 269.34 -79 269 C-80.29600154 263.336866 -81.7515847 257.06252518 -86.92333984 253.77880859 C-90.86005199 252.02539544 -94.94084575 250.8306034 -99.0625 249.59375 C-105.05116035 247.79250952 -110.00481704 244.84375563 -115.3125 241.6015625 C-117.95808634 239.89508065 -117.95808634 239.89508065 -121 239 Z M-79 257 C-76.33795999 264.46307992 -73.58711394 271.35011114 -66.3125 275.375 C-57.04923183 279.17440522 -47.34642501 279.29851988 -37.46264648 279.20581055 C-35.40921938 279.1872443 -33.35623771 279.18530366 -31.30273438 279.18554688 C-24.96563934 279.51583029 -24.96563934 279.51583029 -19 278 C-19.18175781 277.39414062 -19.36351562 276.78828125 -19.55078125 276.1640625 C-22.27539062 267.08203125 -22.27539062 267.08203125 -25 258 C-25.57685547 258.07001221 -26.15371094 258.14002441 -26.74804688 258.2121582 C-33.6773458 258.98656898 -40.53077895 259.19164157 -47.5 259.1875 C-48.62970215 259.18814453 -49.7594043 259.18878906 -50.92333984 259.18945312 C-60.38953016 259.13039849 -69.63796382 258.35471325 -79 257 Z " fill="#A4A4A3" transform="translate(997,29)"/>
<path d="M0 0 C27.06 0 54.12 0 82 0 C97.44631026 75.23418357 97.44631026 75.23418357 104.546875 110.484375 C105.00766509 112.77097167 105.46846015 115.05756734 105.92926025 117.34416199 C107.95920903 127.41946316 109.98706 137.49517597 112.00850296 147.57218742 C112.84758387 151.75235606 113.68890153 155.9320724 114.53073883 160.11168671 C114.92420447 162.06803297 115.3166295 164.02458884 115.70796967 165.98136139 C116.24284064 168.65549907 116.7811568 171.32892071 117.3203125 174.00219727 C117.47706074 174.79051091 117.63380898 175.57882456 117.79530716 176.3910265 C118.55497075 180.30588171 118.55497075 180.30588171 120 184 C120.20401255 183.00174635 120.20401255 183.00174635 120.41214657 181.98332596 C123.77003214 165.55287194 127.12795976 149.12242652 130.48593044 132.6919899 C131.95098888 125.52350434 133.41604281 118.35501786 134.88106024 111.18652391 C135.35719437 108.85674781 135.83333178 106.52697238 136.30946922 104.19719696 C136.93929711 101.11539766 137.56910784 98.03359485 138.19890785 94.95178986 C139.74544246 87.38424269 141.29227049 79.81675568 142.83969116 72.24938965 C143.4385632 69.32056188 144.03740679 66.39172829 144.63623047 63.46289062 C144.78131444 62.75330672 144.92639841 62.04372282 145.07587886 61.31263638 C146.78900402 52.93335563 148.4991888 44.55348776 150.20411968 36.17253494 C151.0576143 31.97713706 151.91229789 27.78198184 152.76707649 23.5868454 C153.33054586 20.81844074 153.89204413 18.04964121 154.45347595 15.28082275 C154.78406048 13.6582216 155.11474658 12.03564113 155.44555664 10.41308594 C155.59096704 9.69261833 155.73637745 8.97215073 155.88619423 8.22985077 C156.46197174 5.41508546 157.09019454 2.72941638 158 0 C184.73 0 211.46 0 239 0 C239 88.44 239 176.88 239 268 C222.5 268 206 268 189 268 C188.67 199.69 188.34 131.38 188 61 C183.565625 80.8825 179.13125 100.765 174.5625 121.25 C172.20277458 131.82505597 169.84302165 142.40010562 167.48291588 152.97507668 C167.18262036 154.32062389 166.8823255 155.66617125 166.58203125 157.01171875 C166.42364659 157.72140234 166.26526192 158.43108593 166.10207772 159.16227508 C162.26561862 176.35280352 158.4318085 193.54390834 154.60972595 210.73764038 C153.19786176 217.08893521 151.78380476 223.4397409 150.36889362 229.79035759 C149.29915451 234.59260354 148.23254036 239.39552943 147.16825581 244.19898701 C146.52754869 247.08716507 145.88386361 249.97467264 145.23922157 252.86197472 C144.81184516 254.78045563 144.38817766 256.69976162 143.96464539 258.61909485 C143.71688858 259.72585068 143.46913177 260.83260651 143.21386719 261.97290039 C143.00155457 262.92870499 142.78924194 263.88450958 142.57049561 264.86927795 C142 267 142 267 141 268 C139.64905018 268.09268999 138.29332909 268.11747326 136.93920898 268.11352539 C136.07839218 268.11344986 135.21757538 268.11337433 134.33067322 268.11329651 C133.39526199 268.10813522 132.45985077 268.10297394 131.49609375 268.09765625 C130.54307877 268.0962413 129.59006378 268.09482635 128.60816956 268.09336853 C125.55124835 268.08775152 122.49439923 268.07519616 119.4375 268.0625 C117.37044376 268.05748719 115.30338638 268.05292391 113.23632812 268.04882812 C108.15752578 268.03862563 103.07877198 268.01986022 98 268 C92.61256407 245.20703768 87.47203226 222.36247407 82.38820648 199.50016785 C81.42097051 195.15180933 80.45204127 190.80382871 79.48327637 186.45581055 C76.67470074 173.84590779 73.86875123 161.23542024 71.0625 148.625 C64.771875 120.36875 58.48125 92.1125 52 63 C51.67 130.65 51.34 198.3 51 268 C34.17 268 17.34 268 0 268 C0 179.56 0 91.12 0 0 Z " fill="#040707" transform="translate(193,54)"/>
<path d="M0 0 C129.53230769 0 129.53230769 0 149 19 C168.03887387 40.44125543 170.42034091 67.50733741 169 95 C167.89542026 105.25145455 164.93944191 114.93467131 160 124 C159.58234375 124.825 159.1646875 125.65 158.734375 126.5 C149.65483615 143.19800249 134.12643167 152.26569738 116.5546875 157.7734375 C95.2734259 163.50441189 79.62037364 161 55 161 C55 196.31 55 231.62 55 268 C36.85 268 18.7 268 0 268 C0 179.56 0 91.12 0 0 Z M55 40 C55 66.73 55 93.46 55 121 C79.24802316 122.27981468 79.24802316 122.27981468 101 114 C101.9075 113.401875 102.815 112.80375 103.75 112.1875 C111.79083207 104.37002438 114.06380711 94.59858313 114.35351562 83.69726562 C114.45794222 70.89076776 113.31820897 59.23777449 104.5078125 49.3203125 C91.61174861 36.91787785 70.99154966 40 55 40 Z " fill="#040707" transform="translate(566,54)"/>
<path d="M0 0 C18.48 0 36.96 0 56 0 C58.990625 6.435 61.98125 12.87 65.0625 19.5 C66.45480835 22.49223633 66.45480835 22.49223633 67.87524414 25.54492188 C72.7189742 35.9731332 77.45164531 46.43947393 82 57 C85.04776829 53.37327341 86.82846721 49.35601998 88.765625 45.078125 C89.12211121 44.30047791 89.47859741 43.52283081 89.84588623 42.72161865 C90.60115909 41.07178436 91.3541373 39.42089794 92.10498047 37.76904297 C93.22805393 35.29828135 94.35745154 32.83050104 95.48828125 30.36328125 C96.2269437 28.74757005 96.96523545 27.13168932 97.703125 25.515625 C98.02943909 24.80142395 98.35575317 24.0872229 98.69195557 23.35137939 C102.21245816 15.60266533 105.58744891 7.80011677 109 0 C127.48 0 145.96 0 165 0 C155.55155936 18.89688129 155.55155936 18.89688129 151.25 27.125 C150.48659302 28.58691772 150.48659302 28.58691772 149.70776367 30.07836914 C145.84442739 37.44896563 141.88196445 44.7614237 137.87451172 52.05444336 C132.34654252 62.13818451 126.97923323 72.30712908 121.6105957 82.47631836 C120.90446035 83.81103553 120.19832431 85.14575235 119.4921875 86.48046875 C119.1687587 87.09508972 118.8453299 87.70971069 118.51210022 88.34295654 C117.1089758 90.99312327 115.66586347 93.5012048 114 96 C114.14797006 101.82305705 117.12286326 106.27014246 119.9375 111.1875 C125.52683111 121.17782482 130.79717142 131.30478486 136 141.5 C141.93811265 153.1188654 147.99977635 164.64873475 154.296875 176.078125 C157.16129613 181.27744545 159.9691075 186.50557791 162.75 191.75 C163.18119141 192.55566406 163.61238281 193.36132812 164.05664062 194.19140625 C167 199.76572865 167 199.76572865 167 202 C148.85 202 130.7 202 112 202 C102.80178923 183.60357846 102.80178923 183.60357846 99.38671875 175.93359375 C99.00562454 175.08499283 98.62453033 174.23639191 98.23188782 173.36207581 C97.04724038 170.72196391 95.86733126 168.07976704 94.6875 165.4375 C93.88246117 163.64244368 93.07712392 161.84752116 92.27148438 160.05273438 C89.13390863 153.05458633 86.00252391 146.05736429 83 139 C77.22486914 150.28122489 71.90767222 161.7100059 66.8125 173.3125 C65.77727648 175.66006093 64.74094365 178.00712906 63.70426941 180.35404968 C63.06866375 181.79400699 62.43404655 183.2344013 61.80073547 184.67536926 C59.24863809 190.47376354 56.62223124 196.23109128 54 202 C35.52 202 17.04 202 -2 202 C7.29984841 183.40030317 7.29984841 183.40030317 10.515625 177.1171875 C11.0823568 176.00881531 11.0823568 176.00881531 11.66053772 174.87805176 C12.85561968 172.54297771 14.05247763 170.20882337 15.25 167.875 C15.87278336 166.66061249 15.87278336 166.66061249 16.50814819 165.42169189 C21.33715294 156.01357221 26.20605547 146.63645455 31.3125 137.375 C37.63101906 125.87797421 37.63101906 125.87797421 43.8399353 114.32159424 C44.78930486 112.54344403 45.75542025 110.77426666 46.72192383 109.00537109 C47.29450928 107.92078613 47.86709473 106.83620117 48.45703125 105.71875 C48.97241455 104.75904297 49.48779785 103.79933594 50.01879883 102.81054688 C51.63295913 98.18695557 50.52287435 95.15459659 48.5480957 90.79394531 C47.93023193 89.65022461 47.31236816 88.50650391 46.67578125 87.328125 C46.33805191 86.69724976 46.00032257 86.06637451 45.65235901 85.41638184 C44.54711907 83.3564743 43.4299266 81.30331816 42.3125 79.25 C41.53519029 77.80673479 40.75866955 76.36304441 39.98291016 74.91894531 C38.02816971 71.28437352 36.06403971 67.6549725 34.09735107 64.02685547 C32.48702031 61.05250405 30.88590313 58.07327119 29.28515625 55.09375 C27.02684005 50.89138476 24.76524926 46.69081965 22.5 42.4921875 C18.94907554 35.90835101 15.40577961 29.32045224 11.86968994 22.7286377 C11.21692054 21.51218026 10.56373604 20.29594547 9.91009521 19.07995605 C8.99886112 17.38462302 8.08924967 15.68841813 7.1796875 13.9921875 C6.66132324 13.02651855 6.14295898 12.06084961 5.60888672 11.06591797 C3.68728478 7.40408533 1.84940922 3.69881844 0 0 Z " fill="#A5A5A4" transform="translate(4,120)"/>
<path d="M0 0 C3.45089218 2.88461675 6.75445464 5.88717211 10 9 C10.845625 9.804375 11.69125 10.60875 12.5625 11.4375 C13.7690625 12.7059375 13.7690625 12.7059375 15 14 C15.65355469 14.6703125 16.30710937 15.340625 16.98046875 16.03125 C37.54688582 37.83660786 48.41531582 67.18992335 48.375 96.9375 C48.37445618 97.61708771 48.37391235 98.29667542 48.37335205 98.99685669 C48.25069239 132.46184602 35.56787979 162.24475692 12.25 186.1875 C-1.62705462 199.90356265 -17.75538329 209.12571867 -36.125 215.375 C-37.10202881 215.70910889 -38.07905762 216.04321777 -39.08569336 216.38745117 C-50.68083637 220.15110148 -62.09688525 221.37411498 -74.25 221.3125 C-76.01815063 221.30404053 -76.01815063 221.30404053 -77.82202148 221.29541016 C-109.92835446 220.85122967 -137.77174588 207.90892127 -161 186 C-161.61488281 185.43796875 -162.22976563 184.8759375 -162.86328125 184.296875 C-183.19996078 165.03546818 -196.482455 134.62814361 -197.3359375 106.84765625 C-197.71795697 74.35316327 -191.0320814 45.37750275 -169.62890625 19.953125 C-167.85023746 17.89119074 -167.85023746 17.89119074 -166 15 C-165.34 15 -164.68 15 -164 15 C-163.67 14.01 -163.34 13.02 -163 12 C-160.52962093 9.45222002 -157.7304941 7.26331654 -155 5 C-154.26523437 4.36707031 -153.53046875 3.73414062 -152.7734375 3.08203125 C-140.94636482 -6.82660322 -127.57166706 -14.02423272 -113 -19 C-111.86908936 -19.38744385 -111.86908936 -19.38744385 -110.71533203 -19.78271484 C-73.84265196 -31.78078441 -30.64697006 -23.1265079 0 0 Z M-92.734375 -17.45703125 C-93.36085938 -16.73580078 -93.36085938 -16.73580078 -94 -16 C-93.43079834 -15.97494385 -92.86159668 -15.9498877 -92.27514648 -15.92407227 C-89.66242687 -15.80706106 -87.04997638 -15.6848172 -84.4375 -15.5625 C-83.54224609 -15.52318359 -82.64699219 -15.48386719 -81.72460938 -15.44335938 C-77.77403015 -15.25523655 -74.00159878 -15.0002686 -70.09375 -14.34375 C-66.8302831 -13.98114257 -65.7279785 -14.14238183 -63.0625 -15.9375 C-62.051875 -16.618125 -61.04125 -17.29875 -60 -18 C-60 -18.33 -60 -18.66 -60 -19 C-77.07584337 -21.83180472 -77.07584337 -21.83180472 -92.734375 -17.45703125 Z M-110.5625 -14.3125 C-111.36864746 -14.04356934 -112.17479492 -13.77463867 -113.00537109 -13.49755859 C-118.93534808 -11.4716123 -124.54104633 -9.09980786 -130 -6 C-128.3114895 -4.7186932 -128.3114895 -4.7186932 -126 -4 C-123.38865466 -4.9127234 -123.38865466 -4.9127234 -120.6875 -6.5625 C-113.70614966 -10.31637812 -106.54219495 -12.67139883 -99 -15 C-99 -15.66 -99 -16.32 -99 -17 C-103.16808354 -17 -106.63568305 -15.63101075 -110.5625 -14.3125 Z M-60 -13 C-57.11593648 -10.75683948 -54.15204569 -8.84509991 -51 -7 C-46.22546495 -4.20515021 -46.22546495 -4.20515021 -44.26855469 -2.42456055 C-41.16188583 -0.47369821 -38.91413842 -0.65902449 -35.265625 -0.70703125 C-33.32236328 -0.7215332 -33.32236328 -0.7215332 -31.33984375 -0.73632812 C-29.97655646 -0.76139217 -28.61327521 -0.78678698 -27.25 -0.8125 C-25.87110816 -0.82755482 -24.49220065 -0.84124183 -23.11328125 -0.85351562 C-19.74179085 -0.88888091 -16.37109346 -0.93824096 -13 -1 C-15.42968504 -3.57788575 -17.54859819 -5.52612518 -20.7578125 -7.03515625 C-21.46091553 -7.36837891 -22.16401855 -7.70160156 -22.88842773 -8.04492188 C-23.62649658 -8.38072266 -24.36456543 -8.71652344 -25.125 -9.0625 C-25.8869165 -9.41248047 -26.64883301 -9.76246094 -27.43383789 -10.12304688 C-37.87412089 -14.83765538 -49.34154534 -19.73165558 -60 -13 Z M-94 -10 C-94.09872903 -8.65523613 -94.13079159 -7.30541294 -94.1328125 -5.95703125 C-94.13410156 -5.13009766 -94.13539063 -4.30316406 -94.13671875 -3.45117188 C-94.13285156 -2.58041016 -94.12898437 -1.70964844 -94.125 -0.8125 C-94.12886719 0.03892578 -94.13273438 0.89035156 -94.13671875 1.76757812 C-94.12972067 6.29183604 -93.91805976 10.54813878 -93 15 C-90.41775224 11.79896476 -87.88945651 8.56238454 -85.39599609 5.29174805 C-81.40579506 0.05911216 -77.3598899 -5.06644037 -73 -10 C-75.27891033 -11.13945516 -76.56782104 -11.12894214 -79.09765625 -11.1328125 C-79.89880859 -11.13410156 -80.69996094 -11.13539062 -81.52539062 -11.13671875 C-82.36263672 -11.13285156 -83.19988281 -11.12898438 -84.0625 -11.125 C-85.32416992 -11.13080078 -85.32416992 -11.13080078 -86.61132812 -11.13671875 C-90.6242087 -11.53603884 -90.6242087 -11.53603884 -94 -10 Z M-110.0625 -6.625 C-111.29097656 -6.18414062 -112.51945313 -5.74328125 -113.78515625 -5.2890625 C-117.07743544 -4.09656964 -117.07743544 -4.09656964 -120 -2 C-120 -1.34 -120 -0.68 -120 0 C-118.38010512 1.20878996 -118.38010512 1.20878996 -116.25 2.4375 C-111.29462126 5.60168292 -107.14927859 9.36351946 -102.89941406 13.39233398 C-100.77843608 15.88548481 -100.77843608 15.88548481 -98 17 C-98.495 4.13 -98.495 4.13 -99 -9 C-103.31091512 -9 -106.03093749 -8.09179351 -110.0625 -6.625 Z M-71.92578125 -4.18359375 C-77.21818469 1.38788181 -82.88665336 7.94766782 -86 15 C-81.75260899 13.69621225 -77.80113345 12.04423641 -73.78076172 10.18164062 C-65.3248733 6.26416203 -57.07441826 3.21754273 -48 1 C-50.89646909 -2.19704607 -53.56636268 -3.99931526 -57.5 -5.75 C-58.4384375 -6.17796875 -59.376875 -6.6059375 -60.34375 -7.046875 C-65.57241784 -8.92304405 -67.96371486 -7.76750196 -71.92578125 -4.18359375 Z M-144.875 3 C-146.41800781 4.23169922 -146.41800781 4.23169922 -147.9921875 5.48828125 C-148.98476563 6.31714844 -149.97734375 7.14601563 -151 8 C-152.30324219 9.07314453 -152.30324219 9.07314453 -153.6328125 10.16796875 C-157.89287798 13.80238105 -160.9819073 17.23707246 -164 22 C-153.88800268 20.66612176 -153.88800268 20.66612176 -145.4375 15.53125 C-144.15360484 13.64682323 -142.9227839 11.7250437 -141.75 9.76953125 C-139.4936554 6.19866446 -136.73380442 3.86678894 -133.46875 1.2421875 C-132.9840625 0.83226563 -132.499375 0.42234375 -132 0 C-132 -0.33 -132 -0.66 -132 -1 C-137.76673879 -1.46018863 -140.38320721 -0.60317254 -144.875 3 Z M-133 7.25 C-133.5465625 7.74113281 -134.093125 8.23226562 -134.65625 8.73828125 C-137.46433126 11.31923829 -139.43071177 13.54127394 -141 17 C-139.93120605 16.98259766 -139.93120605 16.98259766 -138.84082031 16.96484375 C-131.09101986 16.8945052 -123.46762822 17.3257326 -115.75 18 C-114.04263672 18.14308594 -114.04263672 18.14308594 -112.30078125 18.2890625 C-109.53344648 18.52161164 -106.76657835 18.75864653 -104 19 C-110.37969648 12.56521115 -116.84262302 6.15528358 -125 2 C-128.45029833 2 -130.57949113 5.0064623 -133 7.25 Z M-37 5 C-36.66226563 5.64066406 -36.32453125 6.28132813 -35.9765625 6.94140625 C-35.53054688 7.80636719 -35.08453125 8.67132813 -34.625 9.5625 C-34.18414063 10.40941406 -33.74328125 11.25632812 -33.2890625 12.12890625 C-32 15 -32 15 -31.515625 18.61328125 C-30.38188154 22.07375905 -30.38188154 22.07375905 -27.88232422 23.13208008 C-24.98670671 24.10947596 -22.09154589 24.89065376 -19.125 25.625 C-17.01961993 26.20262659 -14.91543289 26.7846204 -12.8125 27.37109375 C-11.80316406 27.64679199 -10.79382812 27.92249023 -9.75390625 28.20654297 C-4.63038623 29.68273446 0.16023995 31.77217394 5 34 C6.749712 34.77148685 8.49969267 35.54236477 10.25 36.3125 C11.50066299 36.87352436 12.75094605 37.43540238 14 38 C12.20434796 27.22608774 7.29210585 15.42670581 -1 8 C-4.56114554 6.15537785 -8.11414996 4.9628655 -12 4 C-13.11955078 3.71189453 -13.11955078 3.71189453 -14.26171875 3.41796875 C-18.23886039 2.81090148 -22.17008462 2.81570624 -26.1875 2.8125 C-27.00669922 2.80025391 -27.82589844 2.78800781 -28.66992188 2.77539062 C-33.31504856 2.54560712 -33.31504856 2.54560712 -37 5 Z M-55.1875 7.5 C-56.3628833 7.89179443 -56.3628833 7.89179443 -57.56201172 8.29150391 C-66.01889796 11.20516417 -74.00540863 15.01282405 -82 19 C-82 19.33 -82 19.66 -82 20 C-80.71706055 19.99214478 -80.71706055 19.99214478 -79.40820312 19.98413086 C-48.0310817 19.81727622 -48.0310817 19.81727622 -35 21 C-36.73098211 14.79379586 -38.73212357 9.89244371 -43 5 C-47.45847588 5 -51.01955428 6.09886834 -55.1875 7.5 Z M-139.75 21.5 C-140.73484375 21.5928125 -141.7196875 21.685625 -142.734375 21.78125 C-143.85585938 21.88953125 -143.85585938 21.88953125 -145 22 C-148.45979635 30.22257241 -148.45979635 30.22257241 -149 39 C-144.58799445 37.61050474 -140.34199788 35.94087232 -136.06933594 34.18164062 C-127.15671779 30.51632218 -118.35870897 27.35517179 -109 25 C-109.495 24.01 -109.495 24.01 -110 23 C-111.96559021 22.5313648 -111.96559021 22.5313648 -114.33203125 22.3671875 C-115.21310547 22.28339844 -116.09417969 22.19960937 -117.00195312 22.11328125 C-118.39317383 21.99533203 -118.39317383 21.99533203 -119.8125 21.875 C-121.18631836 21.74544922 -121.18631836 21.74544922 -122.58789062 21.61328125 C-128.3945476 21.08040523 -133.93092429 20.94580231 -139.75 21.5 Z M15 22 C15.1340625 22.66257813 15.268125 23.32515625 15.40625 24.0078125 C15.85063553 26.24728169 16.26188545 28.49337062 16.65625 30.7421875 C18.36976857 40.16413137 18.36976857 40.16413137 24.4375 47.25 C25.94080086 48.1951446 27.46043221 49.11515944 29 50 C30.66998649 51.32917292 32.33857487 52.66014102 34 54 C33.38750598 49.51688404 31.62406391 45.87307179 29.5 41.9375 C29.15122803 41.28644287 28.80245605 40.63538574 28.44311523 39.96459961 C24.90222574 33.53395565 20.76058005 27.59394198 16 22 C15.67 22 15.34 22 15 22 Z M-161.9375 27.25 C-162.54529297 27.55035156 -163.15308594 27.85070312 -163.77929688 28.16015625 C-170.91209843 31.77657128 -174.69477673 35.30686581 -178.125 42.375 C-178.46974365 43.0752832 -178.8144873 43.77556641 -179.16967773 44.49707031 C-182.53539555 51.63544817 -186.71560727 61.17601263 -184 69 C-183.33355469 68.23816406 -182.66710937 67.47632813 -181.98046875 66.69140625 C-168.23854046 51.21034381 -168.23854046 51.21034381 -159.859375 46.8984375 C-157.64393872 45.75348514 -156.49715352 45.02329605 -155 43 C-153.84367275 38.88433154 -153.09488632 34.84520986 -152.5078125 30.6171875 C-152 27 -152 27 -151 24 C-155.43941791 24 -158.11103892 25.27427194 -161.9375 27.25 Z M-81 25 C-78.50568803 26.66287465 -76.4126173 27.74943086 -73.67578125 28.8828125 C-72.81903809 29.24181641 -71.96229492 29.60082031 -71.07958984 29.97070312 C-70.1664502 30.35162109 -69.25331055 30.73253906 -68.3125 31.125 C-60.05627038 34.60700607 -52.01769644 38.36476217 -44.0546875 42.46875 C-41.06911079 44.05609279 -41.06911079 44.05609279 -38 45 C-35.78796106 39.1151417 -34.05661126 33.34046126 -34 27 C-39.06049976 21.93950024 -56.97774273 23.81305864 -63.625 23.8125 C-64.54821045 23.8117749 -65.4714209 23.8110498 -66.42260742 23.81030273 C-71.38069945 23.85051691 -76.11206218 24.16302435 -81 25 Z M-29 28 C-29.41572266 29.66289063 -29.41572266 29.66289063 -29.83984375 31.359375 C-31.2265625 36.90625 -32.61328125 42.453125 -34 48 C-32.96101562 48.70125 -31.92203125 49.4025 -30.8515625 50.125 C-20.04573571 57.45780343 -9.93502725 65.13711238 -0.2734375 73.9453125 C2.42157001 76.38100658 5.18567675 78.70410471 8 81 C12.56706669 70.81786524 12.56706669 70.81786524 15 60 C15.23009766 58.17855469 15.23009766 58.17855469 15.46484375 56.3203125 C16.1846638 49.19686138 16.1846638 49.19686138 13.328125 42.94921875 C10.63355277 41.27189275 7.95950076 40.15091696 5 39 C3.75124088 38.42256627 2.50662177 37.83612021 1.265625 37.2421875 C-8.07505864 32.8466393 -18.55762086 28 -29 28 Z M-85 30 C-82.67728778 34.22311313 -79.75681117 37.67776743 -76.5625 41.25 C-69.71760522 49.0445124 -63.84330071 57.44225818 -58 66 C-51.75280034 62.99109485 -45.67890529 57.91823895 -42 52 C-41.83177532 49.9879785 -41.83177532 49.9879785 -43 48 C-45.31428981 46.54861403 -47.4742664 45.3894195 -49.9375 44.25 C-50.64390625 43.91145996 -51.3503125 43.57291992 -52.078125 43.22412109 C-54.37740866 42.13135734 -56.68718248 41.0637913 -59 40 C-59.78906738 39.63229492 -60.57813477 39.26458984 -61.39111328 38.88574219 C-63.75560296 37.78716836 -66.12592931 36.70269823 -68.5 35.625 C-69.22823975 35.29145508 -69.95647949 34.95791016 -70.70678711 34.61425781 C-75.40892408 32.52346413 -79.97555723 31.12031494 -85 30 Z M-115.32421875 31.15234375 C-116.18112305 31.43037842 -117.03802734 31.70841309 -117.92089844 31.99487305 C-118.83387695 32.30593994 -119.74685547 32.61700684 -120.6875 32.9375 C-121.61981445 33.25307861 -122.55212891 33.56865723 -123.51269531 33.89379883 C-129.58322269 36.0108097 -135.47079812 38.3692431 -141.25 41.1875 C-141.92248779 41.50775146 -142.59497559 41.82800293 -143.2878418 42.15795898 C-145.76334732 43.42392775 -147.65508505 44.42351671 -149.10546875 46.84765625 C-148.94569416 50.10824136 -147.58690733 52.38784747 -146.0625 55.25 C-145.49660156 56.32765625 -144.93070313 57.4053125 -144.34765625 58.515625 C-143.90292969 59.33546875 -143.45820312 60.1553125 -143 61 C-140.0564107 61.31045086 -140.0564107 61.31045086 -138.421875 59.75 C-137.87015625 59.1725 -137.3184375 58.595 -136.75 58 C-135.82380859 57.03707031 -135.82380859 57.03707031 -134.87890625 56.0546875 C-133.10293216 54.11256198 -131.3910697 52.13062107 -129.6875 50.125 C-123.34647247 42.78874393 -115.88112912 36.61365342 -108 31 C-111.35763646 29.88078785 -112.07978486 30.09852858 -115.32421875 31.15234375 Z M-97 33 C-102.07543304 44.28420029 -107.04748986 55.58378332 -111.1875 67.25 C-111.49051025 68.08821289 -111.79352051 68.92642578 -112.10571289 69.79003906 C-112.37375732 70.56573242 -112.64180176 71.34142578 -112.91796875 72.140625 C-113.15281982 72.81641602 -113.3876709 73.49220703 -113.62963867 74.18847656 C-114.20302013 76.22401317 -114.20302013 76.22401317 -113 79 C-108.56261287 79.84942326 -104.32893048 80.16329619 -99.8125 80.1875 C-97.99685547 80.20876953 -97.99685547 80.20876953 -96.14453125 80.23046875 C-92.83791998 80.24756663 -92.83791998 80.24756663 -90 78 C-91.98 63.15 -93.96 48.3 -96 33 C-96.33 33 -96.66 33 -97 33 Z M-91 33 C-90.48944044 47.78069926 -88.11831739 62.38375721 -86 77 C-78.06029897 79.3431232 -68.93366995 73.73351459 -62 70 C-63.45654794 65.68607112 -65.76080465 62.40193997 -68.5625 58.875 C-69.2263269 58.02675659 -69.2263269 58.02675659 -69.90356445 57.16137695 C-79.5537324 44.74017662 -79.5537324 44.74017662 -90 33 C-90.33 33 -90.66 33 -91 33 Z M-105 34 C-105.6290625 34.56847656 -106.258125 35.13695312 -106.90625 35.72265625 C-110.90695975 39.33173026 -114.90779665 42.93229303 -119 46.4375 C-126.10336735 52.64754326 -132.82896435 59.07107867 -138 67 C-136.71745222 67.92938245 -135.42319906 68.84260827 -134.125 69.75 C-133.04605469 70.51570313 -133.04605469 70.51570313 -131.9453125 71.296875 C-127.81860303 73.68314201 -123.45012254 75.31347825 -119 77 C-118.72849121 76.2251123 -118.45698242 75.45022461 -118.17724609 74.65185547 C-108.19553663 46.23587595 -108.19553663 46.23587595 -103 35 C-103.66 34.67 -104.32 34.34 -105 34 Z M20 49 C19.91363281 50.13695312 19.82726563 51.27390625 19.73828125 52.4453125 C18.94087339 61.6010679 17.57117095 69.51314514 14.12109375 78.08203125 C13.75113281 79.04496094 13.38117188 80.00789063 13 81 C12.68289063 81.81984375 12.36578125 82.6396875 12.0390625 83.484375 C11.97773455 87.43389505 14.46021031 89.61626393 16.9375 92.4375 C23.64793767 100.4919637 29.30182021 109.11978832 33 119 C36.58292058 116.27614225 37.40461984 112.37819957 38.625 108.25 C38.8415625 107.5590625 39.058125 106.868125 39.28125 106.15625 C42.96315348 94.06506079 44.05257966 81.37873268 38.54296875 69.7421875 C34.04809711 61.75383335 27.76260138 55.13858452 21 49 C20.67 49 20.34 49 20 49 Z M-173.4375 64.125 C-180.84760079 71.28347826 -180.84760079 71.28347826 -184.625 80.5625 C-183.78018635 92.05641202 -177.65681211 101.98109327 -171 111 C-168.02473305 107.47140596 -166.34481907 103.49320509 -164.5 99.3125 C-159.3983543 88.09864338 -152.87423477 77.49323631 -145 68 C-146.19547731 64.63092759 -147.74461422 61.60169936 -149.5 58.5 C-151.25538578 55.39830064 -152.80452269 52.36907241 -154 49 C-159.77604441 49 -169.45897768 60.14710235 -173.4375 64.125 Z M-37 53 C-38.81536479 54.85985902 -40.54119571 56.73359911 -42.25 58.6875 C-45.91781468 62.86840233 -49.6457225 66.52817223 -54 70 C-50.65590994 76.18913054 -47.06050547 82.15131534 -43.25 88.0625 C-38.47884902 95.52935868 -34.01099389 103.11159163 -29.7421875 110.875 C-28.03815554 114.02871404 -28.03815554 114.02871404 -26 117 C-21.49785627 116.11650989 -18.69782881 113.57110176 -15.3125 110.625 C-14.6932666 110.08987793 -14.0740332 109.55475586 -13.43603516 109.00341797 C-6.17110329 102.58118041 -0.12306982 95.24146014 5 87 C3.3777733 82.72882083 0.16336279 80.01380746 -3.125 77 C-3.73811035 76.43474609 -4.3512207 75.86949219 -4.98291016 75.28710938 C-19.53803536 60.99184815 -19.53803536 60.99184815 -37 53 Z M-142 71 C-156.98132625 92.04233044 -156.98132625 92.04233044 -166 116 C-157.54640165 124.40887031 -142.63688237 136 -130 136 C-129.85751831 134.90051025 -129.85751831 134.90051025 -129.7121582 133.77880859 C-127.89832637 119.97646335 -125.96157911 106.33951192 -122.48754883 92.84326172 C-120.7333759 86.83219333 -120.7333759 86.83219333 -122 81 C-124.44693137 79.24805506 -127.07366689 78.04174006 -129.8125 76.8125 C-130.53759766 76.47025391 -131.26269531 76.12800781 -132.00976562 75.77539062 C-133.36693768 75.13591797 -134.72768168 74.50393147 -136.09301758 73.88208008 C-138.08343893 72.96140509 -140.04301116 71.98949485 -142 71 Z M-65.9375 76.8125 C-71.85947718 79.60202823 -77.64938107 81.4918179 -84 83 C-83.53692615 93.33646977 -81.86526579 103.32157725 -79.98876953 113.47851562 C-79.49469375 116.15373115 -79.01026234 118.83056252 -78.52734375 121.5078125 C-78.2166941 123.21624562 -77.90551596 124.92458274 -77.59375 126.6328125 C-77.44893188 127.42962433 -77.30411377 128.22643616 -77.15490723 129.0473938 C-76.58691584 132.1132013 -75.98739358 135.03781926 -75 138 C-60.40967485 137.23208815 -41.38913481 130.47623103 -30 121 C-34.76573781 108.08234226 -42.95141817 96.27408684 -50.5 84.875 C-51.20656738 83.80145264 -51.91313477 82.72790527 -52.64111328 81.62182617 C-53.3061084 80.63029541 -53.97110352 79.63876465 -54.65625 78.6171875 C-55.25244141 77.72628418 -55.84863281 76.83538086 -56.46289062 75.91748047 C-56.97013672 75.28471191 -57.47738281 74.65194336 -58 74 C-61.04279691 74 -63.21725128 75.48310377 -65.9375 76.8125 Z M-191 76 C-190 79 -190 79 -190 79 Z M-116 83 C-120.40907285 101.15179014 -120.40907285 101.15179014 -123.875 119.5 C-123.99464111 120.22034424 -124.11428223 120.94068848 -124.23754883 121.68286133 C-125.06147947 127.134504 -125.11530816 132.4936797 -125 138 C-109.08212816 140.70449588 -109.08212816 140.70449588 -93 141 C-91.50146484 140.90138672 -91.50146484 140.90138672 -89.97265625 140.80078125 C-84.82015758 140.55366336 -84.82015758 140.55366336 -80 139 C-81.73582696 127.37269296 -83.68393972 115.78190401 -85.625 104.1875 C-85.95320113 102.22332001 -86.2813267 100.2591274 -86.609375 98.29492188 C-87.40537965 93.52980201 -88.20240422 88.76485379 -89 84 C-90.918125 84.01740234 -90.918125 84.01740234 -92.875 84.03515625 C-94.58333186 84.04454269 -96.29166532 84.05364197 -98 84.0625 C-98.83917969 84.07087891 -99.67835938 84.07925781 -100.54296875 84.08789062 C-105.79319339 84.10824033 -110.80455662 83.76368207 -116 83 Z M-189 87 C-195.10769615 101.79662104 -192.85284586 120.70288346 -187.07373047 135.34716797 C-183.11968833 144.39385329 -183.11968833 144.39385329 -177 152 C-176.95512451 151.43716309 -176.91024902 150.87432617 -176.86401367 150.29443359 C-176.64794751 147.65374457 -176.418868 145.01439218 -176.1875 142.375 C-176.10709473 141.41674316 -176.02668945 140.45848633 -175.94384766 139.47119141 C-175.42457791 133.8367836 -174.48833614 128.78904189 -172.875 123.375 C-171.92972009 119.41605544 -171.63794116 117.75412256 -173.4140625 114.0546875 C-175.46957899 111.22146077 -175.46957899 111.22146077 -177.79296875 108.5859375 C-183.05344531 102.42233488 -185.71842136 94.67945983 -188 87 C-188.33 87 -188.66 87 -189 87 Z M8 91 C7.10861328 92.21623047 7.10861328 92.21623047 6.19921875 93.45703125 C-2.27638682 104.85131962 -11.20303195 114.00729417 -23 122 C-22.73372803 122.59723877 -22.46745605 123.19447754 -22.19311523 123.80981445 C-16.30990012 137.05116304 -10.81611352 150.33308183 -6 164 C-1.0396405 162.46285438 2.29192007 159.548673 6.125 156.1875 C6.78226074 155.61362549 7.43952148 155.03975098 8.11669922 154.44848633 C14.42652743 148.81750542 19.85731594 142.69972508 25 136 C25.60070313 135.22527344 26.20140625 134.45054687 26.8203125 133.65234375 C29.17550677 130.31260106 30.05274091 128.97512087 29.82421875 124.75 C28.90491312 120.56737724 27.50283224 117.16723362 25.5625 113.375 C25.21485596 112.68784912 24.86721191 112.00069824 24.5090332 111.29272461 C21.94923132 106.41340122 19.03527535 101.93593727 15.6875 97.5625 C15.26734619 97.01319824 14.84719238 96.46389648 14.41430664 95.89794922 C12.32681371 93.28826848 11.23876748 92.07958916 8 91 Z M42 112 C43 114 43 114 43 114 Z M41 115 C37.11716499 122.18794717 35.27557381 126.90846172 37 135 C39.05449993 131.9182501 39.74475809 129.6904243 40.625 126.125 C40.88539063 125.09632813 41.14578125 124.06765625 41.4140625 123.0078125 C41.95301116 120.24120939 42.11394368 117.80715804 42 115 C41.67 115 41.34 115 41 115 Z M-168 122 C-172.63287086 132.7646117 -173.39574268 145.86513371 -171.5 157.375 C-166.0777616 170.47874279 -149.47682923 177.73796703 -137.05859375 182.90625 C-134.3512263 183.87440184 -131.81610536 184.47352498 -129 185 C-129.06566162 184.1735498 -129.13132324 183.34709961 -129.19897461 182.49560547 C-129.89120101 173.37398123 -130.28880249 164.26918889 -130.5625 155.125 C-130.60586532 153.74348157 -130.64948404 152.36197107 -130.69335938 150.98046875 C-130.79804744 147.65371459 -130.90022495 144.3269045 -131 141 C-131.98097656 140.67128906 -132.96195313 140.34257812 -133.97265625 140.00390625 C-146.17744701 135.75942403 -156.91320148 130.15057577 -167 122 C-167.33 122 -167.66 122 -168 122 Z M-33.44287109 128.48974609 C-40.3416887 132.44814314 -47.32150978 135.38798136 -54.875 137.875 C-56.17497925 138.30341187 -56.17497925 138.30341187 -57.5012207 138.74047852 C-62.95088749 140.47818181 -68.40040424 141.83483159 -74 143 C-71.09678407 158.12286109 -67.91114032 173.10438048 -64 188 C-56.91333787 187.57070546 -50.63788629 186.25513196 -43.9375 183.9375 C-42.58483032 183.47766724 -42.58483032 183.47766724 -41.20483398 183.00854492 C-30.25923778 179.18476006 -19.53870909 174.6490847 -10 168 C-11.38835456 160.55407611 -13.85250402 153.95751632 -16.8125 147 C-17.23853516 145.97132813 -17.66457031 144.94265625 -18.10351562 143.8828125 C-20.70811797 137.6885086 -23.58859807 131.79015339 -27 126 C-29.63659904 126 -31.20942068 127.19804275 -33.44287109 128.48974609 Z M31 135 C30.42894531 135.78761719 29.85789062 136.57523438 29.26953125 137.38671875 C19.75770782 150.26340461 9.03813123 160.73193081 -4 170 C-3.01 176.27 -2.02 182.54 -1 189 C13.44497625 181.77751187 26.4502508 164.39718484 32.0078125 149.25390625 C32.97252216 145.22522438 33.40235613 141.12415029 33 137 C32.34 136.34 31.68 135.68 31 135 Z M-126 143 C-126.32275808 157.97431982 -126.4673565 172.36693003 -123 187 C-121.00127261 187.48444764 -119.00094063 187.9622766 -117 188.4375 C-115.88625 188.70433594 -114.7725 188.97117187 -113.625 189.24609375 C-105.70602567 190.89303561 -98.12775957 191.15507555 -90.0625 191.125 C-89.02931641 191.12886719 -87.99613281 191.13273437 -86.93164062 191.13671875 C-80.87180346 191.12904321 -75.00865426 190.78945822 -69 190 C-69.62813921 184.37450576 -70.56898519 178.93362448 -71.8125 173.4140625 C-71.98628174 172.63106781 -72.16006348 171.84807312 -72.33911133 171.04135132 C-72.70377914 169.40233163 -73.07025608 167.76371349 -73.43847656 166.12548828 C-74.00290587 163.61206002 -74.56044182 161.09717143 -75.1171875 158.58203125 C-75.47355358 156.98428467 -75.83031033 155.38662516 -76.1875 153.7890625 C-76.35419189 153.03702545 -76.52088379 152.2849884 -76.69262695 151.51016235 C-77.53764314 147.65127811 -77.53764314 147.65127811 -79 144 C-80.18142578 144.10828125 -80.18142578 144.10828125 -81.38671875 144.21875 C-96.50601203 145.50702114 -110.95422035 144.60465555 -126 143 Z M-14.16601562 175.8449707 C-29.36726672 184.22346752 -45.03583642 189.5029061 -62 193 C-60.63125844 199.95776959 -58.5466871 206.38603107 -56 213 C-49.29198235 212.45903083 -43.36769451 211.15203108 -37 209 C-35.64491333 208.54620972 -35.64491333 208.54620972 -34.26245117 208.08325195 C-25.21957035 204.93034581 -13.88574657 200.88574657 -7 194 C-5.26108179 186.83397416 -6.37335591 180.07119661 -8 173 C-10.2527836 173 -12.23286446 174.76962028 -14.16601562 175.8449707 Z M-163 175 C-157.16327275 188.59833265 -137.28259148 200.56532077 -124 206 C-123.01 205.67 -122.02 205.34 -121 205 C-122.29600154 199.336866 -123.7515847 193.06252518 -128.92333984 189.77880859 C-132.86005199 188.02539544 -136.94084575 186.8306034 -141.0625 185.59375 C-147.05116035 183.79250952 -152.00481704 180.84375563 -157.3125 177.6015625 C-159.95808634 175.89508065 -159.95808634 175.89508065 -163 175 Z M-121 193 C-118.33795999 200.46307992 -115.58711394 207.35011114 -108.3125 211.375 C-99.04923183 215.17440522 -89.34642501 215.29851988 -79.46264648 215.20581055 C-77.40921938 215.1872443 -75.35623771 215.18530366 -73.30273438 215.18554688 C-66.96563934 215.51583029 -66.96563934 215.51583029 -61 214 C-61.18175781 213.39414062 -61.36351562 212.78828125 -61.55078125 212.1640625 C-64.27539062 203.08203125 -64.27539062 203.08203125 -67 194 C-67.57685547 194.07001221 -68.15371094 194.14002441 -68.74804688 194.2121582 C-75.6773458 194.98656898 -82.53077895 195.19164157 -89.5 195.1875 C-90.62970215 195.18814453 -91.7594043 195.18878906 -92.92333984 195.18945312 C-102.38953016 195.13039849 -111.63796382 194.35471325 -121 193 Z " fill="#4E4E50" transform="translate(1039,93)"/>
<path d="M0 0 C18.15 0 36.3 0 55 0 C55 88.44 55 176.88 55 268 C36.85 268 18.7 268 0 268 C0 179.56 0 91.12 0 0 Z " fill="#040707" transform="translate(473,54)"/>
</svg>
