<?xml version="1.0" encoding="UTF-8"?>
<svg version="1.1" xmlns="http://www.w3.org/2000/svg" width="150" height="150">
<path d="M0 0 C12.49856783 12.79150301 17.38157264 29.85554114 17.22485352 47.28027344 C16.86276065 60.93983056 12.45836742 71.5903608 5.57421875 83.25 C4.53649988 85.2990319 4.53649988 85.2990319 6.25 88.296875 C6.78625 89.204375 7.3225 90.111875 7.875 91.046875 C8.865 89.066875 9.855 87.086875 10.875 85.046875 C14.175 85.046875 17.475 85.046875 20.875 85.046875 C18.19642857 93.61830357 18.19642857 93.61830357 15.75 97.609375 C12.47674859 103.71861141 13.03922532 111.28079197 12.875 118.046875 C9.905 118.046875 6.935 118.046875 3.875 118.046875 C3.87242188 117.09167969 3.86984375 116.13648438 3.8671875 115.15234375 C3.59326503 105.99420259 2.15549042 99.81420189 -3.125 92.046875 C-3.74375 93.119375 -4.3625 94.191875 -5 95.296875 C-8.29158401 99.95995234 -12.7454992 101.57890953 -18.125 103.046875 C-19.115 103.046875 -20.105 103.046875 -21.125 103.046875 C-21.125 107.996875 -21.125 112.946875 -21.125 118.046875 C-24.755 118.046875 -28.385 118.046875 -32.125 118.046875 C-32.455 114.746875 -32.785 111.446875 -33.125 108.046875 C-35.105 108.376875 -37.085 108.706875 -39.125 109.046875 C-39.455 112.016875 -39.785 114.986875 -40.125 118.046875 C-43.095 118.046875 -46.065 118.046875 -49.125 118.046875 C-49.125 115.076875 -49.125 112.106875 -49.125 109.046875 C-50.094375 109.088125 -51.06375 109.129375 -52.0625 109.171875 C-56.57389724 109.19036433 -60.77337652 108.15204922 -65.125 107.046875 C-65.455 108.366875 -65.785 109.686875 -66.125 111.046875 C-62.495 111.046875 -58.865 111.046875 -55.125 111.046875 C-55.125 113.356875 -55.125 115.666875 -55.125 118.046875 C-61.725 118.046875 -68.325 118.046875 -75.125 118.046875 C-75.62 110.621875 -75.62 110.621875 -76.125 103.046875 C-76.455 107.996875 -76.785 112.946875 -77.125 118.046875 C-80.425 118.046875 -83.725 118.046875 -87.125 118.046875 C-87.62 108.641875 -87.62 108.641875 -88.125 99.046875 C-89.775 102.016875 -91.425 104.986875 -93.125 108.046875 C-94.445 107.716875 -95.765 107.386875 -97.125 107.046875 C-99.105 103.581875 -99.105 103.581875 -101.125 100.046875 C-101.455 105.986875 -101.785 111.926875 -102.125 118.046875 C-105.755 118.046875 -109.385 118.046875 -113.125 118.046875 C-113.125 104.186875 -113.125 90.326875 -113.125 76.046875 C-110.155 76.046875 -107.185 76.046875 -104.125 76.046875 C-104.46273437 75.28503906 -104.80046875 74.52320312 -105.1484375 73.73828125 C-105.59445313 72.70574219 -106.04046875 71.67320313 -106.5 70.609375 C-107.16128906 69.09537109 -107.16128906 69.09537109 -107.8359375 67.55078125 C-110.62881457 59.95923357 -111.48922635 52.79703534 -111.4375 44.734375 C-111.43186035 43.81084229 -111.4262207 42.88730957 -111.42041016 41.93579102 C-111.10995258 24.43797172 -104.16182758 10.38386939 -92.03515625 -2.10546875 C-64.98776577 -27.58772994 -26.22541921 -24.1042456 0 0 Z M-97.125 86.046875 C-96.795 87.366875 -96.465 88.686875 -96.125 90.046875 C-95.465 90.046875 -94.805 90.046875 -94.125 90.046875 C-94.785 88.726875 -95.445 87.406875 -96.125 86.046875 C-96.455 86.046875 -96.785 86.046875 -97.125 86.046875 Z " fill="#C6CED8" transform="translate(122.125,24.953125)"/>
<path d="M0 0 C9.53424658 2.22465753 9.53424658 2.22465753 12 4 C12.103125 4.61875 12.20625 5.2375 12.3125 5.875 C12.6528125 6.926875 12.6528125 6.926875 13 8 C14.093125 8.556875 15.18625 9.11375 16.3125 9.6875 C20.49918687 11.83649469 21.53758836 14.61763648 23.15625 18.89453125 C23.93751777 21.13819 23.93751777 21.13819 25.75 23.1875 C27.58358953 25.84620482 27.25360221 27.82997232 27 31 C26.731875 31.928125 26.46375 32.85625 26.1875 33.8125 C25.89960213 38.70676373 28.11770492 42.13910075 31 46 C33.58443323 47.73490246 33.58443323 47.73490246 36 49 C37.3125 51.6875 37.3125 51.6875 38 54 C38.495 53.01 38.495 53.01 39 52 C39.99 52.33 40.98 52.66 42 53 C42 53.99 42 54.98 42 56 C42.99 56.33 43.98 56.66 45 57 C46.70884005 58.62339805 48.37446717 60.29319053 50 62 C50.598125 62.53625 51.19625 63.0725 51.8125 63.625 C53 65 53 65 53 68 C56.3 68 59.6 68 63 68 C63 68.33 63 68.66 63 69 C59.37 69 55.74 69 52 69 C52 70.32 52 71.64 52 73 C54.31 73 56.62 73 59 73 C59 81.58 59 90.16 59 99 C60.98 99 62.96 99 65 99 C65 91.08 65 83.16 65 75 C71 74 71 74 73 75 C73 75.66 73 76.32 73 77 C73.66 77 74.32 77 75 77 C75 83.93 75 90.86 75 98 C77.64 98 80.28 98 83 98 C83 92.72 83 87.44 83 82 C85.59875 81.62875 85.59875 81.62875 88.25 81.25 C91.48456195 80.63389296 93.80195407 80.11053727 96.6875 78.5 C98.81601603 74.44568375 98.7297068 70.46759264 98 66 C95.47980364 62.12277483 92.368381 61.19137664 88 60 C88.66 59.67 89.32 59.34 90 59 C89.34 58.01 88.68 57.02 88 56 C87.5 53.625 87.5 53.625 88 51 C89.84243097 48.92585226 91.69113378 47.61620636 94 46 C94.66 46 95.32 46 96 46 C96.04125 44.9275 96.0825 43.855 96.125 42.75 C97 39 97 39 99.9375 36.8125 C101.4534375 35.9153125 101.4534375 35.9153125 103 35 C103.350625 34.29875 103.70125 33.5975 104.0625 32.875 C105 31 105 31 107.625 29.75 C108.40875 29.5025 109.1925 29.255 110 29 C109.505 30.485 109.505 30.485 109 32 C111.31 30.68 113.62 29.36 116 28 C115.360625 27.896875 114.72125 27.79375 114.0625 27.6875 C113.381875 27.460625 112.70125 27.23375 112 27 C111.505 25.515 111.505 25.515 111 24 C111.33 23.34 111.66 22.68 112 22 C110.68 22 109.36 22 108 22 C108 21.34 108 20.68 108 20 C108.61488281 19.93941406 109.22976562 19.87882812 109.86328125 19.81640625 C110.67152344 19.73261719 111.47976562 19.64882813 112.3125 19.5625 C113.11300781 19.48128906 113.91351563 19.40007813 114.73828125 19.31640625 C117.16087179 19.04734307 117.16087179 19.04734307 120 18 C119.67 20.31 119.34 22.62 119 25 C120.32 25 121.64 25 123 25 C123.73533778 40.36038918 119.40921949 52.14474537 111.69921875 65.203125 C110.66149988 67.2521569 110.66149988 67.2521569 112.375 70.25 C112.91125 71.1575 113.4475 72.065 114 73 C114.99 71.02 115.98 69.04 117 67 C120.3 67 123.6 67 127 67 C124.32142857 75.57142857 124.32142857 75.57142857 121.875 79.5625 C118.60174859 85.67173641 119.16422532 93.23391697 119 100 C116.03 100 113.06 100 110 100 C109.99742188 99.04480469 109.99484375 98.08960938 109.9921875 97.10546875 C109.71826503 87.94732759 108.28049042 81.76732689 103 74 C102.38125 75.0725 101.7625 76.145 101.125 77.25 C97.83341599 81.91307734 93.3795008 83.53203453 88 85 C87.01 85 86.02 85 85 85 C85 89.95 85 94.9 85 100 C81.37 100 77.74 100 74 100 C73.67 96.7 73.34 93.4 73 90 C71.02 90.33 69.04 90.66 67 91 C66.67 93.97 66.34 96.94 66 100 C63.03 100 60.06 100 57 100 C57 97.03 57 94.06 57 91 C56.030625 91.04125 55.06125 91.0825 54.0625 91.125 C49.55110276 91.14348933 45.35162348 90.10517422 41 89 C40.505 90.98 40.505 90.98 40 93 C43.63 93 47.26 93 51 93 C51 95.31 51 97.62 51 100 C44.4 100 37.8 100 31 100 C30.505 92.575 30.505 92.575 30 85 C29.67 89.95 29.34 94.9 29 100 C25.7 100 22.4 100 19 100 C18.505 90.595 18.505 90.595 18 81 C16.35 83.97 14.7 86.94 13 90 C11.68 89.67 10.36 89.34 9 89 C7.02 85.535 7.02 85.535 5 82 C4.67 87.94 4.34 93.88 4 100 C0.37 100 -3.26 100 -7 100 C-7 86.14 -7 72.28 -7 58 C-4.03 58 -1.06 58 2 58 C1.66226562 57.23816406 1.32453125 56.47632813 0.9765625 55.69140625 C0.53054687 54.65886719 0.08453125 53.62632813 -0.375 52.5625 C-0.81585937 51.55316406 -1.25671875 50.54382813 -1.7109375 49.50390625 C-4.5042583 41.91115244 -5.36131133 34.75098394 -5.3125 26.6875 C-5.30976074 25.76976807 -5.30702148 24.85203613 -5.30419922 23.90649414 C-5.17374789 15.41291293 -4.02383406 7.57530499 0 0 Z M9 68 C9.33 69.32 9.66 70.64 10 72 C10.66 72 11.32 72 12 72 C11.34 70.68 10.68 69.36 10 68 C9.67 68 9.34 68 9 68 Z " fill="#2B4F67" transform="translate(16,43)"/>
<path d="M0 0 C10.58460677 9.54007321 17.30331311 21.22495259 20.375 35.140625 C18.395 35.470625 16.415 35.800625 14.375 36.140625 C14.705 35.150625 15.035 34.160625 15.375 33.140625 C14.92511719 32.73199219 14.47523438 32.32335938 14.01171875 31.90234375 C12.2584417 30.01516487 11.29017671 28.27254842 10.1875 25.953125 C9.84332031 25.23769531 9.49914062 24.52226563 9.14453125 23.78515625 C8.89058594 23.24246094 8.63664062 22.69976562 8.375 22.140625 C7.385 23.130625 6.395 24.120625 5.375 25.140625 C4.055 24.480625 2.735 23.820625 1.375 23.140625 C1.375 21.820625 1.375 20.500625 1.375 19.140625 C0.4159375 18.955 0.4159375 18.955 -0.5625 18.765625 C-1.243125 18.559375 -1.92375 18.353125 -2.625 18.140625 C-2.955 17.480625 -3.285 16.820625 -3.625 16.140625 C-6.65434491 15.48290072 -6.65434491 15.48290072 -9.625 15.140625 C-9.66625 16.419375 -9.7075 17.698125 -9.75 19.015625 C-9.77320312 19.73492187 -9.79640625 20.45421875 -9.8203125 21.1953125 C-9.80831689 23.37926145 -9.80831689 23.37926145 -7.625 25.140625 C-7.95471479 28.43777293 -8.2476839 29.7633089 -10.625 32.140625 C-10.79177282 35.72406476 -10.79177282 35.72406476 -10.625 39.140625 C-12.4375 39.078125 -12.4375 39.078125 -14.625 38.140625 C-15.35464119 36.48234956 -16.07495771 34.81845363 -16.71875 33.125 C-18.33426763 29.58757347 -20.71739386 26.70658742 -23.625 24.140625 C-26.33308151 23.10809564 -26.33308151 23.10809564 -28.625 23.140625 C-29.285 24.790625 -29.945 26.440625 -30.625 28.140625 C-31.615 27.810625 -32.605 27.480625 -33.625 27.140625 C-35.09417359 19.91718818 -35.09417359 19.91718818 -32.8125 16.140625 C-30.625 14.140625 -30.625 14.140625 -28.625 14.140625 C-28.3775 13.50125 -28.13 12.861875 -27.875 12.203125 C-26.625 10.140625 -26.625 10.140625 -24.5 9.390625 C-23.571875 9.266875 -23.571875 9.266875 -22.625 9.140625 C-22.625 10.130625 -22.625 11.120625 -22.625 12.140625 C-21.84125 11.79 -21.0575 11.439375 -20.25 11.078125 C-19.38375 10.76875 -18.5175 10.459375 -17.625 10.140625 C-16.965 10.470625 -16.305 10.800625 -15.625 11.140625 C-15.625 10.480625 -15.625 9.820625 -15.625 9.140625 C-16.945 8.810625 -18.265 8.480625 -19.625 8.140625 C-19.625 7.480625 -19.625 6.820625 -19.625 6.140625 C-18.965 6.140625 -18.305 6.140625 -17.625 6.140625 C-17.625 3.500625 -17.625 0.860625 -17.625 -1.859375 C-18.615 -2.354375 -18.615 -2.354375 -19.625 -2.859375 C-20.058125 -2.034375 -20.49125 -1.209375 -20.9375 -0.359375 C-21.494375 0.465625 -22.05125 1.290625 -22.625 2.140625 C-23.615 2.140625 -24.605 2.140625 -25.625 2.140625 C-26.12 0.160625 -26.12 0.160625 -26.625 -1.859375 C-26.625 -1.199375 -26.625 -0.539375 -26.625 0.140625 C-27.285 0.140625 -27.945 0.140625 -28.625 0.140625 C-28.625 -0.849375 -28.625 -1.839375 -28.625 -2.859375 C-29.615 -3.189375 -30.605 -3.519375 -31.625 -3.859375 C-32.8125 -5.921875 -32.8125 -5.921875 -33.625 -7.859375 C-33.13 -3.899375 -33.13 -3.899375 -32.625 0.140625 C-34.605 1.130625 -34.605 1.130625 -36.625 2.140625 C-36.295 0.160625 -35.965 -1.819375 -35.625 -3.859375 C-36.615 -3.199375 -37.605 -2.539375 -38.625 -1.859375 C-38.625 -0.869375 -38.625 0.120625 -38.625 1.140625 C-46.05357143 1.28348214 -46.05357143 1.28348214 -49.625 0.140625 C-49.625 1.460625 -49.625 2.780625 -49.625 4.140625 C-53.255 3.480625 -56.885 2.820625 -60.625 2.140625 C-60.295 1.150625 -59.965 0.160625 -59.625 -0.859375 C-60.66140625 -0.859375 -61.6978125 -0.859375 -62.765625 -0.859375 C-68.05208333 -0.859375 -73.33854167 -0.859375 -78.625 -0.859375 C-80.25014468 0.59895858 -80.25014468 0.59895858 -81.625 2.140625 C-82.285 2.140625 -82.945 2.140625 -83.625 2.140625 C-83.955 1.150625 -84.285 0.160625 -84.625 -0.859375 C-58.02780763 -19.03088745 -25.92962673 -21.87812256 0 0 Z " fill="#2C5168" transform="translate(117.625,20.859375)"/>
<path d="M0 0 C0.66 0 1.32 0 2 0 C1.67 2.31 1.34 4.62 1 7 C2.32 7 3.64 7 5 7 C5.73533778 22.36038918 1.40921949 34.14474537 -6.30078125 47.203125 C-7.33850012 49.2521569 -7.33850012 49.2521569 -5.625 52.25 C-5.08875 53.1575 -4.5525 54.065 -4 55 C-3.01 53.02 -2.02 51.04 -1 49 C2.3 49 5.6 49 9 49 C6.32142857 57.57142857 6.32142857 57.57142857 3.875 61.5625 C0.60174859 67.67173641 1.16422532 75.23391697 1 82 C-1.97 82 -4.94 82 -8 82 C-8.00257812 81.04480469 -8.00515625 80.08960938 -8.0078125 79.10546875 C-8.28173497 69.94732759 -9.71950958 63.76732689 -15 56 C-15.928125 57.60875 -15.928125 57.60875 -16.875 59.25 C-20.16797258 63.9016776 -24.60336878 65.58722337 -30 67 C-31.32 67 -32.64 67 -34 67 C-34 71.62 -34 76.24 -34 81 C-36.64 81 -39.28 81 -42 81 C-42 80.67 -42 80.34 -42 80 C-39.69 80 -37.38 80 -35 80 C-35 74.72 -35 69.44 -35 64 C-32.40125 63.62875 -32.40125 63.62875 -29.75 63.25 C-26.51543805 62.63389296 -24.19804593 62.11053727 -21.3125 60.5 C-19.18398397 56.44568375 -19.2702932 52.46759264 -20 48 C-22.52019636 44.12277483 -25.631619 43.19137664 -30 42 C-29.01 41.505 -29.01 41.505 -28 41 C-28.66 40.01 -29.32 39.02 -30 38 C-30.5 35.625 -30.5 35.625 -30 33 C-28.15756903 30.92585226 -26.30886622 29.61620636 -24 28 C-23.34 28 -22.68 28 -22 28 C-21.95875 26.9275 -21.9175 25.855 -21.875 24.75 C-21 21 -21 21 -18.0625 18.8125 C-16.5465625 17.9153125 -16.5465625 17.9153125 -15 17 C-14.649375 16.29875 -14.29875 15.5975 -13.9375 14.875 C-13 13 -13 13 -10.375 11.75 C-9.59125 11.5025 -8.8075 11.255 -8 11 C-8.33 11.99 -8.66 12.98 -9 14 C-5.535 12.02 -5.535 12.02 -2 10 C-2.9590625 9.8453125 -2.9590625 9.8453125 -3.9375 9.6875 C-4.618125 9.460625 -5.29875 9.23375 -6 9 C-6.495 7.515 -6.495 7.515 -7 6 C-6.67 5.34 -6.34 4.68 -6 4 C-7.32 4 -8.64 4 -10 4 C-10 3.34 -10 2.68 -10 2 C-9.04287109 1.90912109 -9.04287109 1.90912109 -8.06640625 1.81640625 C-7.24011719 1.73261719 -6.41382813 1.64882813 -5.5625 1.5625 C-4.73878906 1.48128906 -3.91507813 1.40007813 -3.06640625 1.31640625 C-1.01337975 1.21069185 -1.01337975 1.21069185 0 0 Z " fill="#294E66" transform="translate(134,61)"/>
<path d="M0 0 C2.64 0 5.28 0 8 0 C9.17154293 2.28929053 10.33738074 4.58118362 11.5 6.875 C11.83386719 7.52597656 12.16773438 8.17695312 12.51171875 8.84765625 C15 13.7734375 15 13.7734375 15 16 C15.66 16 16.32 16 17 16 C17.26554687 15.29488281 17.53109375 14.58976562 17.8046875 13.86328125 C19.06498967 10.84432214 20.53957994 8.04814924 22.125 5.1875 C22.66382812 4.21167969 23.20265625 3.23585938 23.7578125 2.23046875 C24.16773437 1.49441406 24.57765625 0.75835937 25 0 C27.31 0 29.62 0 32 0 C32 12.54 32 25.08 32 38 C29.69 38 27.38 38 25 38 C24.505 26.615 24.505 26.615 24 15 C21.69 19.29 19.38 23.58 17 28 C13 24 13 24 8 14 C7.67 21.92 7.34 29.84 7 38 C4.69 38 2.38 38 0 38 C0 25.46 0 12.92 0 0 Z " fill="#F6F8F8" transform="translate(11,103)"/>
<path d="M0 0 C-0.01160156 0.66386719 -0.02320313 1.32773438 -0.03515625 2.01171875 C-0.11893409 8.56306787 -0.11893409 8.56306787 1 15 C-0.98 15.99 -0.98 15.99 -3 17 C-2.67 15.02 -2.34 13.04 -2 11 C-2.99 11.66 -3.98 12.32 -5 13 C-5 13.99 -5 14.98 -5 16 C-12.42857143 16.14285714 -12.42857143 16.14285714 -16 15 C-16 16.32 -16 17.64 -16 19 C-19.63 18.34 -23.26 17.68 -27 17 C-26.67 16.01 -26.34 15.02 -26 14 C-27.03640625 14 -28.0728125 14 -29.140625 14 C-34.42708333 14 -39.71354167 14 -45 14 C-46.62514468 15.45833358 -46.62514468 15.45833358 -48 17 C-48.66 17 -49.32 17 -50 17 C-50.33 16.01 -50.66 15.02 -51 14 C-34.70899025 2.86979188 -20.10145901 -2.43454659 0 0 Z " fill="#264B63" transform="translate(84,6)"/>
<path d="M0 0 C16 0 16 0 22 4 C23.85855282 7.71710563 23.57908439 11.95277281 23 16 C20.47323961 19.34625024 18.96066458 20.67977847 15 22 C12.36 22 9.72 22 7 22 C7 27.28 7 32.56 7 38 C4.69 38 2.38 38 0 38 C0 25.46 0 12.92 0 0 Z " fill="#F4F6F7" transform="translate(92,103)"/>
<path d="M0 0 C0.12375 0.639375 0.2475 1.27875 0.375 1.9375 C0.58125 2.618125 0.7875 3.29875 1 4 C1.66 4.33 2.32 4.66 3 5 C-0.96 5 -4.92 5 -9 5 C-9 17.54 -9 30.08 -9 43 C-9.33 43 -9.66 43 -10 43 C-10 36.07 -10 29.14 -10 22 C-10.66 22 -11.32 22 -12 22 C-12 21.34 -12 20.68 -12 20 C-14.64 20 -17.28 20 -20 20 C-20 27.92 -20 35.84 -20 44 C-21.98 44 -23.96 44 -26 44 C-26 35.42 -26 26.84 -26 18 C-28.31 18 -30.62 18 -33 18 C-33 16.68 -33 15.36 -33 14 C-27.555 13.505 -27.555 13.505 -22 13 C-21.8453125 10.339375 -21.8453125 10.339375 -21.6875 7.625 C-21.51171875 4.6015625 -21.51171875 4.6015625 -21 2 C-14.69594653 -2.20270232 -7.19646082 -1.02806583 0 0 Z " fill="#34576E" transform="translate(101,98)"/>
<path d="M0 0 C5.28 0 10.56 0 16 0 C16 1.32 16 2.64 16 4 C12.37 4 8.74 4 5 4 C5 6.97 5 9.94 5 13 C8.3 13 11.6 13 15 13 C15 14.32 15 15.64 15 17 C11.7 17 8.4 17 5 17 C5 19.64 5 22.28 5 25 C8.63 25 12.26 25 16 25 C16 26.32 16 27.64 16 29 C10.72 29 5.44 29 0 29 C0 19.43 0 9.86 0 0 Z " fill="#F4F6F7" transform="translate(49,112)"/>
<path d="M0 0 C11.13283089 0.50603777 21.10274678 7.59726169 29 15 C30.03532065 16.30609683 31.04831494 17.63176269 32 19 C31.01 19.495 31.01 19.495 30 20 C30.66 20.763125 31.32 21.52625 32 22.3125 C34 25 34 25 34 28 C33.4225 27.814375 32.845 27.62875 32.25 27.4375 C30.01636271 26.79600014 30.01636271 26.79600014 28.0625 27.75 C27.0415625 27.87375 27.0415625 27.87375 26 28 C24.33333333 26.33333333 22.66666667 24.66666667 21 23 C18.28836222 22.58013054 18.28836222 22.58013054 16 23 C16.33 22.01 16.66 21.02 17 20 C18.32 20 19.64 20 21 20 C21 19.34 21 18.68 21 18 C22.65 18.33 24.3 18.66 26 19 C25.39027344 18.75378906 24.78054687 18.50757812 24.15234375 18.25390625 C21.60663453 16.77083427 20.97300158 15.48565204 19.5625 12.9375 C17.44616955 9.90717594 16.55343087 9.10682663 12.86328125 8.39453125 C10.58518048 8.30014186 8.30287368 8.27499129 6.0234375 8.328125 C3 8 3 8 0.5859375 6.125 C-1 4 -1 4 -0.75 1.75 C-0.5025 1.1725 -0.255 0.595 0 0 Z " fill="#BFCAD4" transform="translate(91,8)"/>
<path d="M0 0 C1.98 0 3.96 0 6 0 C7.32 2.64 8.64 5.28 10 8 C11.77706209 5.33440687 12.87548273 2.9719385 14 0 C15.98 0 17.96 0 20 0 C19.56856647 1.37691552 19.12948836 2.75143619 18.6875 4.125 C18.44386719 4.89070313 18.20023438 5.65640625 17.94921875 6.4453125 C17 9 17 9 15.4375 11.84375 C13.77368379 15.49691168 13.50098648 18.37908658 13.3125 22.375 C13.24675781 23.62023437 13.18101562 24.86546875 13.11328125 26.1484375 C13.07589844 27.08945313 13.03851563 28.03046875 13 29 C11.35 29 9.7 29 8 29 C8.00902344 28.14019531 8.01804688 27.28039062 8.02734375 26.39453125 C7.80137492 17.38525225 6.16984613 12.25809623 1.49609375 4.546875 C0 2 0 2 0 0 Z " fill="#F4F6F7" transform="translate(120,112)"/>
<path d="M0 0 C6.27 0 12.54 0 19 0 C19 1.32 19 2.64 19 4 C16.69 4 14.38 4 12 4 C12 12.25 12 20.5 12 29 C10.35 29 8.7 29 7 29 C7 20.75 7 12.5 7 4 C4.69 4 2.38 4 0 4 C0 2.68 0 1.36 0 0 Z " fill="#F7F9F9" transform="translate(68,112)"/>
<path d="M0 0 C0 0.66 0 1.32 0 2 C0.66 2 1.32 2 2 2 C2.33 8.93 2.66 15.86 3 23 C5.64 23.33 8.28 23.66 11 24 C11 19.38 11 14.76 11 10 C11.33 10 11.66 10 12 10 C12 14.95 12 19.9 12 25 C8.37 25 4.74 25 1 25 C0.67 21.7 0.34 18.4 0 15 C-1.98 15.33 -3.96 15.66 -6 16 C-6.33 18.97 -6.66 21.94 -7 25 C-7.99 24.67 -8.98 24.34 -10 24 C-9.34 24 -8.68 24 -8 24 C-8 16.08 -8 8.16 -8 0 C-5.13822943 -1.43088528 -3.06624227 -0.59991697 0 0 Z " fill="#244A62" transform="translate(89,118)"/>
<path d="M0 0 C2.64 0.33 5.28 0.66 8 1 C7.67 2.65 7.34 4.3 7 6 C7.99 6.66 8.98 7.32 10 8 C11.33790641 8.99387334 12.67218122 9.9926892 14 11 C13.01 12.98 12.02 14.96 11 17 C10.01 17 9.02 17 8 17 C7.67 15.68 7.34 14.36 7 13 C7 13.66 7 14.32 7 15 C6.34 15 5.68 15 5 15 C5 14.01 5 13.02 5 12 C4.01 11.67 3.02 11.34 2 11 C0.875 9.0625 0.875 9.0625 0 7 C-0.33 6.34 -0.66 5.68 -1 5 C-0.72057545 3.32345271 -0.39171753 1.65391846 0 0 Z " fill="#3C5E74" transform="translate(84,6)"/>
<path d="M0 0 C0 2.31 0 4.62 0 7 C0.66 7 1.32 7 2 7 C2 7.66 2 8.32 2 9 C-1.33333333 9 -4.66666667 9 -8 9 C-8 8.34 -8 7.68 -8 7 C-8.99 7 -9.98 7 -11 7 C-10.3125 4.5625 -10.3125 4.5625 -9 2 C-6.5 1.25 -6.5 1.25 -4 1 C-2 0 -2 0 0 0 Z " fill="#B6C8D8" transform="translate(97,54)"/>
<path d="M0 0 C1.65 0 3.3 0 5 0 C7 2 7 2 7.1875 5.5625 C7 9 7 9 6 10 C4.00041636 10.04080783 1.99954746 10.04254356 0 10 C0 6.7 0 3.4 0 0 Z " fill="#264B63" transform="translate(100,109)"/>
<path d="M0 0 C0.66 0 1.32 0 2 0 C1.08039405 3.1152943 0.5865861 4.64334747 -2.2421875 6.36328125 C-3.54542969 6.83314453 -3.54542969 6.83314453 -4.875 7.3125 C-5.73867187 7.63863281 -6.60234375 7.96476562 -7.4921875 8.30078125 C-10 9 -10 9 -14 9 C-14 13.62 -14 18.24 -14 23 C-16.64 23 -19.28 23 -22 23 C-22 22.67 -22 22.34 -22 22 C-19.69 22 -17.38 22 -15 22 C-15 16.72 -15 11.44 -15 6 C-12.40125 5.62875 -12.40125 5.62875 -9.75 5.25 C-5.25983543 4.45456648 -2.86026667 3.73078261 0 0 Z " fill="#668091" transform="translate(114,119)"/>
<path d="M0 0 C0.33 0 0.66 0 1 0 C1 12.54 1 25.08 1 38 C0.67 38 0.34 38 0 38 C0 31.07 0 24.14 0 17 C-0.66 17 -1.32 17 -2 17 C-2.97264857 12.72034628 -3.07378951 10.80194743 -1 7 C-0.61250787 4.67504723 -0.27017161 2.34148732 0 0 Z " fill="#718A9A" transform="translate(91,103)"/>
<path d="M0 0 C0.99 0.33 1.98 0.66 3 1 C3 1.66 3 2.32 3 3 C3.66 3.33 4.32 3.66 5 4 C4.01 5.485 4.01 5.485 3 7 C3 7.99 3 8.98 3 10 C3.66 10.33 4.32 10.66 5 11 C5 11.66 5 12.32 5 13 C3.68 12.34 2.36 11.68 1 11 C0.67 11.66 0.34 12.32 0 13 C-0.66 13 -1.32 13 -2 13 C-2.05416188 11.39620659 -2.09286638 9.79188594 -2.125 8.1875 C-2.14820313 7.29417969 -2.17140625 6.40085937 -2.1953125 5.48046875 C-2 3 -2 3 0 0 Z " fill="#484D51" transform="translate(60,67)"/>
<path d="M0 0 C0.33 0 0.66 0 1 0 C1.25 3.25 1.25 3.25 1 7 C-0.8125 9.0625 -0.8125 9.0625 -3 11 C-4.06011943 12.96879323 -5.07470849 14.96435867 -6 17 C-7.8125 16.875 -7.8125 16.875 -10 16 C-11.75 12.9375 -11.75 12.9375 -13 10 C-12.34 9.34 -11.68 8.68 -11 8 C-10.01 9.98 -9.02 11.96 -8 14 C-5.36 9.38 -2.72 4.76 0 0 Z " fill="#36596F" transform="translate(35,116)"/>
<path d="M0 0 C1.32 0 2.64 0 4 0 C3.979375 0.928125 3.95875 1.85625 3.9375 2.8125 C3.84230396 6.02286011 3.84230396 6.02286011 5 9 C4.0625 11.6875 4.0625 11.6875 3 14 C0.97523701 12.32736971 0.06850541 11.21122501 -0.75 8.6875 C-1.03598525 5.6131586 -0.63044905 3.01214547 0 0 Z " fill="#404448" transform="translate(80,81)"/>
<path d="M0 0 C2.31 0.33 4.62 0.66 7 1 C7 2.98 7 4.96 7 7 C5.25 7.75 5.25 7.75 3 8 C0.6875 6.3125 0.6875 6.3125 -1 4 C-0.75 1.75 -0.75 1.75 0 0 Z " fill="#8DA1B0" transform="translate(91,8)"/>
<path d="M0 0 C3.25696479 0.41755959 4.63443291 0.63443291 7 3 C7 3.99 7 4.98 7 6 C5.68 6 4.36 6 3 6 C3.33 7.65 3.66 9.3 4 11 C2.68 10.67 1.36 10.34 0 10 C0.33 7.36 0.66 4.72 1 2 C0.34 1.67 -0.32 1.34 -1 1 C-0.67 0.67 -0.34 0.34 0 0 Z " fill="#676C72" transform="translate(73,68)"/>
<path d="M0 0 C0.99 0.33 1.98 0.66 3 1 C3 1.99 3 2.98 3 4 C3.99 4.33 4.98 4.66 6 5 C7.60769874 7.33116317 8.09530596 8.42816426 7.625 11.25 C7.41875 11.8275 7.2125 12.405 7 13 C4 11 4 11 3 8 C2.01 7.34 1.02 6.68 0 6 C-0.1875 2.875 -0.1875 2.875 0 0 Z " fill="#688294" transform="translate(55,95)"/>
<path d="M0 0 C2.0625 0.4375 2.0625 0.4375 4 1 C4 3.31 4 5.62 4 8 C2.0625 8.5625 2.0625 8.5625 0 9 C-1 8 -1 8 -1.125 4.5 C-1 1 -1 1 0 0 Z " fill="#D1787D" transform="translate(63,54)"/>
<path d="M0 0 C2.97 0.495 2.97 0.495 6 1 C6 5.24645065 4.18249194 7.38524772 2 11 C1.67 11 1.34 11 1 11 C0.67 7.37 0.34 3.74 0 0 Z " fill="#25282B" transform="translate(93,79)"/>
<path d="M0 0 C1.65 0 3.3 0 5 0 C5 2.31 5 4.62 5 7 C3.35 7.33 1.7 7.66 0 8 C0 5.36 0 2.72 0 0 Z " fill="#62B27B" transform="translate(62,83)"/>
<path d="M0 0 C1.98 0.495 1.98 0.495 4 1 C4 3.31 4 5.62 4 8 C2.35 8.33 0.7 8.66 -1 9 C-1 5.72724974 -0.70074844 3.153368 0 0 Z " fill="#5B99C4" transform="translate(81,54)"/>
<path d="M0 0 C2.0625 0.4375 2.0625 0.4375 4 1 C4 2.98 4 4.96 4 7 C2.0625 7.5625 2.0625 7.5625 0 8 C-1 7 -1 7 -1.125 4 C-1 1 -1 1 0 0 Z " fill="#70B789" transform="translate(56,83)"/>
<path d="M0 0 C0.99 0 1.98 0 3 0 C3 2.64 3 5.28 3 8 C2.01 8 1.02 8 0 8 C-0.38063221 5.6739143 -0.71269945 3.33944736 -1 1 C-0.67 0.67 -0.34 0.34 0 0 Z " fill="#A0A7AF" transform="translate(71,70)"/>
<path d="M0 0 C0.78375 0.515625 1.5675 1.03125 2.375 1.5625 C3.24125 2.036875 4.1075 2.51125 5 3 C5.66 2.67 6.32 2.34 7 2 C5.74874616 5.75376152 4.4347596 6.24073289 1 8 C0.34 8 -0.32 8 -1 8 C-0.67 5.36 -0.34 2.72 0 0 Z " fill="#AEBCC8" transform="translate(126,67)"/>
<path d="M0 0 C1.64826111 2.96687001 2.44271087 5.65626525 3 9 C1.02 9.99 1.02 9.99 -1 11 C-0.67 9.02 -0.34 7.04 0 5 C-0.66 4.67 -1.32 4.34 -2 4 C-1.34 4 -0.68 4 0 4 C0 2.68 0 1.36 0 0 Z " fill="#3B5D73" transform="translate(82,12)"/>
<path d="M0 0 C0.66 0 1.32 0 2 0 C2.33 1.98 2.66 3.96 3 6 C0.50907189 7.24546405 -0.41080733 6.7767578 -3 6 C-1.125 1.125 -1.125 1.125 0 0 Z " fill="#428DBE" transform="translate(89,55)"/>
<path d="M0 0 C0.66 0 1.32 0 2 0 C2.33 0.66 2.66 1.32 3 2 C3.99 1.34 4.98 0.68 6 0 C5.25 5.75 5.25 5.75 3 8 C0 2.25 0 2.25 0 0 Z " fill="#33566C" transform="translate(127,114)"/>
<path d="M0 0 C0.33 0.66 0.66 1.32 1 2 C1.66 2.33 2.32 2.66 3 3 C1.02 3.99 -0.96 4.98 -3 6 C-3.33 4.35 -3.66 2.7 -4 1 C-2.68 0.67 -1.36 0.34 0 0 Z " fill="#9299A0" transform="translate(80,73)"/>
<path d="M0 0 C0.66 0 1.32 0 2 0 C2 1.98 2 3.96 2 6 C0.68 6 -0.64 6 -2 6 C-2 4.68 -2 3.36 -2 2 C-1.34 2 -0.68 2 0 2 C0 1.34 0 0.68 0 0 Z " fill="#A9B8C4" transform="translate(137,62)"/>
<path d="M0 0 C0.66 0 1.32 0 2 0 C2 2.31 2 4.62 2 7 C2.66 7 3.32 7 4 7 C4 7.66 4 8.32 4 9 C2.35 9 0.7 9 -1 9 C-1 8.34 -1 7.68 -1 7 C-0.34 7 0.32 7 1 7 C1 5.35 1 3.7 1 2 C0.34 1.67 -0.32 1.34 -1 1 C-0.67 0.67 -0.34 0.34 0 0 Z " fill="#458EBF" transform="translate(95,54)"/>
<path d="M0 0 C0.33 0 0.66 0 1 0 C1 2.31 1 4.62 1 7 C-0.98 7.99 -0.98 7.99 -3 9 C-2.44271087 5.65626525 -1.64826111 2.96687001 0 0 Z " fill="#2D5269" transform="translate(35,116)"/>
<path d="M0 0 C2.31 0 4.62 0 7 0 C5.75 1.5 5.75 1.5 4 3 C2.68 3 1.36 3 0 3 C0 2.01 0 1.02 0 0 Z " fill="#537185" transform="translate(100,125)"/>
<path d="M0 0 C0.66 0 1.32 0 2 0 C2 0.66 2 1.32 2 2 C2.99 1.67 3.98 1.34 5 1 C4.67 2.65 4.34 4.3 4 6 C3.34 6 2.68 6 2 6 C1.34 4.02 0.68 2.04 0 0 Z " fill="#395B71" transform="translate(24,113)"/>
<path d="M0 0 C1.9375 0.3125 1.9375 0.3125 4 1 C4.33 1.99 4.66 2.98 5 4 C3.35 4 1.7 4 0 4 C0 2.68 0 1.36 0 0 Z " fill="#050708" transform="translate(75,69)"/>
</svg>
