<?xml version="1.0" encoding="UTF-8"?>
<svg version="1.1" xmlns="http://www.w3.org/2000/svg" width="352" height="308">
<path d="M0,0 L138,0 L138,66 L216,66 L216,67 L215,67 L215,68 L214,68 L214,69 L213,69 L213,70 L212,70 L212,71 L211,71 L211,72 L210,72 L210,73 L209,73 L209,74 L208,74 L208,75 L207,75 L207,76 L206,76 L206,77 L205,77 L205,78 L204,78 L204,79 L203,79 L203,80 L202,80 L202,81 L201,81 L201,82 L200,82 L200,83 L199,83 L199,84 L198,84 L198,85 L197,85 L197,86 L196,86 L196,87 L195,87 L195,88 L194,88 L194,89 L193,89 L193,90 L192,90 L192,91 L191,91 L191,92 L190,92 L190,93 L189,93 L189,94 L188,94 L188,95 L187,95 L187,96 L186,96 L186,97 L185,97 L185,98 L184,98 L184,99 L183,99 L183,100 L182,100 L182,101 L181,101 L181,102 L180,102 L180,103 L179,103 L179,104 L178,104 L178,105 L177,105 L177,106 L176,106 L176,107 L175,107 L175,108 L174,108 L174,109 L173,109 L173,110 L172,110 L172,111 L171,111 L171,112 L170,112 L170,113 L169,113 L169,114 L168,114 L168,115 L167,115 L167,116 L166,116 L166,117 L165,117 L165,118 L164,118 L164,119 L163,119 L163,120 L162,120 L162,121 L161,121 L161,122 L160,122 L160,123 L159,123 L159,124 L158,124 L158,125 L157,125 L157,126 L156,126 L156,127 L155,127 L155,128 L154,128 L154,129 L153,129 L153,130 L152,130 L152,131 L151,131 L151,132 L150,132 L150,133 L149,133 L149,134 L148,134 L148,135 L147,135 L147,136 L146,136 L146,137 L145,137 L145,138 L144,138 L144,139 L143,139 L143,140 L142,140 L142,141 L141,141 L141,142 L140,142 L140,143 L139,143 L139,144 L138,144 L138,145 L137,145 L137,146 L136,146 L136,147 L135,147 L135,148 L134,148 L134,149 L133,149 L133,150 L132,150 L132,151 L131,151 L131,152 L130,152 L130,153 L129,153 L129,154 L128,154 L128,155 L127,155 L127,156 L126,156 L126,157 L125,157 L125,158 L124,158 L124,159 L123,159 L123,160 L122,160 L122,161 L121,161 L121,162 L120,162 L120,163 L119,163 L119,164 L118,164 L118,165 L117,165 L117,166 L116,166 L116,167 L115,167 L115,168 L114,168 L114,169 L113,169 L113,170 L112,170 L112,171 L111,171 L111,172 L110,172 L110,173 L109,173 L109,174 L108,174 L108,175 L107,175 L107,176 L106,176 L106,177 L105,177 L105,178 L104,178 L104,179 L103,179 L103,180 L102,180 L102,181 L101,181 L101,182 L100,182 L100,183 L99,183 L99,184 L98,184 L98,185 L97,185 L97,186 L96,186 L96,187 L95,187 L95,188 L94,188 L94,189 L93,189 L93,190 L92,190 L92,191 L91,191 L91,192 L90,192 L90,193 L89,193 L89,194 L88,194 L88,195 L87,195 L87,196 L86,196 L86,197 L85,197 L85,198 L84,198 L84,199 L83,199 L83,200 L82,200 L82,201 L81,201 L81,202 L80,202 L80,203 L79,203 L79,204 L78,204 L78,205 L77,205 L77,206 L76,206 L76,207 L75,207 L75,208 L74,208 L74,209 L73,209 L73,210 L72,210 L72,211 L71,211 L71,212 L70,212 L70,213 L69,213 L69,214 L68,214 L68,213 L67,213 L67,212 L66,212 L66,211 L65,211 L65,210 L64,210 L64,209 L63,209 L63,208 L62,208 L62,207 L61,207 L61,206 L60,206 L60,205 L59,205 L59,204 L58,204 L58,203 L57,203 L57,202 L56,202 L56,201 L55,201 L55,200 L54,200 L54,199 L53,199 L53,198 L52,198 L52,197 L51,197 L51,196 L50,196 L50,195 L49,195 L49,194 L48,194 L48,193 L47,193 L47,192 L46,192 L46,191 L45,191 L45,190 L44,190 L44,189 L43,189 L43,188 L42,188 L42,187 L41,187 L41,186 L40,186 L40,185 L39,185 L39,184 L38,184 L38,183 L37,183 L37,182 L36,182 L36,181 L35,181 L35,180 L34,180 L34,179 L33,179 L33,178 L32,178 L32,177 L31,177 L31,176 L30,176 L30,175 L29,175 L29,174 L28,174 L28,173 L27,173 L27,172 L26,172 L26,171 L25,171 L25,170 L24,170 L24,169 L23,169 L23,168 L22,168 L22,167 L21,167 L21,166 L20,166 L20,165 L19,165 L19,164 L18,164 L18,163 L17,163 L17,162 L16,162 L16,161 L15,161 L15,160 L14,160 L14,159 L13,159 L13,158 L12,158 L12,157 L11,157 L11,156 L10,156 L10,155 L9,155 L9,154 L8,154 L8,153 L7,153 L7,152 L6,152 L6,151 L5,151 L5,150 L4,150 L4,149 L3,149 L3,148 L2,148 L2,147 L1,147 L1,146 L0,146 L0,145 L-1,145 L-1,144 L-2,144 L-2,143 L-3,143 L-3,142 L-4,142 L-4,141 L-5,141 L-5,140 L-6,140 L-6,139 L-7,139 L-7,138 L-8,138 L-8,137 L-9,137 L-9,136 L-10,136 L-10,135 L-11,135 L-11,134 L-12,134 L-12,133 L-13,133 L-13,132 L-14,132 L-14,131 L-15,131 L-15,130 L-16,130 L-16,129 L-17,129 L-17,128 L-18,128 L-18,127 L-19,127 L-19,126 L-20,126 L-20,125 L-21,125 L-21,124 L-22,124 L-22,123 L-23,123 L-23,122 L-24,122 L-24,121 L-25,121 L-25,120 L-26,120 L-26,119 L-27,119 L-27,118 L-28,118 L-28,117 L-29,117 L-29,116 L-30,116 L-30,115 L-31,115 L-31,114 L-32,114 L-32,113 L-33,113 L-33,112 L-34,112 L-34,111 L-35,111 L-35,110 L-36,110 L-36,109 L-37,109 L-37,108 L-38,108 L-38,107 L-39,107 L-39,106 L-40,106 L-40,105 L-41,105 L-41,104 L-42,104 L-42,103 L-43,103 L-43,102 L-44,102 L-44,101 L-45,101 L-45,100 L-46,100 L-46,99 L-47,99 L-47,98 L-48,98 L-48,97 L-49,97 L-49,96 L-50,96 L-50,95 L-51,95 L-51,94 L-52,94 L-52,93 L-53,93 L-53,92 L-54,92 L-54,91 L-55,91 L-55,90 L-56,90 L-56,89 L-57,89 L-57,88 L-58,88 L-58,87 L-59,87 L-59,86 L-60,86 L-60,85 L-61,85 L-61,84 L-62,84 L-62,83 L-63,83 L-63,82 L-64,82 L-64,81 L-65,81 L-65,80 L-66,80 L-66,79 L-67,79 L-67,78 L-68,78 L-68,77 L-69,77 L-69,76 L-70,76 L-70,75 L-71,75 L-71,74 L-72,74 L-72,73 L-73,73 L-73,72 L-74,72 L-74,71 L-75,71 L-75,70 L-76,70 L-76,69 L-77,69 L-77,68 L-78,68 L-78,67 L-79,67 L-79,66 L0,66 Z " fill="#000000" transform="translate(107,0)"/>
<path d="M0,0 L2,0 L2,1 L3,1 L3,2 L4,2 L4,3 L5,3 L5,4 L6,4 L6,5 L7,5 L7,6 L8,6 L8,7 L9,7 L9,8 L10,8 L10,9 L11,9 L11,10 L12,10 L12,11 L13,11 L13,12 L14,12 L14,13 L15,13 L15,14 L16,14 L16,15 L17,15 L17,16 L18,16 L18,17 L19,17 L19,18 L20,18 L20,19 L21,19 L21,20 L22,20 L22,21 L23,21 L23,22 L24,22 L24,23 L25,23 L25,24 L26,24 L26,25 L25,25 L25,26 L24,26 L24,27 L23,27 L23,28 L22,28 L22,29 L21,29 L21,30 L20,30 L20,31 L19,31 L19,32 L18,32 L18,33 L17,33 L17,34 L16,34 L16,35 L15,35 L15,36 L14,36 L14,37 L13,37 L13,38 L12,38 L12,39 L11,39 L11,40 L10,40 L10,41 L9,41 L9,42 L10,42 L10,43 L11,43 L11,44 L12,44 L12,45 L13,45 L13,46 L14,46 L14,47 L15,47 L15,48 L16,48 L16,49 L17,49 L17,50 L18,50 L18,51 L19,51 L19,52 L20,52 L20,53 L21,53 L21,54 L22,54 L22,55 L23,55 L23,56 L24,56 L24,57 L25,57 L25,58 L26,58 L26,59 L27,59 L27,60 L28,60 L28,61 L29,61 L29,62 L30,62 L30,63 L31,63 L31,64 L32,64 L32,65 L33,65 L33,66 L34,66 L34,67 L35,67 L35,68 L36,68 L36,69 L37,69 L37,70 L38,70 L38,71 L39,71 L39,72 L40,72 L40,73 L41,73 L41,74 L42,74 L42,75 L43,75 L43,76 L44,76 L44,77 L45,77 L45,78 L46,78 L46,79 L47,79 L47,80 L48,80 L48,81 L49,81 L49,82 L50,82 L50,83 L51,83 L51,84 L52,84 L52,85 L53,85 L53,86 L54,86 L54,87 L55,87 L55,88 L56,88 L56,89 L57,89 L57,90 L58,90 L58,91 L59,91 L59,92 L60,92 L60,93 L61,93 L61,94 L62,94 L62,95 L63,95 L63,96 L64,96 L64,97 L65,97 L65,98 L66,98 L66,99 L67,99 L67,100 L68,100 L68,101 L69,101 L69,102 L70,102 L70,103 L71,103 L71,104 L72,104 L72,105 L73,105 L73,106 L74,106 L74,107 L75,107 L75,108 L76,108 L76,109 L77,109 L77,110 L78,110 L78,111 L79,111 L79,112 L80,112 L80,113 L81,113 L81,114 L82,114 L82,115 L83,115 L83,116 L84,116 L84,117 L85,117 L85,118 L86,118 L86,119 L87,119 L87,120 L88,120 L88,121 L89,121 L89,122 L90,122 L90,123 L91,123 L91,124 L92,124 L92,125 L93,125 L93,126 L94,126 L94,127 L95,127 L95,128 L96,128 L96,129 L97,129 L97,130 L98,130 L98,131 L99,131 L99,132 L100,132 L100,133 L101,133 L101,134 L102,134 L102,135 L103,135 L103,136 L104,136 L104,137 L105,137 L105,138 L106,138 L106,139 L107,139 L107,140 L108,140 L108,141 L109,141 L109,142 L110,142 L110,143 L111,143 L111,144 L112,144 L112,145 L113,145 L113,146 L114,146 L114,147 L115,147 L115,148 L116,148 L116,149 L117,149 L117,150 L118,150 L118,151 L119,151 L119,152 L120,152 L120,153 L121,153 L121,154 L122,154 L122,155 L123,155 L123,156 L124,156 L124,157 L125,157 L125,158 L126,158 L126,159 L127,159 L127,160 L128,160 L128,161 L129,161 L129,162 L130,162 L130,163 L132,163 L132,162 L133,162 L133,161 L134,161 L134,160 L135,160 L135,159 L136,159 L136,158 L137,158 L137,157 L138,157 L138,156 L139,156 L139,155 L140,155 L140,154 L141,154 L141,153 L142,153 L142,152 L143,152 L143,151 L144,151 L144,150 L145,150 L145,149 L146,149 L146,148 L147,148 L147,147 L148,147 L148,146 L149,146 L149,145 L150,145 L150,144 L151,144 L151,143 L152,143 L152,142 L153,142 L153,141 L154,141 L154,140 L155,140 L155,139 L156,139 L156,138 L157,138 L157,137 L158,137 L158,136 L159,136 L159,135 L160,135 L160,134 L161,134 L161,133 L162,133 L162,132 L163,132 L163,131 L164,131 L164,130 L165,130 L165,129 L166,129 L166,128 L167,128 L167,127 L168,127 L168,126 L169,126 L169,125 L170,125 L170,124 L171,124 L171,123 L172,123 L172,122 L173,122 L173,121 L174,121 L174,120 L175,120 L175,119 L176,119 L176,118 L177,118 L177,117 L178,117 L178,116 L179,116 L179,115 L180,115 L180,114 L181,114 L181,113 L182,113 L182,112 L183,112 L183,111 L184,111 L184,110 L185,110 L185,109 L186,109 L186,108 L187,108 L187,107 L188,107 L188,106 L189,106 L189,105 L190,105 L190,104 L191,104 L191,103 L192,103 L192,102 L193,102 L193,101 L194,101 L194,100 L195,100 L195,99 L196,99 L196,98 L197,98 L197,97 L198,97 L198,96 L199,96 L199,95 L200,95 L200,94 L201,94 L201,93 L202,93 L202,92 L203,92 L203,91 L204,91 L204,90 L205,90 L205,89 L206,89 L206,88 L207,88 L207,87 L208,87 L208,86 L209,86 L209,85 L210,85 L210,84 L211,84 L211,83 L212,83 L212,82 L213,82 L213,81 L214,81 L214,80 L215,80 L215,79 L216,79 L216,78 L217,78 L217,77 L218,77 L218,76 L219,76 L219,75 L220,75 L220,74 L221,74 L221,73 L222,73 L222,72 L223,72 L223,71 L224,71 L224,70 L225,70 L225,69 L226,69 L226,68 L227,68 L227,67 L228,67 L228,66 L229,66 L229,65 L230,65 L230,64 L231,64 L231,63 L232,63 L232,62 L233,62 L233,61 L234,61 L234,60 L235,60 L235,59 L236,59 L236,58 L237,58 L237,57 L238,57 L238,56 L239,56 L239,55 L240,55 L240,54 L241,54 L241,53 L242,53 L242,52 L243,52 L243,51 L244,51 L244,50 L245,50 L245,49 L246,49 L246,48 L247,48 L247,47 L248,47 L248,46 L249,46 L249,45 L250,45 L250,44 L251,44 L251,43 L252,43 L252,42 L253,42 L253,41 L252,41 L252,40 L251,40 L251,39 L250,39 L250,38 L249,38 L249,37 L248,37 L248,36 L247,36 L247,35 L246,35 L246,34 L245,34 L245,33 L244,33 L244,32 L243,32 L243,31 L242,31 L242,30 L241,30 L241,29 L240,29 L240,28 L239,28 L239,27 L238,27 L238,26 L237,26 L237,25 L236,25 L236,23 L237,23 L237,22 L238,22 L238,21 L239,21 L239,20 L240,20 L240,19 L241,19 L241,18 L242,18 L242,17 L243,17 L243,16 L244,16 L244,15 L245,15 L245,14 L246,14 L246,13 L247,13 L247,12 L248,12 L248,11 L249,11 L249,10 L250,10 L250,9 L251,9 L251,8 L252,8 L252,7 L253,7 L253,6 L254,6 L254,5 L255,5 L255,4 L256,4 L256,3 L257,3 L257,2 L258,2 L258,1 L259,1 L259,0 L262,0 L262,1 L263,1 L263,2 L264,2 L264,3 L265,3 L265,4 L266,4 L266,5 L267,5 L267,6 L268,6 L268,7 L269,7 L269,8 L270,8 L270,9 L271,9 L271,10 L272,10 L272,11 L273,11 L273,12 L274,12 L274,13 L275,13 L275,14 L276,14 L276,15 L277,15 L277,16 L278,16 L278,17 L279,17 L279,18 L280,18 L280,19 L281,19 L281,20 L282,20 L282,21 L283,21 L283,22 L284,22 L284,23 L285,23 L285,24 L286,24 L286,25 L287,25 L287,26 L288,26 L288,27 L289,27 L289,28 L290,28 L290,29 L291,29 L291,30 L292,30 L292,31 L293,31 L293,32 L294,32 L294,33 L295,33 L295,34 L296,34 L296,35 L297,35 L297,36 L298,36 L298,37 L299,37 L299,38 L300,38 L300,39 L301,39 L301,40 L302,40 L302,43 L301,43 L301,44 L300,44 L300,45 L299,45 L299,46 L298,46 L298,47 L297,47 L297,48 L296,48 L296,49 L295,49 L295,50 L294,50 L294,51 L293,51 L293,52 L292,52 L292,53 L291,53 L291,54 L290,54 L290,55 L289,55 L289,56 L288,56 L288,57 L287,57 L287,58 L286,58 L286,59 L285,59 L285,60 L284,60 L284,61 L283,61 L283,62 L282,62 L282,63 L281,63 L281,64 L280,64 L280,65 L279,65 L279,66 L278,66 L278,67 L277,67 L277,68 L276,68 L276,69 L275,69 L275,70 L274,70 L274,71 L273,71 L273,72 L272,72 L272,73 L271,73 L271,74 L270,74 L270,75 L269,75 L269,76 L268,76 L268,77 L267,77 L267,78 L266,78 L266,79 L265,79 L265,80 L264,80 L264,81 L263,81 L263,82 L262,82 L262,83 L261,83 L261,84 L260,84 L260,85 L259,85 L259,86 L258,86 L258,87 L257,87 L257,88 L256,88 L256,89 L255,89 L255,90 L254,90 L254,91 L253,91 L253,92 L252,92 L252,93 L251,93 L251,94 L250,94 L250,95 L249,95 L249,96 L248,96 L248,97 L247,97 L247,98 L246,98 L246,99 L245,99 L245,100 L244,100 L244,101 L243,101 L243,102 L242,102 L242,103 L241,103 L241,104 L240,104 L240,105 L239,105 L239,106 L238,106 L238,107 L237,107 L237,108 L236,108 L236,109 L235,109 L235,110 L234,110 L234,111 L233,111 L233,112 L232,112 L232,113 L231,113 L231,114 L230,114 L230,115 L229,115 L229,116 L228,116 L228,117 L227,117 L227,118 L226,118 L226,119 L225,119 L225,120 L224,120 L224,121 L223,121 L223,122 L222,122 L222,123 L221,123 L221,124 L220,124 L220,125 L219,125 L219,126 L218,126 L218,127 L217,127 L217,128 L216,128 L216,129 L215,129 L215,130 L214,130 L214,131 L213,131 L213,132 L212,132 L212,133 L211,133 L211,134 L210,134 L210,135 L209,135 L209,136 L208,136 L208,137 L207,137 L207,138 L206,138 L206,139 L205,139 L205,140 L204,140 L204,141 L203,141 L203,142 L202,142 L202,143 L201,143 L201,144 L200,144 L200,145 L199,145 L199,146 L198,146 L198,147 L197,147 L197,148 L196,148 L196,149 L195,149 L195,150 L194,150 L194,151 L193,151 L193,152 L192,152 L192,153 L191,153 L191,154 L190,154 L190,155 L189,155 L189,156 L188,156 L188,157 L187,157 L187,158 L186,158 L186,159 L185,159 L185,160 L184,160 L184,161 L183,161 L183,162 L182,162 L182,163 L181,163 L181,164 L180,164 L180,165 L179,165 L179,166 L178,166 L178,167 L177,167 L177,168 L176,168 L176,169 L175,169 L175,170 L174,170 L174,171 L173,171 L173,172 L172,172 L172,173 L171,173 L171,174 L170,174 L170,175 L169,175 L169,176 L168,176 L168,177 L167,177 L167,178 L166,178 L166,179 L165,179 L165,180 L164,180 L164,181 L163,181 L163,182 L162,182 L162,183 L161,183 L161,184 L160,184 L160,185 L159,185 L159,186 L158,186 L158,187 L157,187 L157,188 L156,188 L156,189 L155,189 L155,190 L154,190 L154,191 L153,191 L153,192 L152,192 L152,193 L151,193 L151,194 L150,194 L150,195 L149,195 L149,196 L148,196 L148,197 L147,197 L147,198 L146,198 L146,199 L145,199 L145,200 L144,200 L144,201 L143,201 L143,202 L142,202 L142,203 L141,203 L141,204 L140,204 L140,205 L139,205 L139,206 L138,206 L138,207 L137,207 L137,208 L136,208 L136,209 L135,209 L135,210 L134,210 L134,211 L133,211 L133,212 L132,212 L132,213 L130,213 L130,212 L129,212 L129,211 L128,211 L128,210 L127,210 L127,209 L126,209 L126,208 L125,208 L125,207 L124,207 L124,206 L123,206 L123,205 L122,205 L122,204 L121,204 L121,203 L120,203 L120,202 L119,202 L119,201 L118,201 L118,200 L117,200 L117,199 L116,199 L116,198 L115,198 L115,197 L114,197 L114,196 L113,196 L113,195 L112,195 L112,194 L111,194 L111,193 L110,193 L110,192 L109,192 L109,191 L108,191 L108,190 L107,190 L107,189 L106,189 L106,188 L105,188 L105,187 L104,187 L104,186 L103,186 L103,185 L102,185 L102,184 L101,184 L101,183 L100,183 L100,182 L99,182 L99,181 L98,181 L98,180 L97,180 L97,179 L96,179 L96,178 L95,178 L95,177 L94,177 L94,176 L93,176 L93,175 L92,175 L92,174 L91,174 L91,173 L90,173 L90,172 L89,172 L89,171 L88,171 L88,170 L87,170 L87,169 L86,169 L86,168 L85,168 L85,167 L84,167 L84,166 L83,166 L83,165 L82,165 L82,164 L81,164 L81,163 L80,163 L80,162 L79,162 L79,161 L78,161 L78,160 L77,160 L77,159 L76,159 L76,158 L75,158 L75,157 L74,157 L74,156 L73,156 L73,155 L72,155 L72,154 L71,154 L71,153 L70,153 L70,152 L69,152 L69,151 L68,151 L68,150 L67,150 L67,149 L66,149 L66,148 L65,148 L65,147 L64,147 L64,146 L63,146 L63,145 L62,145 L62,144 L61,144 L61,143 L60,143 L60,142 L59,142 L59,141 L58,141 L58,140 L57,140 L57,139 L56,139 L56,138 L55,138 L55,137 L54,137 L54,136 L53,136 L53,135 L52,135 L52,134 L51,134 L51,133 L50,133 L50,132 L49,132 L49,131 L48,131 L48,130 L47,130 L47,129 L46,129 L46,128 L45,128 L45,127 L44,127 L44,126 L43,126 L43,125 L42,125 L42,124 L41,124 L41,123 L40,123 L40,122 L39,122 L39,121 L38,121 L38,120 L37,120 L37,119 L36,119 L36,118 L35,118 L35,117 L34,117 L34,116 L33,116 L33,115 L32,115 L32,114 L31,114 L31,113 L30,113 L30,112 L29,112 L29,111 L28,111 L28,110 L27,110 L27,109 L26,109 L26,108 L25,108 L25,107 L24,107 L24,106 L23,106 L23,105 L22,105 L22,104 L21,104 L21,103 L20,103 L20,102 L19,102 L19,101 L18,101 L18,100 L17,100 L17,99 L16,99 L16,98 L15,98 L15,97 L14,97 L14,96 L13,96 L13,95 L12,95 L12,94 L11,94 L11,93 L10,93 L10,92 L9,92 L9,91 L8,91 L8,90 L7,90 L7,89 L6,89 L6,88 L5,88 L5,87 L4,87 L4,86 L3,86 L3,85 L2,85 L2,84 L1,84 L1,83 L0,83 L0,82 L-1,82 L-1,81 L-2,81 L-2,80 L-3,80 L-3,79 L-4,79 L-4,78 L-5,78 L-5,77 L-6,77 L-6,76 L-7,76 L-7,75 L-8,75 L-8,74 L-9,74 L-9,73 L-10,73 L-10,72 L-11,72 L-11,71 L-12,71 L-12,70 L-13,70 L-13,69 L-14,69 L-14,68 L-15,68 L-15,67 L-16,67 L-16,66 L-17,66 L-17,65 L-18,65 L-18,64 L-19,64 L-19,63 L-20,63 L-20,62 L-21,62 L-21,61 L-22,61 L-22,60 L-23,60 L-23,59 L-24,59 L-24,58 L-25,58 L-25,57 L-26,57 L-26,56 L-27,56 L-27,55 L-28,55 L-28,54 L-29,54 L-29,53 L-30,53 L-30,52 L-31,52 L-31,51 L-32,51 L-32,50 L-33,50 L-33,49 L-34,49 L-34,48 L-35,48 L-35,47 L-36,47 L-36,46 L-37,46 L-37,45 L-38,45 L-38,44 L-39,44 L-39,43 L-40,43 L-40,42 L-41,42 L-41,41 L-40,41 L-40,40 L-39,40 L-39,39 L-38,39 L-38,38 L-37,38 L-37,37 L-36,37 L-36,36 L-35,36 L-35,35 L-34,35 L-34,34 L-33,34 L-33,33 L-32,33 L-32,32 L-31,32 L-31,31 L-30,31 L-30,30 L-29,30 L-29,29 L-28,29 L-28,28 L-27,28 L-27,27 L-26,27 L-26,26 L-25,26 L-25,25 L-24,25 L-24,24 L-23,24 L-23,23 L-22,23 L-22,22 L-21,22 L-21,21 L-20,21 L-20,20 L-19,20 L-19,19 L-18,19 L-18,18 L-17,18 L-17,17 L-16,17 L-16,16 L-15,16 L-15,15 L-14,15 L-14,14 L-13,14 L-13,13 L-12,13 L-12,12 L-11,12 L-11,11 L-10,11 L-10,10 L-9,10 L-9,9 L-8,9 L-8,8 L-7,8 L-7,7 L-6,7 L-6,6 L-5,6 L-5,5 L-4,5 L-4,4 L-3,4 L-3,3 L-2,3 L-2,2 L-1,2 L-1,1 L0,1 Z " fill="#000000" transform="translate(45,91)"/>
</svg>
