<?xml version="1.0" encoding="UTF-8"?>
<svg version="1.1" xmlns="http://www.w3.org/2000/svg" width="798" height="564">
<path d="M0 0 C58.08 0 116.16 0 176 0 C176 60.06 176 120.12 176 182 C152.57 182 129.14 182 105 182 C105 182.66 105 183.32 105 184 C110.61 184 116.22 184 122 184 C120.64617796 188.06146612 117.93589223 189.39632907 114.515625 191.66796875 C113.86301697 192.10764481 113.21040894 192.54732086 112.5380249 193.00032043 C111.15537099 193.92806062 109.76988954 194.85159852 108.38183594 195.77124023 C106.26284084 197.17896934 104.15861069 198.6069836 102.0546875 200.03710938 C100.70918155 200.93616655 99.36285312 201.83399428 98.015625 202.73046875 C97.3883551 203.15853317 96.76108521 203.5865976 96.11480713 204.02763367 C93.63467581 205.65081398 91.42317004 206.90638273 88.51586914 207.54956055 C84.72867533 206.72229482 81.86417578 204.6532405 78.73046875 202.4765625 C78.04946609 202.0151889 77.36846344 201.55381531 76.66682434 201.07846069 C75.23349933 200.10373343 73.80401256 199.12334114 72.37817383 198.13769531 C70.18663437 196.62440227 67.98230626 195.13137945 65.77539062 193.640625 C64.38461999 192.69127022 62.99461812 191.74078803 61.60546875 190.7890625 C60.94306686 190.34003571 60.28066498 189.89100891 59.59819031 189.42837524 C58.02843636 188.33699672 56.50829728 187.17485057 55 186 C55 185.34 55 184.68 55 184 C60.28 184 65.56 184 71 184 C71 183.34 71 182.68 71 182 C47.57 182 24.14 182 0 182 C0 121.94 0 61.88 0 0 Z " fill="#CFE2F3" transform="translate(306,73)"/>
<path d="M0 0 C58.08 0 116.16 0 176 0 C176 60.06 176 120.12 176 182 C117.92 182 59.84 182 0 182 C0 121.94 0 61.88 0 0 Z " fill="#CFE2F3" transform="translate(497,305)"/>
<path d="M0 0 C58.08 0 116.16 0 176 0 C176 60.06 176 120.12 176 182 C117.92 182 59.84 182 0 182 C0 121.94 0 61.88 0 0 Z " fill="#CFE2F3" transform="translate(306,305)"/>
<path d="M0 0 C58.08 0 116.16 0 176 0 C176 60.06 176 120.12 176 182 C117.92 182 59.84 182 0 182 C0 121.94 0 61.88 0 0 Z " fill="#CFE2F3" transform="translate(115,305)"/>
<path d="M0 0 C58.08 0 116.16 0 176 0 C176 60.06 176 120.12 176 182 C117.92 182 59.84 182 0 182 C0 121.94 0 61.88 0 0 Z " fill="#CFE2F3" transform="translate(497,108)"/>
<path d="M0 0 C58.08 0 116.16 0 176 0 C176 60.06 176 120.12 176 182 C117.92 182 59.84 182 0 182 C0 121.94 0 61.88 0 0 Z " fill="#CFE2F3" transform="translate(115,108)"/>
<path d="M0 0 C58.08 0 116.16 0 176 0 C176 60.06 176 120.12 176 182 C152.57 182 129.14 182 105 182 C105 182.66 105 183.32 105 184 C110.61 184 116.22 184 122 184 C120.64617796 188.06146612 117.93589223 189.39632907 114.515625 191.66796875 C113.86301697 192.10764481 113.21040894 192.54732086 112.5380249 193.00032043 C111.15537099 193.92806062 109.76988954 194.85159852 108.38183594 195.77124023 C106.26284084 197.17896934 104.15861069 198.6069836 102.0546875 200.03710938 C100.70918155 200.93616655 99.36285312 201.83399428 98.015625 202.73046875 C97.3883551 203.15853317 96.76108521 203.5865976 96.11480713 204.02763367 C93.63467581 205.65081398 91.42317004 206.90638273 88.51586914 207.54956055 C84.72867533 206.72229482 81.86417578 204.6532405 78.73046875 202.4765625 C78.04946609 202.0151889 77.36846344 201.55381531 76.66682434 201.07846069 C75.23349933 200.10373343 73.80401256 199.12334114 72.37817383 198.13769531 C70.18663437 196.62440227 67.98230626 195.13137945 65.77539062 193.640625 C64.38461999 192.69127022 62.99461812 191.74078803 61.60546875 190.7890625 C60.94306686 190.34003571 60.28066498 189.89100891 59.59819031 189.42837524 C58.02843636 188.33699672 56.50829728 187.17485057 55 186 C55 185.34 55 184.68 55 184 C60.28 184 65.56 184 71 184 C71 183.34 71 182.68 71 182 C47.57 182 24.14 182 0 182 C0 121.94 0 61.88 0 0 Z M8 8 C8 62.45 8 116.9 8 173 C28.79 173 49.58 173 71 173 C71 169.04 71 165.08 71 161 C82.22 161 93.44 161 105 161 C105 164.96 105 168.92 105 173 C125.79 173 146.58 173 168 173 C168 118.55 168 64.1 168 8 C115.2 8 62.4 8 8 8 Z " fill="#000001" transform="translate(306,73)"/>
<path d="M0 0 C58.08 0 116.16 0 176 0 C176 60.06 176 120.12 176 182 C117.92 182 59.84 182 0 182 C0 121.94 0 61.88 0 0 Z M8 8 C8 62.45 8 116.9 8 173 C60.8 173 113.6 173 168 173 C168 118.55 168 64.1 168 8 C115.2 8 62.4 8 8 8 Z " fill="#E1ECF6" transform="translate(497,305)"/>
<path d="M0 0 C58.08 0 116.16 0 176 0 C176 60.06 176 120.12 176 182 C117.92 182 59.84 182 0 182 C0 121.94 0 61.88 0 0 Z M8 8 C8 62.45 8 116.9 8 173 C60.8 173 113.6 173 168 173 C168 118.55 168 64.1 168 8 C115.2 8 62.4 8 8 8 Z " fill="#E1ECF6" transform="translate(306,305)"/>
<path d="M0 0 C58.08 0 116.16 0 176 0 C176 60.06 176 120.12 176 182 C117.92 182 59.84 182 0 182 C0 121.94 0 61.88 0 0 Z M8 8 C8 62.45 8 116.9 8 173 C60.8 173 113.6 173 168 173 C168 118.55 168 64.1 168 8 C115.2 8 62.4 8 8 8 Z " fill="#E1ECF6" transform="translate(115,305)"/>
<path d="M0 0 C58.08 0 116.16 0 176 0 C176 60.06 176 120.12 176 182 C117.92 182 59.84 182 0 182 C0 121.94 0 61.88 0 0 Z M8 8 C8 62.78 8 117.56 8 174 C60.8 174 113.6 174 168 174 C168 119.22 168 64.44 168 8 C115.2 8 62.4 8 8 8 Z " fill="#35393E" transform="translate(497,108)"/>
<path d="M0 0 C58.08 0 116.16 0 176 0 C176 60.06 176 120.12 176 182 C117.92 182 59.84 182 0 182 C0 121.94 0 61.88 0 0 Z M8 8 C8 62.78 8 117.56 8 174 C60.8 174 113.6 174 168 174 C168 119.22 168 64.44 168 8 C115.2 8 62.4 8 8 8 Z " fill="#35393E" transform="translate(115,108)"/>
<path d="M0 0 C1.90119803 0.00138269 1.90119803 0.00138269 3.8408041 0.00279331 C4.89564225 0.00151167 4.89564225 0.00151167 5.97179025 0.00020415 C8.34566959 -0.0014527 10.71947941 0.00407402 13.09335232 0.00952244 C14.78805954 0.00980429 16.48276688 0.00964661 18.17747402 0.00907993 C22.79298069 0.00879189 27.4084616 0.01468974 32.02396226 0.02165389 C36.84196707 0.02788627 41.6599724 0.02849113 46.47798061 0.0296793 C55.6081894 0.03279296 64.73838628 0.04100681 73.86858982 0.05102879 C84.26019119 0.06218885 94.65179311 0.06770011 105.04339898 0.07272422 C126.42586079 0.0831894 147.80831186 0.1007895 169.19076443 0.12304783 C165.12557884 5.90361834 165.12557884 5.90361834 161.04551125 6.8613348 C159.26045913 6.85303866 159.26045913 6.85303866 157.43934536 6.84457493 C156.77513577 6.84971104 156.11092617 6.85484715 155.42658901 6.86013889 C153.20074815 6.87004672 150.9776355 6.83698387 148.75204372 6.80420017 C147.12944182 6.80236162 145.50683512 6.80316404 143.88423538 6.80639172 C139.54148604 6.80774551 135.19973 6.77299014 130.85721493 6.7307291 C126.78139546 6.69654092 122.70581671 6.69494955 118.62985134 6.69067478 C106.71252429 6.6591996 94.79538179 6.57543245 82.87826443 6.49804783 C56.25138943 6.37429783 29.62451443 6.25054783 2.19076443 6.12304783 C2.19076443 61.23304783 2.19076443 116.34304783 2.19076443 173.12304783 C23.31076443 173.12304783 44.43076443 173.12304783 66.19076443 173.12304783 C66.19076443 175.43304783 66.19076443 177.74304783 66.19076443 180.12304783 C57.21155665 180.14617349 48.23235906 180.16396405 39.25312805 180.17486 C35.08413615 180.18008834 30.91516456 180.18718509 26.74618435 180.19848728 C22.72618757 180.20931791 18.70621038 180.21532503 14.68620014 180.21792507 C13.14913468 180.219779 11.61207033 180.22339901 10.07501316 180.22877789 C7.92940956 180.23599067 5.78388788 180.23703867 3.63827419 180.23657322 C2.41471722 180.23879383 1.19116024 180.24101444 -0.06947422 180.24330235 C-2.80923557 180.12304783 -2.80923557 180.12304783 -3.80923557 179.12304783 C-3.90854101 176.83444563 -3.93556013 174.54270966 -3.93621922 172.25195408 C-3.93777921 171.5249329 -3.9393392 170.79791172 -3.94094646 170.0488596 C-3.94495904 167.59440218 -3.94176583 165.14000579 -3.9386301 162.68554783 C-3.93998403 160.93335019 -3.94176391 159.18115284 -3.94394016 157.42895603 C-3.94851552 152.65636599 -3.94672452 147.88379745 -3.94356108 143.11120701 C-3.941038 138.12817417 -3.94337487 133.14514324 -3.94494724 128.16211033 C-3.94676909 119.79231528 -3.94436223 111.42252904 -3.93960667 103.05273533 C-3.93416402 93.36144397 -3.93592666 83.67017364 -3.94143307 73.97888279 C-3.94596376 65.67403069 -3.94661497 57.36918494 -3.9439944 49.06433201 C-3.94243139 44.09724679 -3.94223853 39.13017148 -3.94553089 34.16308689 C-3.94840897 29.49448755 -3.94643509 24.82591545 -3.94063663 20.15731907 C-3.93930869 18.43875264 -3.93970372 16.72018393 -3.9418993 15.00161839 C-3.94460949 12.66576129 -3.94123132 10.32999294 -3.93621922 7.99414158 C-3.93584219 6.68372898 -3.93546516 5.37331638 -3.93507671 4.02319431 C-3.76766585 0.1650282 -3.76766585 0.1650282 0 0 Z " fill="#E1ECF6" transform="translate(310.80923557281494,73.87695217132568)"/>
<path d="M0 0 C58.08 0 116.16 0 176 0 C176 60.06 176 120.12 176 182 C117.92 182 59.84 182 0 182 C0 121.94 0 61.88 0 0 Z M1 2 C0.90069456 4.28860219 0.87367544 6.58033817 0.87301636 8.87109375 C0.87145637 9.59811493 0.86989638 10.32513611 0.86828911 11.07418823 C0.86427653 13.52864565 0.86746974 15.98304204 0.87060547 18.4375 C0.86925154 20.18969764 0.86747166 21.94189499 0.86529541 23.6940918 C0.86072005 28.46668184 0.86251106 33.23925038 0.8656745 38.01184082 C0.86819757 42.99487366 0.86586071 47.97790459 0.86428833 52.9609375 C0.86246648 61.33073255 0.86487335 69.70051879 0.86962891 78.0703125 C0.87507156 87.76160386 0.87330891 97.45287419 0.8678025 107.14416504 C0.86327181 115.44901714 0.86262061 123.75386289 0.86524117 132.05871582 C0.86680419 137.02580104 0.86699704 141.99287635 0.86370468 146.95996094 C0.8608266 151.62856028 0.86280049 156.29713238 0.86859894 160.96572876 C0.86992688 162.68429519 0.86953185 164.4028639 0.86733627 166.12142944 C0.86462609 168.45728654 0.86800425 170.79305489 0.87301636 173.12890625 C0.87339338 174.43931885 0.87377041 175.74973145 0.87415886 177.09985352 C0.66811067 179.89337354 0.66811067 179.89337354 2 181 C4.2149186 181.09701605 6.43299797 181.12186691 8.65003967 181.12025452 C9.3532651 181.12110894 10.05649053 181.12196337 10.78102583 181.12284368 C13.15490516 181.12450053 15.52871498 181.1189738 17.90258789 181.11352539 C19.59729511 181.11324354 21.29200245 181.11340122 22.98670959 181.1139679 C27.60221626 181.11425594 32.21769717 181.10835809 36.83319783 181.10139394 C41.65120264 181.09516156 46.46920797 181.09455669 51.28721619 181.09336853 C60.41742498 181.09025487 69.54762186 181.08204102 78.67782539 181.07201904 C89.06942676 181.06085898 99.46102868 181.05534772 109.85263455 181.05032361 C131.23509636 181.03985843 152.61754743 181.02225832 174 181 C172.53121973 177.69868628 171.78567625 176.18119594 169 174 C163.88350713 172.91658687 158.76267294 173.11593433 153.5612793 173.20532227 C151.93867771 173.20746724 150.31606959 173.20653108 148.69347095 173.20276546 C144.35057388 173.20118598 140.00902871 173.24173326 135.6664505 173.29103851 C131.59061963 173.33092484 127.51511638 173.33278125 123.43908691 173.33776855 C111.52171241 173.37448975 99.6045891 173.47221816 87.6875 173.5625 C47.7471875 173.7790625 47.7471875 173.7790625 7 174 C7 118.89 7 63.78 7 7 C87.6875 7.375 87.6875 7.375 113.1784668 7.54052734 C120.70938136 7.56059213 120.70938136 7.56059213 128.24031067 7.57266235 C131.59866546 7.57825967 134.95645303 7.60077163 138.31465149 7.63345337 C142.5972887 7.67458019 146.87910001 7.68695303 151.16191638 7.67843366 C152.73427151 7.68021527 154.30665522 7.69213198 155.8788408 7.71529078 C158.00313305 7.74513066 160.1242154 7.7379541 162.24858093 7.7215271 C164.03363305 7.72982324 164.03363305 7.72982324 165.85474682 7.73828697 C170.2989095 6.69510627 171.41377074 4.67753952 174 1 C151.59125806 0.97667335 129.18251812 0.95902198 106.77376652 0.94818783 C96.36976275 0.94302437 85.96576651 0.93598074 75.56176758 0.92456055 C66.49709726 0.91461522 57.4324324 0.90814693 48.36775678 0.90591151 C43.56497392 0.90460414 38.76220666 0.90151667 33.95942879 0.89426994 C29.444332 0.88751211 24.92925732 0.88538255 20.41415596 0.88689232 C18.7520282 0.88661588 17.08989974 0.88460936 15.42777634 0.88079453 C13.16850308 0.87586096 10.90931466 0.87700045 8.65003967 0.87974548 C6.74884164 0.87836279 6.74884164 0.87836279 4.80923557 0.87695217 C2.09591254 0.67892512 2.09591254 0.67892512 1 2 Z M8 8 C8 62.45 8 116.9 8 173 C60.8 173 113.6 173 168 173 C168 118.55 168 64.1 168 8 C115.2 8 62.4 8 8 8 Z " fill="#35393E" transform="translate(497,305)"/>
<path d="M0 0 C58.08 0 116.16 0 176 0 C176 60.06 176 120.12 176 182 C117.92 182 59.84 182 0 182 C0 121.94 0 61.88 0 0 Z M1 2 C0.90069456 4.28860219 0.87367544 6.58033817 0.87301636 8.87109375 C0.87145637 9.59811493 0.86989638 10.32513611 0.86828911 11.07418823 C0.86427653 13.52864565 0.86746974 15.98304204 0.87060547 18.4375 C0.86925154 20.18969764 0.86747166 21.94189499 0.86529541 23.6940918 C0.86072005 28.46668184 0.86251106 33.23925038 0.8656745 38.01184082 C0.86819757 42.99487366 0.86586071 47.97790459 0.86428833 52.9609375 C0.86246648 61.33073255 0.86487335 69.70051879 0.86962891 78.0703125 C0.87507156 87.76160386 0.87330891 97.45287419 0.8678025 107.14416504 C0.86327181 115.44901714 0.86262061 123.75386289 0.86524117 132.05871582 C0.86680419 137.02580104 0.86699704 141.99287635 0.86370468 146.95996094 C0.8608266 151.62856028 0.86280049 156.29713238 0.86859894 160.96572876 C0.86992688 162.68429519 0.86953185 164.4028639 0.86733627 166.12142944 C0.86462609 168.45728654 0.86800425 170.79305489 0.87301636 173.12890625 C0.87339338 174.43931885 0.87377041 175.74973145 0.87415886 177.09985352 C0.66811067 179.89337354 0.66811067 179.89337354 2 181 C4.2149186 181.09701605 6.43299797 181.12186691 8.65003967 181.12025452 C9.3532651 181.12110894 10.05649053 181.12196337 10.78102583 181.12284368 C13.15490516 181.12450053 15.52871498 181.1189738 17.90258789 181.11352539 C19.59729511 181.11324354 21.29200245 181.11340122 22.98670959 181.1139679 C27.60221626 181.11425594 32.21769717 181.10835809 36.83319783 181.10139394 C41.65120264 181.09516156 46.46920797 181.09455669 51.28721619 181.09336853 C60.41742498 181.09025487 69.54762186 181.08204102 78.67782539 181.07201904 C89.06942676 181.06085898 99.46102868 181.05534772 109.85263455 181.05032361 C131.23509636 181.03985843 152.61754743 181.02225832 174 181 C172.53121973 177.69868628 171.78567625 176.18119594 169 174 C163.88350713 172.91658687 158.76267294 173.11593433 153.5612793 173.20532227 C151.93867771 173.20746724 150.31606959 173.20653108 148.69347095 173.20276546 C144.35057388 173.20118598 140.00902871 173.24173326 135.6664505 173.29103851 C131.59061963 173.33092484 127.51511638 173.33278125 123.43908691 173.33776855 C111.52171241 173.37448975 99.6045891 173.47221816 87.6875 173.5625 C47.7471875 173.7790625 47.7471875 173.7790625 7 174 C7 118.89 7 63.78 7 7 C87.6875 7.375 87.6875 7.375 113.1784668 7.54052734 C120.70938136 7.56059213 120.70938136 7.56059213 128.24031067 7.57266235 C131.59866546 7.57825967 134.95645303 7.60077163 138.31465149 7.63345337 C142.5972887 7.67458019 146.87910001 7.68695303 151.16191638 7.67843366 C152.73427151 7.68021527 154.30665522 7.69213198 155.8788408 7.71529078 C158.00313305 7.74513066 160.1242154 7.7379541 162.24858093 7.7215271 C164.03363305 7.72982324 164.03363305 7.72982324 165.85474682 7.73828697 C170.2989095 6.69510627 171.41377074 4.67753952 174 1 C151.59125806 0.97667335 129.18251812 0.95902198 106.77376652 0.94818783 C96.36976275 0.94302437 85.96576651 0.93598074 75.56176758 0.92456055 C66.49709726 0.91461522 57.4324324 0.90814693 48.36775678 0.90591151 C43.56497392 0.90460414 38.76220666 0.90151667 33.95942879 0.89426994 C29.444332 0.88751211 24.92925732 0.88538255 20.41415596 0.88689232 C18.7520282 0.88661588 17.08989974 0.88460936 15.42777634 0.88079453 C13.16850308 0.87586096 10.90931466 0.87700045 8.65003967 0.87974548 C6.74884164 0.87836279 6.74884164 0.87836279 4.80923557 0.87695217 C2.09591254 0.67892512 2.09591254 0.67892512 1 2 Z M8 8 C8 62.45 8 116.9 8 173 C60.8 173 113.6 173 168 173 C168 118.55 168 64.1 168 8 C115.2 8 62.4 8 8 8 Z " fill="#35393E" transform="translate(306,305)"/>
<path d="M0 0 C58.08 0 116.16 0 176 0 C176 60.06 176 120.12 176 182 C117.92 182 59.84 182 0 182 C0 121.94 0 61.88 0 0 Z M1 2 C0.90069456 4.28860219 0.87367544 6.58033817 0.87301636 8.87109375 C0.87145637 9.59811493 0.86989638 10.32513611 0.86828911 11.07418823 C0.86427653 13.52864565 0.86746974 15.98304204 0.87060547 18.4375 C0.86925154 20.18969764 0.86747166 21.94189499 0.86529541 23.6940918 C0.86072005 28.46668184 0.86251106 33.23925038 0.8656745 38.01184082 C0.86819757 42.99487366 0.86586071 47.97790459 0.86428833 52.9609375 C0.86246648 61.33073255 0.86487335 69.70051879 0.86962891 78.0703125 C0.87507156 87.76160386 0.87330891 97.45287419 0.8678025 107.14416504 C0.86327181 115.44901714 0.86262061 123.75386289 0.86524117 132.05871582 C0.86680419 137.02580104 0.86699704 141.99287635 0.86370468 146.95996094 C0.8608266 151.62856028 0.86280049 156.29713238 0.86859894 160.96572876 C0.86992688 162.68429519 0.86953185 164.4028639 0.86733627 166.12142944 C0.86462609 168.45728654 0.86800425 170.79305489 0.87301636 173.12890625 C0.87339338 174.43931885 0.87377041 175.74973145 0.87415886 177.09985352 C0.66811067 179.89337354 0.66811067 179.89337354 2 181 C4.2149186 181.09701605 6.43299797 181.12186691 8.65003967 181.12025452 C9.3532651 181.12110894 10.05649053 181.12196337 10.78102583 181.12284368 C13.15490516 181.12450053 15.52871498 181.1189738 17.90258789 181.11352539 C19.59729511 181.11324354 21.29200245 181.11340122 22.98670959 181.1139679 C27.60221626 181.11425594 32.21769717 181.10835809 36.83319783 181.10139394 C41.65120264 181.09516156 46.46920797 181.09455669 51.28721619 181.09336853 C60.41742498 181.09025487 69.54762186 181.08204102 78.67782539 181.07201904 C89.06942676 181.06085898 99.46102868 181.05534772 109.85263455 181.05032361 C131.23509636 181.03985843 152.61754743 181.02225832 174 181 C172.53121973 177.69868628 171.78567625 176.18119594 169 174 C163.88350713 172.91658687 158.76267294 173.11593433 153.5612793 173.20532227 C151.93867771 173.20746724 150.31606959 173.20653108 148.69347095 173.20276546 C144.35057388 173.20118598 140.00902871 173.24173326 135.6664505 173.29103851 C131.59061963 173.33092484 127.51511638 173.33278125 123.43908691 173.33776855 C111.52171241 173.37448975 99.6045891 173.47221816 87.6875 173.5625 C47.7471875 173.7790625 47.7471875 173.7790625 7 174 C7 118.89 7 63.78 7 7 C87.6875 7.375 87.6875 7.375 113.1784668 7.54052734 C120.70938136 7.56059213 120.70938136 7.56059213 128.24031067 7.57266235 C131.59866546 7.57825967 134.95645303 7.60077163 138.31465149 7.63345337 C142.5972887 7.67458019 146.87910001 7.68695303 151.16191638 7.67843366 C152.73427151 7.68021527 154.30665522 7.69213198 155.8788408 7.71529078 C158.00313305 7.74513066 160.1242154 7.7379541 162.24858093 7.7215271 C164.03363305 7.72982324 164.03363305 7.72982324 165.85474682 7.73828697 C170.2989095 6.69510627 171.41377074 4.67753952 174 1 C151.59125806 0.97667335 129.18251812 0.95902198 106.77376652 0.94818783 C96.36976275 0.94302437 85.96576651 0.93598074 75.56176758 0.92456055 C66.49709726 0.91461522 57.4324324 0.90814693 48.36775678 0.90591151 C43.56497392 0.90460414 38.76220666 0.90151667 33.95942879 0.89426994 C29.444332 0.88751211 24.92925732 0.88538255 20.41415596 0.88689232 C18.7520282 0.88661588 17.08989974 0.88460936 15.42777634 0.88079453 C13.16850308 0.87586096 10.90931466 0.87700045 8.65003967 0.87974548 C6.74884164 0.87836279 6.74884164 0.87836279 4.80923557 0.87695217 C2.09591254 0.67892512 2.09591254 0.67892512 1 2 Z M8 8 C8 62.45 8 116.9 8 173 C60.8 173 113.6 173 168 173 C168 118.55 168 64.1 168 8 C115.2 8 62.4 8 8 8 Z " fill="#35393E" transform="translate(115,305)"/>
<path d="M0 0 C1.90119803 0.00138269 1.90119803 0.00138269 3.8408041 0.00279331 C4.89564225 0.00151167 4.89564225 0.00151167 5.97179025 0.00020415 C8.34566959 -0.0014527 10.71947941 0.00407402 13.09335232 0.00952244 C14.78805954 0.00980429 16.48276688 0.00964661 18.17747402 0.00907993 C22.79298069 0.00879189 27.4084616 0.01468974 32.02396226 0.02165389 C36.84196707 0.02788627 41.6599724 0.02849113 46.47798061 0.0296793 C55.6081894 0.03279296 64.73838628 0.04100681 73.86858982 0.05102879 C84.26019119 0.06218885 94.65179311 0.06770011 105.04339898 0.07272422 C126.42586079 0.0831894 147.80831186 0.1007895 169.19076443 0.12304783 C165.12557884 5.90361834 165.12557884 5.90361834 161.04551125 6.8613348 C159.26045913 6.85303866 159.26045913 6.85303866 157.43934536 6.84457493 C156.77353775 6.84970148 156.10773015 6.85482803 155.42174655 6.86010993 C153.19751684 6.86996962 150.97602174 6.83704174 148.75204372 6.80420017 C147.15526805 6.8025072 145.5584877 6.80345876 143.96171474 6.8068552 C139.63116063 6.80857641 135.30160407 6.7733069 130.97128177 6.73141146 C126.44429984 6.69389798 121.91729492 6.69037862 117.39018154 6.68325901 C108.81946345 6.66461193 100.24920467 6.61537691 91.67868882 6.55516207 C81.92066147 6.48809255 72.16261215 6.45510684 62.40441167 6.42498946 C42.33293958 6.36227764 22.26188094 6.25674537 2.19076443 6.12304783 C2.19629519 6.98426589 2.20182594 7.84548395 2.2075243 8.73279953 C2.33998733 29.68092251 2.43929768 50.62897338 2.50163746 71.57742691 C2.53258531 81.7079398 2.5747836 91.83817327 2.64340115 101.96850681 C2.7031747 110.79736271 2.74190682 119.62601627 2.7552954 128.45506889 C2.76312267 133.13079487 2.78153747 137.80594194 2.82514477 142.48148251 C2.86585372 146.88189305 2.87843713 151.28148596 2.86941051 155.68206692 C2.87106195 157.29740689 2.88300783 158.91277403 2.90599728 160.52795124 C2.93586153 162.73425386 2.92867707 164.93747139 2.91229153 167.14384556 C2.91782228 168.37812636 2.92335304 169.61240717 2.9290514 170.88409042 C1.89612966 175.41564743 -0.05992776 176.50441133 -3.80923557 179.12304783 C-3.83256201 155.93200295 -3.85021349 132.74095999 -3.86104774 109.54990578 C-3.86621125 98.78269719 -3.87325497 88.01549588 -3.88467503 77.24829197 C-3.89462022 67.86719538 -3.90108861 58.48610406 -3.90332407 49.10500234 C-3.90463146 44.13454565 -3.90771908 39.16410403 -3.91496563 34.19365215 C-3.92172325 29.5209666 -3.92385306 24.84830242 -3.92234325 20.17561245 C-3.9226197 18.45543267 -3.92462635 16.73525221 -3.92844105 15.01507664 C-3.93337427 12.67698122 -3.93223525 10.33896779 -3.92949009 8.0008707 C-3.93041188 6.68915929 -3.93133368 5.37744787 -3.9322834 4.02598763 C-3.76862948 0.16507041 -3.76862948 0.16507041 0 0 Z " fill="#E1ECF6" transform="translate(501.80923557281494,108.87695217132568)"/>
<path d="M0 0 C1.90119803 0.00138269 1.90119803 0.00138269 3.8408041 0.00279331 C4.89564225 0.00151167 4.89564225 0.00151167 5.97179025 0.00020415 C8.34566959 -0.0014527 10.71947941 0.00407402 13.09335232 0.00952244 C14.78805954 0.00980429 16.48276688 0.00964661 18.17747402 0.00907993 C22.79298069 0.00879189 27.4084616 0.01468974 32.02396226 0.02165389 C36.84196707 0.02788627 41.6599724 0.02849113 46.47798061 0.0296793 C55.6081894 0.03279296 64.73838628 0.04100681 73.86858982 0.05102879 C84.26019119 0.06218885 94.65179311 0.06770011 105.04339898 0.07272422 C126.42586079 0.0831894 147.80831186 0.1007895 169.19076443 0.12304783 C165.12557884 5.90361834 165.12557884 5.90361834 161.04551125 6.8613348 C159.26045913 6.85303866 159.26045913 6.85303866 157.43934536 6.84457493 C156.77353775 6.84970148 156.10773015 6.85482803 155.42174655 6.86010993 C153.19751684 6.86996962 150.97602174 6.83704174 148.75204372 6.80420017 C147.15526805 6.8025072 145.5584877 6.80345876 143.96171474 6.8068552 C139.63116063 6.80857641 135.30160407 6.7733069 130.97128177 6.73141146 C126.44429984 6.69389798 121.91729492 6.69037862 117.39018154 6.68325901 C108.81946345 6.66461193 100.24920467 6.61537691 91.67868882 6.55516207 C81.92066147 6.48809255 72.16261215 6.45510684 62.40441167 6.42498946 C42.33293958 6.36227764 22.26188094 6.25674537 2.19076443 6.12304783 C2.19629519 6.98426589 2.20182594 7.84548395 2.2075243 8.73279953 C2.33998733 29.68092251 2.43929768 50.62897338 2.50163746 71.57742691 C2.53258531 81.7079398 2.5747836 91.83817327 2.64340115 101.96850681 C2.7031747 110.79736271 2.74190682 119.62601627 2.7552954 128.45506889 C2.76312267 133.13079487 2.78153747 137.80594194 2.82514477 142.48148251 C2.86585372 146.88189305 2.87843713 151.28148596 2.86941051 155.68206692 C2.87106195 157.29740689 2.88300783 158.91277403 2.90599728 160.52795124 C2.93586153 162.73425386 2.92867707 164.93747139 2.91229153 167.14384556 C2.91782228 168.37812636 2.92335304 169.61240717 2.9290514 170.88409042 C1.89612966 175.41564743 -0.05992776 176.50441133 -3.80923557 179.12304783 C-3.83256201 155.93200295 -3.85021349 132.74095999 -3.86104774 109.54990578 C-3.86621125 98.78269719 -3.87325497 88.01549588 -3.88467503 77.24829197 C-3.89462022 67.86719538 -3.90108861 58.48610406 -3.90332407 49.10500234 C-3.90463146 44.13454565 -3.90771908 39.16410403 -3.91496563 34.19365215 C-3.92172325 29.5209666 -3.92385306 24.84830242 -3.92234325 20.17561245 C-3.9226197 18.45543267 -3.92462635 16.73525221 -3.92844105 15.01507664 C-3.93337427 12.67698122 -3.93223525 10.33896779 -3.92949009 8.0008707 C-3.93041188 6.68915929 -3.93133368 5.37744787 -3.9322834 4.02598763 C-3.76862948 0.16507041 -3.76862948 0.16507041 0 0 Z " fill="#E1ECF6" transform="translate(119.80923557281494,108.87695217132568)"/>
<path d="M0 0 C10.56 0 21.12 0 32 0 C32 7.59 32 15.18 32 23 C36.95 23 41.9 23 47 23 C37.40994723 30.67204222 27.37534048 37.45671958 17 44 C9.29909681 39.77295733 2.00140587 35.0747813 -5.25 30.125 C-6.10827393 29.54145752 -6.96654785 28.95791504 -7.85083008 28.35668945 C-8.6477124 27.80843506 -9.44459473 27.26018066 -10.265625 26.6953125 C-10.98524414 26.20047363 -11.70486328 25.70563477 -12.44628906 25.19580078 C-12.95901367 24.80118652 -13.47173828 24.40657227 -14 24 C-14 23.67 -14 23.34 -14 23 C-9.38 23 -4.76 23 0 23 C0 15.41 0 7.82 0 0 Z " fill="#0000FD" transform="translate(378,235)"/>
<path d="M0 0 C0.66465448 -0.00750224 1.32930896 -0.01500447 2.01410449 -0.02273405 C4.24584408 -0.04410125 6.47705844 -0.04395041 8.70889282 -0.04379272 C10.30712198 -0.05440398 11.90534345 -0.06623367 13.5035553 -0.07919312 C17.84863832 -0.11000869 22.19355667 -0.12111859 26.53873777 -0.12683535 C29.25263694 -0.13118614 31.96649325 -0.13955835 34.68037796 -0.14933395 C44.14612264 -0.18309231 53.61174247 -0.20021688 63.07754517 -0.20297241 C71.90453996 -0.20600784 80.73083467 -0.24645818 89.55762613 -0.30412066 C97.13310086 -0.35186798 104.70834424 -0.37270444 112.28396857 -0.37276304 C116.80988605 -0.37330167 121.33511819 -0.38494195 125.86088181 -0.42393875 C130.11788244 -0.45974953 134.37360363 -0.46211724 138.63067818 -0.43876648 C140.19278672 -0.43590157 141.75496996 -0.44499931 143.31692696 -0.46694565 C145.45132526 -0.49507473 147.58124721 -0.4799832 149.71557617 -0.45410156 C150.9090888 -0.45665766 152.10260143 -0.45921375 153.33228111 -0.46184731 C156.48477173 0.40786743 156.48477173 0.40786743 161.48477173 7.40786743 C104.72477173 7.40786743 47.96477173 7.40786743 -10.51522827 7.40786743 C-8.83272605 0.67785853 -6.7612552 0.03586147 0 0 Z " fill="#A3B2C0" transform="translate(509.5152282714844,478.5921325683594)"/>
<path d="M0 0 C0.66465448 -0.00750224 1.32930896 -0.01500447 2.01410449 -0.02273405 C4.24584408 -0.04410125 6.47705844 -0.04395041 8.70889282 -0.04379272 C10.30712198 -0.05440398 11.90534345 -0.06623367 13.5035553 -0.07919312 C17.84863832 -0.11000869 22.19355667 -0.12111859 26.53873777 -0.12683535 C29.25263694 -0.13118614 31.96649325 -0.13955835 34.68037796 -0.14933395 C44.14612264 -0.18309231 53.61174247 -0.20021688 63.07754517 -0.20297241 C71.90453996 -0.20600784 80.73083467 -0.24645818 89.55762613 -0.30412066 C97.13310086 -0.35186798 104.70834424 -0.37270444 112.28396857 -0.37276304 C116.80988605 -0.37330167 121.33511819 -0.38494195 125.86088181 -0.42393875 C130.11788244 -0.45974953 134.37360363 -0.46211724 138.63067818 -0.43876648 C140.19278672 -0.43590157 141.75496996 -0.44499931 143.31692696 -0.46694565 C145.45132526 -0.49507473 147.58124721 -0.4799832 149.71557617 -0.45410156 C150.9090888 -0.45665766 152.10260143 -0.45921375 153.33228111 -0.46184731 C156.48477173 0.40786743 156.48477173 0.40786743 161.48477173 7.40786743 C104.72477173 7.40786743 47.96477173 7.40786743 -10.51522827 7.40786743 C-8.83272605 0.67785853 -6.7612552 0.03586147 0 0 Z " fill="#A3B2C0" transform="translate(318.5152282714844,478.5921325683594)"/>
<path d="M0 0 C0.66465448 -0.00750224 1.32930896 -0.01500447 2.01410449 -0.02273405 C4.24584408 -0.04410125 6.47705844 -0.04395041 8.70889282 -0.04379272 C10.30712198 -0.05440398 11.90534345 -0.06623367 13.5035553 -0.07919312 C17.84863832 -0.11000869 22.19355667 -0.12111859 26.53873777 -0.12683535 C29.25263694 -0.13118614 31.96649325 -0.13955835 34.68037796 -0.14933395 C44.14612264 -0.18309231 53.61174247 -0.20021688 63.07754517 -0.20297241 C71.90453996 -0.20600784 80.73083467 -0.24645818 89.55762613 -0.30412066 C97.13310086 -0.35186798 104.70834424 -0.37270444 112.28396857 -0.37276304 C116.80988605 -0.37330167 121.33511819 -0.38494195 125.86088181 -0.42393875 C130.11788244 -0.45974953 134.37360363 -0.46211724 138.63067818 -0.43876648 C140.19278672 -0.43590157 141.75496996 -0.44499931 143.31692696 -0.46694565 C145.45132526 -0.49507473 147.58124721 -0.4799832 149.71557617 -0.45410156 C150.9090888 -0.45665766 152.10260143 -0.45921375 153.33228111 -0.46184731 C156.48477173 0.40786743 156.48477173 0.40786743 161.48477173 7.40786743 C104.72477173 7.40786743 47.96477173 7.40786743 -10.51522827 7.40786743 C-8.83272605 0.67785853 -6.7612552 0.03586147 0 0 Z " fill="#A3B2C0" transform="translate(127.51522827148438,478.5921325683594)"/>
<path d="M0 0 C0 58.08 0 116.16 0 176 C-6 171 -6 171 -6.75225353 167.78783321 C-6.75321687 166.56612203 -6.7541802 165.34441084 -6.75517273 164.0856781 C-6.76382711 163.402275 -6.77248149 162.71887189 -6.78139812 162.0147596 C-6.80294371 159.73093869 -6.78171989 157.44956531 -6.76049805 155.16577148 C-6.76699294 153.52621295 -6.77605518 151.88666287 -6.78749084 150.24713135 C-6.81056636 145.79865835 -6.79585727 141.35104357 -6.77302146 136.90259814 C-6.75410725 132.24796498 -6.76526333 127.59338949 -6.77192688 122.93873596 C-6.778267 115.12316248 -6.75999879 107.30793296 -6.72729492 99.49243164 C-6.68978737 90.45416093 -6.69158487 81.41654143 -6.7143361 72.37823623 C-6.73527608 63.68514599 -6.72801721 54.99229663 -6.70801735 46.2992115 C-6.70002672 42.59867545 -6.70202827 38.89834291 -6.71204185 35.19781303 C-6.72258346 30.84158345 -6.70849431 26.48611395 -6.67529869 22.13000488 C-6.66708248 20.53043243 -6.66738609 18.93079043 -6.67677689 17.33122444 C-6.68818205 15.149075 -6.66886577 12.96929826 -6.64164734 10.78733826 C-6.63846339 9.5660041 -6.63527945 8.34466993 -6.63199902 7.08632565 C-6 4 -6 4 -3.52239704 1.57579136 C-1 0 -1 0 0 0 Z " fill="#7B8690" transform="translate(481,76)"/>
<path d="M0 0 C56.76 0 113.52 0 172 0 C167 6 167 6 163.88991737 6.74666691 C162.71634871 6.74503261 161.54278004 6.7433983 160.33364868 6.74171448 C159.67686359 6.74895772 159.02007849 6.75620097 158.34339082 6.76366371 C156.14939451 6.78053034 153.95803729 6.7546323 151.76416016 6.72875977 C150.18858634 6.73197976 148.613016 6.7377981 147.03746033 6.74601746 C142.76227794 6.76055115 138.48803607 6.73761055 134.2129674 6.70715833 C129.73593264 6.68078394 125.25892644 6.68608987 120.78182983 6.6872406 C113.26129449 6.68443133 105.74112236 6.65839313 98.22070312 6.61743164 C89.53365157 6.57028976 80.84699807 6.55443621 72.15982783 6.5566383 C62.90403555 6.55866747 53.64839619 6.53782404 44.39265013 6.51029849 C41.72970336 6.50391378 39.06678138 6.50177619 36.40382767 6.50058174 C32.21271097 6.49755989 28.02192625 6.47917673 23.83091927 6.44908333 C22.29549634 6.44034755 20.76003519 6.43662427 19.22458839 6.43836594 C17.12281642 6.43984735 15.02196214 6.42278411 12.9203186 6.40113831 C11.74599588 6.39611077 10.57167316 6.39108324 9.36176491 6.38590336 C5.35971165 5.92650009 2.61588387 4.73861649 -1 3 C-0.67 2.01 -0.34 1.02 0 0 Z " fill="#D6E5F3" transform="translate(499,306)"/>
<path d="M0 0 C56.76 0 113.52 0 172 0 C167 6 167 6 163.88991737 6.74666691 C162.71634871 6.74503261 161.54278004 6.7433983 160.33364868 6.74171448 C159.67686359 6.74895772 159.02007849 6.75620097 158.34339082 6.76366371 C156.14939451 6.78053034 153.95803729 6.7546323 151.76416016 6.72875977 C150.18858634 6.73197976 148.613016 6.7377981 147.03746033 6.74601746 C142.76227794 6.76055115 138.48803607 6.73761055 134.2129674 6.70715833 C129.73593264 6.68078394 125.25892644 6.68608987 120.78182983 6.6872406 C113.26129449 6.68443133 105.74112236 6.65839313 98.22070312 6.61743164 C89.53365157 6.57028976 80.84699807 6.55443621 72.15982783 6.5566383 C62.90403555 6.55866747 53.64839619 6.53782404 44.39265013 6.51029849 C41.72970336 6.50391378 39.06678138 6.50177619 36.40382767 6.50058174 C32.21271097 6.49755989 28.02192625 6.47917673 23.83091927 6.44908333 C22.29549634 6.44034755 20.76003519 6.43662427 19.22458839 6.43836594 C17.12281642 6.43984735 15.02196214 6.42278411 12.9203186 6.40113831 C11.74599588 6.39611077 10.57167316 6.39108324 9.36176491 6.38590336 C5.35971165 5.92650009 2.61588387 4.73861649 -1 3 C-0.67 2.01 -0.34 1.02 0 0 Z " fill="#D6E5F3" transform="translate(308,306)"/>
<path d="M0 0 C56.76 0 113.52 0 172 0 C167 6 167 6 163.88991737 6.74666691 C162.71634871 6.74503261 161.54278004 6.7433983 160.33364868 6.74171448 C159.67686359 6.74895772 159.02007849 6.75620097 158.34339082 6.76366371 C156.14939451 6.78053034 153.95803729 6.7546323 151.76416016 6.72875977 C150.18858634 6.73197976 148.613016 6.7377981 147.03746033 6.74601746 C142.76227794 6.76055115 138.48803607 6.73761055 134.2129674 6.70715833 C129.73593264 6.68078394 125.25892644 6.68608987 120.78182983 6.6872406 C113.26129449 6.68443133 105.74112236 6.65839313 98.22070312 6.61743164 C89.53365157 6.57028976 80.84699807 6.55443621 72.15982783 6.5566383 C62.90403555 6.55866747 53.64839619 6.53782404 44.39265013 6.51029849 C41.72970336 6.50391378 39.06678138 6.50177619 36.40382767 6.50058174 C32.21271097 6.49755989 28.02192625 6.47917673 23.83091927 6.44908333 C22.29549634 6.44034755 20.76003519 6.43662427 19.22458839 6.43836594 C17.12281642 6.43984735 15.02196214 6.42278411 12.9203186 6.40113831 C11.74599588 6.39611077 10.57167316 6.39108324 9.36176491 6.38590336 C5.35971165 5.92650009 2.61588387 4.73861649 -1 3 C-0.67 2.01 -0.34 1.02 0 0 Z " fill="#D6E5F3" transform="translate(117,306)"/>
<path d="M0 0 C56.76 0 113.52 0 172 0 C167 6 167 6 163.88991737 6.74666691 C162.71634871 6.74503261 161.54278004 6.7433983 160.33364868 6.74171448 C159.67686359 6.74895772 159.02007849 6.75620097 158.34339082 6.76366371 C156.14939451 6.78053034 153.95803729 6.7546323 151.76416016 6.72875977 C150.18858634 6.73197976 148.613016 6.7377981 147.03746033 6.74601746 C142.76227794 6.76055115 138.48803607 6.73761055 134.2129674 6.70715833 C129.73593264 6.68078394 125.25892644 6.68608987 120.78182983 6.6872406 C113.26129449 6.68443133 105.74112236 6.65839313 98.22070312 6.61743164 C89.53365157 6.57028976 80.84699807 6.55443621 72.15982783 6.5566383 C62.90403555 6.55866747 53.64839619 6.53782404 44.39265013 6.51029849 C41.72970336 6.50391378 39.06678138 6.50177619 36.40382767 6.50058174 C32.21271097 6.49755989 28.02192625 6.47917673 23.83091927 6.44908333 C22.29549634 6.44034755 20.76003519 6.43662427 19.22458839 6.43836594 C17.12281642 6.43984735 15.02196214 6.42278411 12.9203186 6.40113831 C11.74599588 6.39611077 10.57167316 6.39108324 9.36176491 6.38590336 C5.35971165 5.92650009 2.61588387 4.73861649 -1 3 C-0.67 2.01 -0.34 1.02 0 0 Z " fill="#D6E5F3" transform="translate(499,109)"/>
<path d="M0 0 C56.76 0 113.52 0 172 0 C167 6 167 6 163.88991737 6.74666691 C162.71634871 6.74503261 161.54278004 6.7433983 160.33364868 6.74171448 C159.67686359 6.74895772 159.02007849 6.75620097 158.34339082 6.76366371 C156.14939451 6.78053034 153.95803729 6.7546323 151.76416016 6.72875977 C150.18858634 6.73197976 148.613016 6.7377981 147.03746033 6.74601746 C142.76227794 6.76055115 138.48803607 6.73761055 134.2129674 6.70715833 C129.73593264 6.68078394 125.25892644 6.68608987 120.78182983 6.6872406 C113.26129449 6.68443133 105.74112236 6.65839313 98.22070312 6.61743164 C89.53365157 6.57028976 80.84699807 6.55443621 72.15982783 6.5566383 C62.90403555 6.55866747 53.64839619 6.53782404 44.39265013 6.51029849 C41.72970336 6.50391378 39.06678138 6.50177619 36.40382767 6.50058174 C32.21271097 6.49755989 28.02192625 6.47917673 23.83091927 6.44908333 C22.29549634 6.44034755 20.76003519 6.43662427 19.22458839 6.43836594 C17.12281642 6.43984735 15.02196214 6.42278411 12.9203186 6.40113831 C11.74599588 6.39611077 10.57167316 6.39108324 9.36176491 6.38590336 C5.35971165 5.92650009 2.61588387 4.73861649 -1 3 C-0.67 2.01 -0.34 1.02 0 0 Z " fill="#D6E5F3" transform="translate(117,109)"/>
<path d="M0 0 C56.76 0 113.52 0 172 0 C167 6 167 6 163.88991737 6.74666691 C162.71634871 6.74503261 161.54278004 6.7433983 160.33364868 6.74171448 C159.67686359 6.74895772 159.02007849 6.75620097 158.34339082 6.76366371 C156.14939451 6.78053034 153.95803729 6.7546323 151.76416016 6.72875977 C150.18858634 6.73197976 148.613016 6.7377981 147.03746033 6.74601746 C142.76227794 6.76055115 138.48803607 6.73761055 134.2129674 6.70715833 C129.73593264 6.68078394 125.25892644 6.68608987 120.78182983 6.6872406 C113.26129449 6.68443133 105.74112236 6.65839313 98.22070312 6.61743164 C89.53365157 6.57028976 80.84699807 6.55443621 72.15982783 6.5566383 C62.90403555 6.55866747 53.64839619 6.53782404 44.39265013 6.51029849 C41.72970336 6.50391378 39.06678138 6.50177619 36.40382767 6.50058174 C32.21271097 6.49755989 28.02192625 6.47917673 23.83091927 6.44908333 C22.29549634 6.44034755 20.76003519 6.43662427 19.22458839 6.43836594 C17.12281642 6.43984735 15.02196214 6.42278411 12.9203186 6.40113831 C11.74599588 6.39611077 10.57167316 6.39108324 9.36176491 6.38590336 C5.35971165 5.92650009 2.61588387 4.73861649 -1 3 C-0.67 2.01 -0.34 1.02 0 0 Z " fill="#D6E5F3" transform="translate(308,74)"/>
<path d="M0 0 C0.65477853 -0.00508782 1.30955705 -0.01017564 1.98417735 -0.01541764 C4.19434437 -0.03120553 6.40447855 -0.0396838 8.61468506 -0.04811096 C10.19290885 -0.05764438 11.77113051 -0.06753531 13.34934998 -0.07775879 C18.54681907 -0.1092051 23.74430447 -0.12941834 28.9418335 -0.14796448 C29.82520606 -0.1512618 30.70857862 -0.15455912 31.61872005 -0.15795636 C39.94568502 -0.18874141 48.27265349 -0.21545746 56.59965897 -0.23237514 C67.26190215 -0.2542885 77.92364211 -0.29626337 88.58568406 -0.36581272 C96.0761635 -0.41301914 103.56650702 -0.43730427 111.05713058 -0.44457203 C115.53385636 -0.44953383 120.01001564 -0.46466358 124.4865799 -0.50431633 C128.69908372 -0.54113682 132.91069649 -0.54960795 137.12333107 -0.5363102 C138.66932296 -0.53636422 140.21535384 -0.54669328 141.76119804 -0.56806183 C143.8733709 -0.59569729 145.98228358 -0.58626272 148.09448242 -0.56762695 C149.86652479 -0.57397486 149.86652479 -0.57397486 151.674366 -0.58045101 C154.8012085 0.16062927 154.8012085 0.16062927 159.8012085 6.16062927 C103.0412085 6.16062927 46.2812085 6.16062927 -12.1987915 6.16062927 C-6.07353269 0.03537046 -6.07353269 0.03537046 0 0 Z " fill="#A4B3C1" transform="translate(511.19879150390625,282.83937072753906)"/>
<path d="M0 0 C0.65477853 -0.00508782 1.30955705 -0.01017564 1.98417735 -0.01541764 C4.19434437 -0.03120553 6.40447855 -0.0396838 8.61468506 -0.04811096 C10.19290885 -0.05764438 11.77113051 -0.06753531 13.34934998 -0.07775879 C18.54681907 -0.1092051 23.74430447 -0.12941834 28.9418335 -0.14796448 C29.82520606 -0.1512618 30.70857862 -0.15455912 31.61872005 -0.15795636 C39.94568502 -0.18874141 48.27265349 -0.21545746 56.59965897 -0.23237514 C67.26190215 -0.2542885 77.92364211 -0.29626337 88.58568406 -0.36581272 C96.0761635 -0.41301914 103.56650702 -0.43730427 111.05713058 -0.44457203 C115.53385636 -0.44953383 120.01001564 -0.46466358 124.4865799 -0.50431633 C128.69908372 -0.54113682 132.91069649 -0.54960795 137.12333107 -0.5363102 C138.66932296 -0.53636422 140.21535384 -0.54669328 141.76119804 -0.56806183 C143.8733709 -0.59569729 145.98228358 -0.58626272 148.09448242 -0.56762695 C149.86652479 -0.57397486 149.86652479 -0.57397486 151.674366 -0.58045101 C154.8012085 0.16062927 154.8012085 0.16062927 159.8012085 6.16062927 C103.0412085 6.16062927 46.2812085 6.16062927 -12.1987915 6.16062927 C-6.07353269 0.03537046 -6.07353269 0.03537046 0 0 Z " fill="#A4B3C1" transform="translate(129.19879150390625,282.83937072753906)"/>
<path d="M0 0 C1.30112228 0.00022659 2.60224457 0.00045319 3.9427948 0.00068665 C5.36331526 0.01600665 6.78383221 0.03165464 8.2043457 0.04760742 C9.65736961 0.05320342 11.11039919 0.0574735 12.56343079 0.06047058 C16.38583025 0.07191922 20.20788715 0.10138618 24.03015137 0.13458252 C27.93126796 0.16528322 31.83243997 0.17897589 35.73364258 0.1940918 C43.38679345 0.22625619 51.03966219 0.27745235 58.69262695 0.34057617 C58.69262695 2.65057617 58.69262695 4.96057617 58.69262695 7.34057617 C35.92262695 7.34057617 13.15262695 7.34057617 -10.30737305 7.34057617 C-8.65109672 0.71547087 -6.67158623 -0.03871327 0 0 Z " fill="#A2B1BF" transform="translate(318.307373046875,246.659423828125)"/>
<path d="M0 0 C8.25803234 -0.16234498 16.51539589 -0.28664333 24.77463055 -0.3626852 C28.6100121 -0.39918635 32.44430043 -0.44867304 36.27905273 -0.52807617 C39.98146574 -0.60425739 43.68282898 -0.64601376 47.38596535 -0.6641407 C48.79708193 -0.67705401 50.20814233 -0.7022733 51.61881065 -0.7401104 C53.59775904 -0.79106845 55.57776885 -0.79386065 57.55737305 -0.79467773 C58.68322311 -0.81022202 59.80907318 -0.8257663 60.96903992 -0.84178162 C64 0 64 0 69 7 C46.23 7 23.46 7 0 7 C0 4.69 0 2.38 0 0 Z " fill="#A4B3C1" transform="translate(411,247)"/>
<path d="M0 0 C2.96603758 1.41804604 5.6972208 3.03140219 8.44921875 4.828125 C9.29806641 5.38113281 10.14691406 5.93414062 11.02148438 6.50390625 C11.90126953 7.08011719 12.78105469 7.65632813 13.6875 8.25 C14.54794922 8.81074219 15.40839844 9.37148438 16.29492188 9.94921875 C18.01447651 11.07139985 19.73179081 12.19702186 21.44677734 13.32617188 C23.17411796 14.45857264 24.90910121 15.57938666 26.65087891 16.68945312 C27.47378418 17.21990234 28.29668945 17.75035156 29.14453125 18.296875 C29.88678955 18.76963867 30.62904785 19.24240234 31.39379883 19.72949219 C31.92384521 20.14875977 32.4538916 20.56802734 33 21 C33 21.66 33 22.32 33 23 C28.71167401 21.49479607 25.12047081 19.2581898 21.38671875 16.71875 C20.77230423 16.30459839 20.15788971 15.89044678 19.52485657 15.46374512 C18.23490657 14.5920144 16.94661665 13.71782263 15.65991211 12.84130859 C13.68196591 11.49623662 11.69588896 10.16382347 9.70898438 8.83203125 C8.45521927 7.98252289 7.20194608 7.13228798 5.94921875 6.28125 C5.3524382 5.88224487 4.75565765 5.48323975 4.14079285 5.07214355 C2.7239151 4.09938411 1.35609374 3.05584717 0 2 C0 1.34 0 0.68 0 0 Z " fill="#000011" transform="translate(361,257)"/>
<path d="M0 0 C1.48521677 0.75911079 2.96303425 1.53271234 4.4375 2.3125 C5.67306641 2.95638672 5.67306641 2.95638672 6.93359375 3.61328125 C9 5 9 5 10 8 C6.01328937 6.63312778 3.11505367 4.84804907 0 2 C0 1.34 0 0.68 0 0 Z " fill="#00003C" transform="translate(384,272)"/>
</svg>
