<svg version="1.1" xmlns="http://www.w3.org/2000/svg" viewBox="0 0 274.7608669538977 231.04209419999043" width="274.7608669538977" height="231.04209419999043" class="excalidraw-svg">
  <!-- svg-source:excalidraw -->
  
  <defs>
    <style class="style-fonts">
      
    </style>
    
  </defs>
  <rect x="0" y="0" width="274.7608669538977" height="231.04209419999043" fill="#ffffff"></rect><g stroke-linecap="round"><g transform="translate(79.63073834198275 10) rotate(0 57.7496951349661 105.52104709999522)"><path d="M0 0 C-22.8 23.41, -45.61 46.82, -69.63 71.49 M-69.63 71.49 C-69.62 113.4, -69.62 155.3, -69.61 211.04 M-69.61 211.04 C1 210.99, 71.62 210.95, 116.6 210.92 M116.6 210.92 C139.95 186.58, 163.3 162.25, 185.13 139.49 M185.13 139.49 C185 106.37, 184.87 73.26, 184.58 0.49 M184.58 0.49 C125.58 0.33, 66.58 0.18, 0 0" stroke="#e01073" stroke-width="2.5" fill="none" stroke-dasharray="8 10"></path></g></g><mask></mask><g stroke-linecap="round"><g transform="translate(22.758882741632192 204.10663075290435) rotate(0 115.6235814053018 -33.03388749569343)" fill-rule="evenodd"><path d="M0 0 L167.7 -0.48 L231.25 -65.85 L63.28 -66.07 L0 0" stroke="none" stroke-width="0" fill="#4acfdd" fill-rule="evenodd"></path><path d="M0 0 C44.74 -0.13, 89.47 -0.26, 167.7 -0.48 M0 0 C56.42 -0.16, 112.84 -0.32, 167.7 -0.48 M167.7 -0.48 C191.96 -25.44, 216.23 -50.4, 231.25 -65.85 M167.7 -0.48 C183.56 -16.8, 199.42 -33.12, 231.25 -65.85 M231.25 -65.85 C188.41 -65.91, 145.58 -65.96, 63.28 -66.07 M231.25 -65.85 C173.34 -65.93, 115.44 -66, 63.28 -66.07 M63.28 -66.07 C49.57 -51.76, 35.87 -37.45, 0 0 M63.28 -66.07 C44.82 -46.79, 26.36 -27.52, 0 0 M0 0 C0 0, 0 0, 0 0 M0 0 C0 0, 0 0, 0 0" stroke="transparent" stroke-width="1" fill="none"></path></g></g><mask></mask><g stroke-linecap="round"><g transform="translate(22.68611044276679 167.6226614069438) rotate(0 115.6235814053018 -33.03388749569343)" fill-rule="evenodd"><path d="M0 0 L167.7 -0.48 L231.25 -65.85 L63.28 -66.07 L0 0" stroke="none" stroke-width="0" fill="#0f4565" fill-rule="evenodd"></path><path d="M0 0 C56.01 -0.16, 112.02 -0.32, 167.7 -0.48 M0 0 C65.67 -0.19, 131.33 -0.38, 167.7 -0.48 M167.7 -0.48 C191.91 -25.39, 216.12 -50.29, 231.25 -65.85 M167.7 -0.48 C189.34 -22.75, 210.99 -45.01, 231.25 -65.85 M231.25 -65.85 C189.33 -65.91, 147.41 -65.96, 63.28 -66.07 M231.25 -65.85 C191.16 -65.9, 151.08 -65.95, 63.28 -66.07 M63.28 -66.07 C48.85 -51, 34.41 -35.93, 0 0 M63.28 -66.07 C48.43 -50.56, 33.58 -35.06, 0 0 M0 0 C0 0, 0 0, 0 0 M0 0 C0 0, 0 0, 0 0" stroke="transparent" stroke-width="1" fill="none"></path></g></g><mask></mask><g stroke-linecap="round"><g transform="translate(22.68587147083582 130.9865872829142) rotate(0 115.6235814053018 -33.03388749569343)" fill-rule="evenodd"><path d="M0 0 L167.7 -0.48 L231.25 -65.85 L63.28 -66.07 L0 0" stroke="none" stroke-width="0" fill="#e38017" fill-rule="evenodd"></path><path d="M0 0 C38.8 -0.11, 77.59 -0.22, 167.7 -0.48 M0 0 C37.05 -0.11, 74.1 -0.21, 167.7 -0.48 M167.7 -0.48 C191.96 -25.44, 216.23 -50.4, 231.25 -65.85 M167.7 -0.48 C183.32 -16.56, 198.95 -32.63, 231.25 -65.85 M231.25 -65.85 C168.05 -65.93, 104.84 -66.01, 63.28 -66.07 M231.25 -65.85 C179.86 -65.92, 128.47 -65.98, 63.28 -66.07 M63.28 -66.07 C39.34 -41.07, 15.4 -16.08, 0 0 M63.28 -66.07 C39.31 -41.04, 15.33 -16.01, 0 0 M0 0 C0 0, 0 0, 0 0 M0 0 C0 0, 0 0, 0 0" stroke="transparent" stroke-width="1" fill="none"></path></g></g><mask></mask><g stroke-linecap="round"><g transform="translate(22.68611044276679 94.35003521502266) rotate(0 115.6235814053018 -33.03388749569343)" fill-rule="evenodd"><path d="M0 0 L167.7 -0.48 L231.25 -65.85 L63.28 -66.07 L0 0" stroke="none" stroke-width="0" fill="#16afb5" fill-rule="evenodd"></path><path d="M0 0 C57.1 -0.16, 114.19 -0.33, 167.7 -0.48 M0 0 C41.76 -0.12, 83.53 -0.24, 167.7 -0.48 M167.7 -0.48 C186.51 -19.84, 205.33 -39.19, 231.25 -65.85 M167.7 -0.48 C181.16 -14.33, 194.62 -28.17, 231.25 -65.85 M231.25 -65.85 C186.54 -65.91, 141.82 -65.97, 63.28 -66.07 M231.25 -65.85 C174.73 -65.92, 118.22 -66, 63.28 -66.07 M63.28 -66.07 C48.29 -50.41, 33.29 -34.76, 0 0 M63.28 -66.07 C46.26 -48.3, 29.25 -30.54, 0 0 M0 0 C0 0, 0 0, 0 0 M0 0 C0 0, 0 0, 0 0" stroke="transparent" stroke-width="1" fill="none"></path></g></g><mask></mask><g stroke-linecap="round"><g transform="translate(192.09213384674564 93.23416066717147) rotate(0 30.49061935831695 22.604965205957782)" fill-rule="evenodd"><path d="M0 0 L61.98 -63.87 L61.27 -27.86 L28.55 43.04 L61.41 9.53 L60.84 44.58 L-0.46 109.08 L-0.62 74 L28.9 5.18 L-0.01 34.38 L-1 1.23" stroke="none" stroke-width="0" fill="#e01073" fill-rule="evenodd"></path><path d="M0 0 C24.24 -24.98, 48.48 -49.96, 61.98 -63.87 M0 0 C19.21 -19.79, 38.41 -39.58, 61.98 -63.87 M61.98 -63.87 C61.79 -54.5, 61.61 -45.13, 61.27 -27.86 M61.98 -63.87 C61.79 -54.41, 61.61 -44.96, 61.27 -27.86 M61.27 -27.86 C51.64 -7, 42.01 13.87, 28.55 43.04 M61.27 -27.86 C53.53 -11.08, 45.78 5.69, 28.55 43.04 M28.55 43.04 C35.88 35.56, 43.22 28.08, 61.41 9.53 M28.55 43.04 C41.07 30.27, 53.59 17.5, 61.41 9.53 M61.41 9.53 C61.18 23.33, 60.96 37.13, 60.84 44.58 M61.41 9.53 C61.24 19.78, 61.08 30.03, 60.84 44.58 M60.84 44.58 C47.65 58.45, 34.46 72.33, -0.46 109.08 M60.84 44.58 C47.45 58.66, 34.06 72.75, -0.46 109.08 M-0.46 109.08 C-0.51 98.3, -0.56 87.53, -0.62 74 M-0.46 109.08 C-0.52 96.44, -0.57 83.8, -0.62 74 M-0.62 74 C9.61 50.16, 19.83 26.33, 28.9 5.18 M-0.62 74 C7.56 54.94, 15.73 35.88, 28.9 5.18 M28.9 5.18 C22.74 11.4, 16.58 17.62, -0.01 34.38 M28.9 5.18 C17.71 16.49, 6.52 27.79, -0.01 34.38 M-0.01 34.38 C-0.24 26.48, -0.48 18.58, -1 1.23 M-0.01 34.38 C-0.38 22.01, -0.75 9.64, -1 1.23 M-1 1.23 C-0.65 0.8, -0.3 0.37, 0 0 M-1 1.23 C-0.71 0.88, -0.43 0.53, 0 0" stroke="#e01073" stroke-width="2" fill="none"></path></g></g><mask></mask><g stroke-linecap="round"><g transform="translate(22.960422350357362 94.09895399522355) rotate(0 83.51146389026995 54.90452607428282)" fill-rule="evenodd"><path d="M0 0 L57.26 0.04 L82.72 74.17 L107.32 -0.17 L167.02 -0.26 L118.02 110.07 L48.57 109.71 L0 0" stroke="none" stroke-width="0" fill="#ffffff" fill-rule="evenodd"></path><path d="M0 0 C17.65 0.01, 35.3 0.03, 57.26 0.04 M0 0 C11.85 0.01, 23.69 0.02, 57.26 0.04 M57.26 0.04 C62.45 15.15, 67.64 30.26, 82.72 74.17 M57.26 0.04 C67.29 29.25, 77.32 58.46, 82.72 74.17 M82.72 74.17 C88.66 56.2, 94.61 38.24, 107.32 -0.17 M82.72 74.17 C88 58.19, 93.29 42.22, 107.32 -0.17 M107.32 -0.17 C119.97 -0.19, 132.62 -0.21, 167.02 -0.26 M107.32 -0.17 C124.75 -0.19, 142.18 -0.22, 167.02 -0.26 M167.02 -0.26 C155.13 26.52, 143.23 53.3, 118.02 110.07 M167.02 -0.26 C148.88 40.58, 130.74 81.42, 118.02 110.07 M118.02 110.07 C96.89 109.96, 75.77 109.85, 48.57 109.71 M118.02 110.07 C92.74 109.94, 67.46 109.81, 48.57 109.71 M48.57 109.71 C38.34 86.6, 28.11 63.49, 0 0 M48.57 109.71 C33.8 76.34, 19.02 42.97, 0 0 M0 0 C0 0, 0 0, 0 0 M0 0 C0 0, 0 0, 0 0" stroke="#e01073" stroke-width="0.5" fill="none"></path></g></g><mask></mask></svg>